<svg xmlns="http://www.w3.org/2000/svg">
<defs>
<font id="TopSecret-Bold" horiz-adv-x="1401" >
  <font-face 
    font-family="Top Secret"
    font-weight="700"
    font-stretch="normal"
    units-per-em="2048"
    panose-1="2 0 8 0 0 0 0 0 0 0"
    ascent="1638"
    descent="-410"
    x-height="1701"
    cap-height="1696"
    bbox="-83 -294 1809 1722"
    underline-thickness="150"
    underline-position="-142"
    unicode-range="U+0020-2212"
  />
<missing-glyph horiz-adv-x="1247" 
d="M1283 1557h-4l-32 -4q-13 0 -36 16h-32l-16 4l-16 -4l-48 8q-24 -24 -48 -24h-12q-13 0 -28 12h-4q-41 -12 -72 -12l-60 8l-24 -4l-20 4l-4 -4l-112 16l-56 -16l-28 4l-44 -8l-24 12l-4 -4h-4l-16 4l-36 -12l-12 12l-20 -4h-40l-48 -4l-8 8l-8 -8l-40 4h-36l-40 -20
l-64 16l-4 -4h-4l-32 12h-44l-16 -8l-16 8l-36 -4l-4 4l-32 -8h-12l-28 7l-4 101l4 4l32 -8q0 9 68 24q15 16 32 20q29 -28 60 -28l20 12q9 -13 60 -24l48 12l44 -4h20l24 12q19 -12 36 -12q34 0 56 8l88 -12q6 16 12 16h36l4 4l52 -24h4l112 28l20 -20q24 0 32 -8h12l20 12
l4 -4h8q20 0 20 12h12v-8h12l12 12q44 -4 92 -20h20q28 0 108 28q40 -16 116 -16l28 6v-130zM535 1283h15v-50q0 -28 -43 -71v-43q21 -27 21 -51v-7q-36 -73 -72 -114l-50 -15h-50l-122 72l-7 57l79 129l-7 22q100 7 100 36l36 -8h36zM748 1309l-22 -6l-36 20l-32 -12l-12 4
l-4 -4h-4q-28 4 -28 12q-114 -8 -140 -16l-16 4l-4 -4h-4l-28 8q-10 -8 -36 -8l-12 -4v-4l-40 8l-24 -4l-28 8l-8 -8l-28 4l-16 -4l-28 4l-65 -12q-5 -14 -9 -57l4 -32l-8 -28l8 -20l-8 -8v-4q16 -14 16 -28l-4 -24l4 -12l-4 -24l4 -24l-12 -44v-8l24 -68q-20 -38 -20 -64
v-24l12 -68q-8 0 -12 -32q5 -52 12 -52l-8 -24l8 -16q-12 -18 -12 -96q12 -37 12 -68q-6 -16 -12 -16l8 -72h-4l4 -4l-4 -48v-12l-4 -4l12 -40l-4 -12l4 -4v-4l-8 -16l4 -4l-4 -20v-44l-6 -49l72 -8l44 8l24 -4l120 20h20q11 -16 116 -16h48l36 4q56 -6 56 -12l80 8l28 -8
q19 12 72 12h4l40 -12h32l52 16h38v2l8 44l-16 24v16q20 25 20 60l-8 28v12l4 16l-8 20l8 20l-8 24v40l-4 4l4 4v12l-8 12v8q12 41 16 92l-4 36l4 4v4l-8 16l8 32l-4 4v12h4q-5 130 -16 164l16 64l-4 32l4 20q-12 19 -12 60l12 16l-20 92l20 60l-8 48l4 4v4l-4 12l4 40

<glyph glyph-name=".notdef" horiz-adv-x="1247" 
d="M1283 1557h-4l-32 -4q-13 0 -36 16h-32l-16 4l-16 -4l-48 8q-24 -24 -48 -24h-12q-13 0 -28 12h-4q-41 -12 -72 -12l-60 8l-24 -4l-20 4l-4 -4l-112 16l-56 -16l-28 4l-44 -8l-24 12l-4 -4h-4l-16 4l-36 -12l-12 12l-20 -4h-40l-48 -4l-8 8l-8 -8l-40 4h-36l-40 -20
l-64 16l-4 -4h-4l-32 12h-44l-16 -8l-16 8l-36 -4l-4 4l-32 -8h-12l-28 7l-4 101l4 4l32 -8q0 9 68 24q15 16 32 20q29 -28 60 -28l20 12q9 -13 60 -24l48 12l44 -4h20l24 12q19 -12 36 -12q34 0 56 8l88 -12q6 16 12 16h36l4 4l52 -24h4l112 28l20 -20q24 0 32 -8h12l20 12
l4 -4h8q20 0 20 12h12v-8h12l12 12q44 -4 92 -20h20q28 0 108 28q40 -16 116 -16l28 6v-130zM535 1283h15v-50q0 -28 -43 -71v-43q21 -27 21 -51v-7q-36 -73 -72 -114l-50 -15h-50l-122 72l-7 57l79 129l-7 22q100 7 100 36l36 -8h36zM748 1309l-22 -6l-36 20l-32 -12l-12 4
l-4 -4h-4q-28 4 -28 12q-114 -8 -140 -16l-16 4l-4 -4h-4l-28 8q-10 -8 -36 -8l-12 -4v-4l-40 8l-24 -4l-28 8l-8 -8l-28 4l-16 -4l-28 4l-65 -12q-5 -14 -9 -57l4 -32l-8 -28l8 -20l-8 -8v-4q16 -14 16 -28l-4 -24l4 -12l-4 -24l4 -24l-12 -44v-8l24 -68q-20 -38 -20 -64
v-24l12 -68q-8 0 -12 -32q5 -52 12 -52l-8 -24l8 -16q-12 -18 -12 -96q12 -37 12 -68q-6 -16 -12 -16l8 -72h-4l4 -4l-4 -48v-12l-4 -4l12 -40l-4 -12l4 -4v-4l-8 -16l4 -4l-4 -20v-44l-6 -49l72 -8l44 8l24 -4l120 20h20q11 -16 116 -16h48l36 4q56 -6 56 -12l80 8l28 -8
q19 12 72 12h4l40 -12h32l52 16h38v2l8 44l-16 24v16q20 25 20 60l-8 28v12l4 16l-8 20l8 20l-8 24v40l-4 4l4 4v12l-8 12v8q12 41 16 92l-4 36l4 4v4l-8 16l8 32l-4 4v12h4q-5 130 -16 164l16 64l-4 32l4 20q-12 19 -12 60l12 16l-20 92l20 60l-8 48l4 4v4l-4 12l4 40
l-2 22l-6 -1l-16 4l-56 -12l-4 4h-4l-28 -8l-12 4l-28 -8l-36 12h-64zM19 1410l3 9l-4 16h28l28 -4q0 7 20 12q88 -8 92 -16l36 4l12 -4l64 16q64 -3 64 -12l40 4h24l32 -4q120 6 120 16q23 -12 68 -20l44 12q19 -2 33 -7v3l45 -3l100 12l120 -24l23 17h122l7 -42l-8 -64
l4 -20l-8 -48l4 -28l-12 -48l8 -36l-8 -24v-12q0 -14 16 -32l-4 -40l4 -24l-16 -60l4 -16l-12 -64q14 0 16 -52h4l-4 -4v-16l4 -24l-8 -16l16 -52v-12l-8 -32l4 -12l-4 -24l4 -12l-12 -104l12 -72l-4 -12l8 -24l-12 -52l4 -56q-10 0 -12 -36q0 -18 16 -48q-8 -11 -16 -60
l16 -44q-4 -48 -16 -64l14 -54h-112l2 2v1l-18 -3l-68 16l-64 -8l-28 4l-16 -4l-20 4l-20 -12l-20 12q-46 -4 -60 -16l-60 8l-36 -8l-12 12h-12l-12 -12l-16 4l-24 -4l-52 12v-4l-64 20l-84 -24l-112 12q-4 -12 -24 -12h-16q-21 0 -36 12l-18 -3l1 -6h-46l-21 -3
q-18 0 -31 3h-24l1 16l-2 4q-6 12 -10 58l2 14q-4 7 -8 13q4 10 11 17l3 28l-12 68l20 64l-16 56l12 60l-4 12l20 36v20l-28 104l20 92l-20 48q12 25 16 88l-4 16l12 28q-12 23 -12 56l8 36v4l-16 72q12 24 12 76v12l-8 24l4 32l-4 16l4 16l-4 12q4 80 12 80l-16 64l4 12
l-4 24l10 16l1 5l-3 3v8h7zM507 466h57q48 -16 93 -136v-22q-64 -91 -64 -129q-61 0 -94 -14v7l-43 -14q-93 0 -93 72q-25 0 -36 78v15q0 102 180 143zM636 1276q57 0 129 -107q102 0 143 -237q0 -55 -57 -129q0 -115 -237 -193l-43 7q-43 0 -86 -108l-21 -7q-38 0 -43 108
l14 43l-22 28q29 25 29 43l-36 43v58q38 53 187 78q12 44 57 94l21 64v22q0 46 -71 114v8q9 59 36 71zM1277 -257l-47 -10l-4 4h-4l-28 -8l-12 4l-28 -8l-36 12h-64l-24 4l-56 -8l-68 16l-64 -8l-28 4l-16 -4l-20 4l-20 -12l-20 12q-46 -4 -60 -16l-60 8l-36 -8l-12 12h-12
l-12 -12l-16 4l-24 -4l-52 12v-4l-64 20l-84 -24l-112 12q-4 -12 -24 -12h-16q-21 0 -36 12l-84 -12q-56 0 -56 28l4 16q0 34 -20 64q12 32 56 32l60 -16h16l72 -8l44 8l24 -4l120 20h20q11 -16 116 -16h48l36 4q56 -6 56 -12l80 8l28 -8q19 12 72 12h4l40 -12h32l52 16h48
l16 -4l4 4l60 -4l100 12l111 -22v-108z" />
    <glyph glyph-name=".null" horiz-adv-x="0" 
 />
    <glyph glyph-name="nonmarkingreturn" horiz-adv-x="508" 
 />
    <glyph glyph-name="space" unicode=" " horiz-adv-x="1001" 
d="M1035 -266l-55 7l-24 -4l-20 4l-4 -4l-112 16l-56 -16l-28 4l-44 -8l-24 12l-4 -4h-4l-16 4l-36 -12l-12 12l-20 -4h-40l-48 -4l-8 8l-8 -8l-40 4h-36l-40 -20l-64 16l-4 -4h-4l-32 12h-44l-16 -8l-16 8l-36 -4l-4 4l-32 -8h-12l-48 12l-40 -8l-16 4l-9 -2v108l9 -2l44 4
l24 -8h4l4 4l32 -8q0 9 68 24q15 16 32 20q29 -28 60 -28l20 12q9 -13 60 -24l48 12l44 -4h20l24 12q19 -12 36 -12q34 0 56 8l88 -12q6 16 12 16h36l4 4l52 -24h4l112 28l20 -20q24 0 32 -8h12l20 12l4 -4h8q20 0 20 12h12v-8h12l12 12q5 0 11 -1v-134zM857 1558l-11 -6
q-71 4 -96 12h-12l-4 -4l-24 8l-16 -12h-8q-13 16 -64 16l-88 -8l-4 4h-4q-11 -8 -64 -16l-28 8l-24 -4q-56 4 -56 20q-27 -24 -64 -24q-76 12 -156 12l-32 -12h-12q-21 0 -36 12l-24 -8l-24 12l-20 -12l-4 4v130l12 2q34 -12 72 -12v4l40 -16l104 20h28l28 -4q0 6 16 12
l4 -4h4l24 4q92 -12 92 -20h16l4 4h4q4 -12 24 -12h16q15 11 100 24l44 -12h12l68 12h20q15 -16 60 -16q20 7 43 10v4q8 -1 17 -3q10 1 20 1l3 -5q20 -5 41 -12h20q28 0 108 28q7 -3 15 -5v-121l-7 -2l-48 8q-24 -24 -48 -24h-12q-13 0 -28 12h-4q-20 -6 -37 -9z" />
    <glyph glyph-name="space" unicode="&#xa0;" horiz-adv-x="1001" 
d="M1035 -266l-55 7l-24 -4l-20 4l-4 -4l-112 16l-56 -16l-28 4l-44 -8l-24 12l-4 -4h-4l-16 4l-36 -12l-12 12l-20 -4h-40l-48 -4l-8 8l-8 -8l-40 4h-36l-40 -20l-64 16l-4 -4h-4l-32 12h-44l-16 -8l-16 8l-36 -4l-4 4l-32 -8h-12l-48 12l-40 -8l-16 4l-9 -2v108l9 -2l44 4
l24 -8h4l4 4l32 -8q0 9 68 24q15 16 32 20q29 -28 60 -28l20 12q9 -13 60 -24l48 12l44 -4h20l24 12q19 -12 36 -12q34 0 56 8l88 -12q6 16 12 16h36l4 4l52 -24h4l112 28l20 -20q24 0 32 -8h12l20 12l4 -4h8q20 0 20 12h12v-8h12l12 12q5 0 11 -1v-134zM857 1558l-11 -6
q-71 4 -96 12h-12l-4 -4l-24 8l-16 -12h-8q-13 16 -64 16l-88 -8l-4 4h-4q-11 -8 -64 -16l-28 8l-24 -4q-56 4 -56 20q-27 -24 -64 -24q-76 12 -156 12l-32 -12h-12q-21 0 -36 12l-24 -8l-24 12l-20 -12l-4 4v130l12 2q34 -12 72 -12v4l40 -16l104 20h28l28 -4q0 6 16 12
l4 -4h4l24 4q92 -12 92 -20h16l4 4h4q4 -12 24 -12h16q15 11 100 24l44 -12h12l68 12h20q15 -16 60 -16q20 7 43 10v4q8 -1 17 -3q10 1 20 1l3 -5q20 -5 41 -12h20q28 0 108 28q7 -3 15 -5v-121l-7 -2l-48 8q-24 -24 -48 -24h-12q-13 0 -28 12h-4q-20 -6 -37 -9z" />
    <glyph glyph-name="exclam" unicode="!" horiz-adv-x="545" 
d="M143 1434h27q112 0 235 -190l-9 -81l9 -54l-45 -189q-23 0 -81 -181q-18 0 -18 -108l9 -54q-22 -100 -72 -100q-46 0 -82 127v117q0 76 -90 208l-27 270l27 54l-9 46q54 39 54 108q49 0 72 27zM125 414q244 -21 244 -135q43 0 54 -72v-9q0 -91 -72 -91
q-77 -108 -162 -108h-19q-153 54 -153 126l-18 36q45 244 126 244v9zM-9 -147h11l5 4h6q5 -12 30 -12h20q19 11 127 24l56 -12h15l86 12h25q19 -16 76 -16q43 12 102 12l20 -28v-16q-15 0 -15 -8v-4l10 -28l-15 -12v-4q0 -6 20 -12l5 -4v-4l-35 -16q-90 4 -122 12h-15l-5 -4
l-31 8l-20 -12h-10q-17 16 -81 16l-112 -8l-5 4h-5q-14 -8 -81 -16l-35 8l-27 -3v119zM554 1556l-3 -1q-56 4 -56 20q-27 -24 -64 -24q-76 12 -156 12l-32 -12h-12q-21 0 -36 12l-24 -8l-24 12l-20 -12l-4 4h-4l-32 -4q-13 0 -36 16h-32l-16 4l-9 -2v121q38 -11 101 -11
l40 8q34 -12 72 -12v4l40 -16l104 20h28l28 -4q0 6 16 12l4 -4h4l24 4q92 -12 92 -20h7v-119z" />
    <glyph glyph-name="quotedbl" unicode="&#x22;" horiz-adv-x="711" 
d="M497 1498h20q17 0 40 -59l-10 -10v-10l10 -50l-10 -109l20 -178l-10 -79l10 -50q0 -79 -80 -109q-72 0 -79 139l-20 20l10 10v9l-39 169l10 89l-10 79q27 97 138 139zM131 1478q79 0 79 -89l-10 -50q10 -110 40 -138v-20q-70 -131 -70 -168l-9 -60l9 -59q0 -60 -69 -60
l-69 109l20 159q-50 77 -50 168q0 138 119 208h10zM729 -256q-43 2 -71 12q-41 -28 -56 -28h-12l-76 16h-56l-28 -8l-68 8q-19 0 -60 -20q-19 0 -56 28h-8l-12 -12h-4v8h-4q-15 -16 -28 -16l-32 4l-4 -4q-4 12 -24 12q-60 -1 -60 -8l-44 12l-24 -4h-4q-12 0 -16 52h-4
q4 68 44 68l36 8q0 -8 12 -8l32 4v-4q37 5 52 16q39 -8 56 -24l16 4l12 -4l32 4l4 -4l20 4h12l56 -4l4 4h4l24 -8l72 12h12l32 -8h20q29 0 72 12l12 -4l56 4h16l43 -11v-113zM729 1559q-2 -1 -5 -1q0 10 -44 16h-44l-28 -12l-84 16l-28 -8h-4l-4 4l-28 -8l-68 12l-32 -12h-4
l-4 4l-60 -8l-56 16l-80 -16l-76 4l-32 -4q0 7 -40 8h-28l-8 8v8l8 32v12l-8 12v16q0 28 32 32q77 -4 84 -12h4l4 4l16 -8q0 15 120 20l68 -16h16l4 4l4 -4h8l20 4l24 -4h16l52 8l44 -8h40l36 -12l56 12h4l36 -4l56 16l13 -3v-128z" />
    <glyph glyph-name="numbersign" unicode="#" horiz-adv-x="1207" 
d="M873 1439q45 -30 119 -40q-10 -42 -50 -79l10 -70v-29l-59 -119q36 -30 69 -30l149 10v-20l-20 -30l10 -10v-9l-10 -50l10 -10v-10l-20 -119h-59l-70 10v-10l-10 10h-99q-25 0 -30 -39l20 -109l-10 -70h60l69 20l10 -10l-40 -109v-59l20 -30v-50l-39 -9q-27 19 -129 29
l-50 -39l20 -50q-21 -109 -59 -109v-49l-70 -159q-89 6 -89 40q40 111 60 267l39 20v40l-10 10v9l-79 -9l-59 19l-10 -10h-10l-10 10h-10q-119 0 -119 -138l10 -10v-10l-10 -70l10 -49q-22 0 -50 -109h-19q-90 6 -90 20q20 26 20 89h10l-20 69q60 63 60 149q0 36 -30 59
l-30 -10l-148 20l-30 -10v10l59 159h-9l19 59l10 -10h10l40 10l30 -10q188 12 188 149l10 30v19q-218 0 -218 80v20q34 36 39 99l-10 29q0 43 80 80q86 -40 129 -40q66 156 128 228l-10 109l10 10h70l49 -10q-30 -172 -89 -287v-30l188 -20q0 17 50 30q0 62 30 138v10
l-10 10q32 157 79 179zM467 775l10 -50l-60 -79v-10l50 -30h10l89 40l10 -10h69l40 159l-10 29h-60l-59 10q-89 -15 -89 -59zM1219 -262l-26 -1l-84 12q0 -11 -60 -16l-16 4h-32l-32 12l-52 -12l-12 4q-52 -4 -52 -12l-20 4l-16 -4q-22 20 -76 20l-8 -8h-4l-16 4l-16 -8
l-32 8l-64 -12l-28 16l-24 -8l-4 4h-4l-40 -4l-36 12q-24 -16 -72 -16l-36 8q-28 0 -44 -8l-44 4h-36l-4 -4l-32 8l-16 -4l-12 4l-24 -12l-64 12l-80 -4h-13v113l21 -5q71 20 96 20q0 -12 16 -12l24 4l32 -4l4 4l4 -4h4q73 0 156 16l44 -16l52 8l32 -4l24 8h16q20 0 40 -12
l36 4q0 -5 40 -16q21 5 32 20l16 4l28 -4l4 4l144 -12l16 4l48 -12l44 4l32 -4l56 12l68 -8l24 8h20l32 -8l12 8h8v-4l6 1v-120zM1219 1555q-10 5 -48 8l-12 -4l-52 12l-32 -12h-32l-16 -4q-60 5 -60 16l-84 -12l-72 4l-64 -8l-56 12h-84q-7 -7 -48 -12l-24 4l-24 -8l-12 4
l-24 -8q0 20 -56 24l-68 -16h-32l-36 4h-4l-4 -4l-44 4h-20l-12 8h-12l-24 -8l-12 8q0 -8 -84 -12q-8 8 -48 12q0 -7 -31 -11v128l35 -9h40l4 4l4 -4h16l36 -4l120 12l12 -4l12 4l16 -4h4l4 4l28 -4l48 8l64 -8l60 16l124 -20q22 0 44 12q25 0 48 -12l64 12l92 -8v4h8l12 -8
l32 8h20l24 -8l68 8l56 -12l32 4l44 -4l48 12l12 -3v-125z" />
    <glyph glyph-name="dollar" unicode="$" horiz-adv-x="938" 
d="M413 1434h8q0 -155 170 -155q74 0 162 -185q0 -39 16 -62q0 -82 -132 -116h-15q-91 0 -124 116l-15 77v8q33 0 46 31l-70 69h-23l-23 -38l39 -163l-16 -15h-46l-39 8v15l16 31l-31 147h-8q-77 -15 -77 -147q0 -50 92 -85q6 -16 140 -70l7 -7q0 -19 47 -31q0 -31 46 -31
q20 -24 70 -24q0 -23 131 -147q0 -38 16 -38l-8 -8v-8l15 -62l-7 -30q2 -47 15 -47l-15 -31l7 -46q-69 -42 -69 -116q-10 0 -23 -54q-55 0 -85 -31l-24 7q-33 -31 -131 -46q-39 -25 -39 -62l16 -39q0 -28 -101 -46l-8 23l24 70l-16 23q-65 0 -232 70q-4 18 -62 38
q-46 75 -46 109h-8l8 7l-8 78v54l70 69l38 -7l16 15h23q74 -24 139 -124v-7q-13 -14 -23 -93l-8 -23q-62 0 -62 -54q62 -39 93 -39h31l23 23l-7 132q13 116 38 116l23 7l55 -46v-8q-16 -20 -31 -108h-8l8 -8v-23l-8 -39l46 -31q73 0 116 170q-134 155 -201 155h-15l-39 -8
q-72 72 -193 147q0 31 -23 31q-49 48 -93 240q0 116 178 255q0 39 62 86h7q26 0 54 -24h39v16l-23 54q0 85 85 85zM962 -260l-22 9h-44q-44 -6 -44 -16q-36 4 -36 12q-40 -4 -48 -12q-84 4 -84 12l-12 -8l-24 8h-12l-12 -8h-20l-44 -4l-4 4h-4l-36 -4h-32l-68 16
q-56 -4 -56 -24l-24 8l-12 -4l-24 8l-24 -4q-41 5 -48 12h-84l-56 -12l-64 8l-46 -3v120l86 7l64 -12q23 12 48 12q22 -12 44 -12l124 20l60 -16l64 8l48 -8l28 4l4 -4h4l16 4l12 -4l12 4l120 -12l36 4h16l4 4l4 -4h40l48 12l56 -16l36 4h4l6 -1v-112zM965 1549
q-16 5 -47 26q-32 -12 -84 -12l-80 4l-64 -12l-24 12l-12 -4l-16 4l-32 -8l-4 4h-36l-44 -4q-16 8 -44 8l-36 -8q-48 0 -72 16l-36 -12l-40 4h-4l-4 -4l-24 8l-28 -16l-64 12l-32 -8l-16 8l-16 -4h-4l-8 8q-54 0 -76 -20l-16 4l-20 -4q0 2 -4 4v125l4 -1l144 12l4 -4l28 4
l16 -4q11 -15 32 -20q40 11 40 16l36 -4q21 12 40 12h16l24 -8l32 4l52 -8l44 16q84 -16 156 -16h4l4 4l4 -4l32 4l24 -4q16 0 16 12q25 0 96 -20l64 16h16l56 -4l3 1v-135z" />
    <glyph glyph-name="percent" unicode="%" horiz-adv-x="1640" 
d="M428 1434q192 -31 192 -64q45 -5 45 -54q28 -16 55 -128l9 -9h9l-18 -37l18 -45q0 -89 -73 -164q-53 -80 -209 -119q-46 6 -46 55q0 45 55 45v19q3 63 18 63l-9 46l9 55q-16 209 -45 209q-55 19 -55 37q27 36 27 82l9 9h9zM273 1416l55 -18l18 18q19 0 19 -28
q-32 -72 -82 -72l-37 -92q24 -24 37 -145l-10 -55v-46q0 -62 82 -73l10 -82h-10q-57 0 -136 46l-101 -9q-18 64 -54 64l-64 255q0 67 155 219zM1103 1407l9 -37q-1 -25 -73 -91q0 -115 -100 -264l-82 -210l9 -9v-9l-82 -91l9 -9v-19q-79 -97 -137 -218q-21 -18 -54 -146
q-82 -70 -82 -210l-19 -55h-18v-9l-45 19l-83 -19h-18v9l119 274q73 27 73 55l-9 9q0 57 72 200q0 36 101 128l27 118l-9 55l109 100v64q0 45 119 146l36 146q0 73 128 73zM1167 632h82q246 -115 246 -246l-37 -146l9 -9v-9q-7 -54 -200 -219h-27l-73 18h-9l-10 -9h-9v55
q64 124 64 182l-9 27l9 46q0 138 -73 228q18 82 37 82zM1103 623l9 -9v-19l-36 -54l-37 9q0 -18 -27 -18q15 -146 36 -146l-18 -91l9 -9l-9 -92v-36q0 -43 64 -82v-46l-9 -9v-9l-174 46v-9q-102 0 -136 145l9 37l-27 155v36q59 98 145 146q18 42 37 46h146l9 9h9zM1658 1580
l-5 -1l-32 4l-64 -16q-34 11 -164 16v-4h-12l-4 4l-32 -8l-16 8h-4l-4 -4l-36 4q-51 -4 -92 -16h-8l-12 8h-12l-4 -4l-4 4h-40l-24 8l-20 -8l-20 8l-16 -4h-12l-28 8q-35 0 -60 -20h-16l-24 16l-44 -8h-72q-29 16 -52 16h-8q-19 -15 -60 -20l-44 12q-45 -8 -68 -20
q0 10 -120 16l-32 -4h-24l-40 4q0 -9 -64 -12l-64 16l-12 -4l-36 4q-4 -8 -92 -16q-20 5 -20 12l-28 -4h-28l4 16l-16 48v4q14 52 40 52h36q0 16 12 16l16 -4l20 8l68 -12l28 4l16 -4l28 4l8 -8l28 8l24 -4l40 8v-4l12 -4q26 0 36 -8l28 8h4l4 -4l16 4q26 -8 140 -16
q0 8 28 12h4l4 -4l12 4l32 -12l36 20l76 -20q16 12 64 16l44 -16q49 8 60 16q30 -16 48 -16q36 2 36 12l56 -4l52 12l24 -8l12 4l72 -12l104 12l12 -4l24 4l12 -4l32 8h12l52 -16l16 8l24 -4h16l4 4v-4q52 -2 52 -16l61 11v-110zM1658 -240l-42 -7l-4 4h-4l-12 -4l-40 4
l-52 -4l-112 4q-8 -7 -60 -12l-72 8l-68 -12l-64 20l-56 -16l-60 12l-12 -4l-36 20h-20l-104 -28l-92 20l-48 -20q-25 12 -88 16l-16 -4l-28 12q-23 -12 -56 -12l-36 8h-4l-72 -16q-24 12 -76 12h-12l-24 -8l-32 4l-16 -4l-16 4l-12 -4q-80 4 -80 12l-64 -16l-12 4l-24 -4
l-20 12l-4 -4h-8q0 31 -24 76l4 20h-4l4 12h44l16 4l16 -4l52 16q8 -7 64 -12l32 4l28 -8l20 8l8 -8h4q14 16 28 16l24 -4l12 4l24 -4l24 4l44 -12h8l68 24q38 -20 64 -20h24l68 12q0 -8 32 -12q52 5 52 12l24 -8l16 8q18 -12 96 -12q37 12 68 12q16 -6 16 -12l72 8v-4l4 4
l48 -4h12l4 -4l40 12l12 -4l4 4h4l16 -8l4 4l20 -4h44l100 -12l112 20l64 -8l20 4l48 -8l28 4l46 -11v-106z" />
    <glyph glyph-name="ampersand" unicode="&#x26;" horiz-adv-x="1458" 
d="M627 1434h119l18 -18v-82q0 -15 -64 -46l-9 -46l46 -209q27 0 118 -128l165 -347q61 -56 100 -191q39 0 82 -155q12 0 27 -64q70 0 92 -82l-10 -28l-82 19l-136 -28l-119 46h-37q-34 -27 -82 -27q-82 0 -136 200q-34 0 -55 101q-210 290 -210 410q-155 182 -155 292v73
q0 99 265 292zM883 1425h18l46 -55q26 0 82 -73v-27l-19 -18l19 -92l-9 -9v-9l9 -45q-59 -165 -101 -165l-45 119q43 14 54 173q-72 0 -91 101q12 100 37 100zM1138 941q80 0 128 -182q-119 -192 -119 -246q-15 0 -73 109l28 82l-9 37l9 55l-46 18v27q64 100 82 100z
M308 786q55 -52 55 -82l-9 -27q36 -194 100 -274l18 -73v-27q34 0 73 -91q84 0 164 -137l-264 -73q-15 46 -55 46l-127 -10q-32 8 -110 92l-36 -28h-19q0 82 -82 201q0 46 -18 46q0 142 100 291q0 37 73 37q0 31 73 36q7 73 64 73zM1482 1564l-65 14h-4l-36 -8q-33 0 -56 12
l-28 -12l-16 4q-63 -4 -88 -16l-48 20l-92 -20l-104 28h-20l-36 -20l-12 4l-60 -12l-56 16l-64 -20l-68 12l-72 -8q-52 5 -60 12l-112 -4l-52 4l-40 -4l-12 4h-4l-4 -4l-48 8l-60 -20l-92 20l-16 -12q-41 0 -60 12l-15 -3v110l3 1l16 -4l60 16l24 -4l40 4q18 -16 32 -16h12
l24 8l36 -8l48 12l28 -4l48 8l20 -4l64 8l112 -20l100 12h44l20 4l4 -4l16 8h4l4 -4l12 4l40 -12l4 4h12l48 4l4 -4v4l72 -8q0 6 16 12q31 0 68 -12q78 0 96 12l16 -8l24 8q0 -7 52 -12q32 4 32 12l68 -12h24q26 0 64 20l68 -24h8l13 4v-122zM1482 -254l-18 2
q-120 -6 -120 -16q-23 12 -68 20l-44 -12q-41 5 -60 20h-8q-23 0 -52 -16h-72l-44 8l-24 -16h-16q-25 20 -60 20l-28 -8h-12l-16 4l-20 -8l-20 8l-24 -8h-40l-4 -4l-4 4h-12l-12 -8h-8q-41 12 -92 16l-36 -4l-4 4h-4l-16 -8l-32 8l-4 -4h-12v4q-130 -5 -164 -16l-64 16
l-32 -4l-20 4q-19 -12 -60 -12l-16 12l-92 -20l-60 20l-6 -1v106l2 -1l36 8l24 -8h12q14 0 32 16l40 -4l24 4l60 -16l16 4l64 -12q0 14 52 16v4l4 -4h16l24 4l16 -8l52 16h12l32 -8l12 4l24 -4l12 4l104 -12l72 12l12 -4l24 8l52 -12l56 4q0 -10 36 -12q18 0 48 16
q11 -8 60 -16l44 16q48 -4 64 -16l76 20l36 -20l32 12l12 -4l4 4h4q28 -4 28 -12q114 8 140 16l16 -4l4 4h4l6 -2v-124z" />
    <glyph glyph-name="quotesingle" unicode="'" horiz-adv-x="360" 
d="M84 1398h46l45 -10v-27l46 -119l-91 -392l-9 -9h-10q-42 0 -63 183q-20 17 -46 118l9 37l-9 36q35 108 73 155zM381 -254l-19 4l-56 -16l-60 8l-4 -4h-4l-32 12l-68 -12l-28 8l-4 -4h-4l-28 8l-84 -16l-6 3v112l50 -11l36 12h40l44 8l52 -8h16l24 4l20 -4h8l4 4l4 -4h16
l68 16q8 0 15 -1v-119zM381 1563l-1 1h-4v-8h-4l-12 12h-8q-36 -28 -56 -28q-41 20 -60 20l-68 -8l-28 8h-56l-76 -16h-12q-4 0 -9 2v135l9 3q43 -12 72 -12h20l32 8h12l72 -12l24 8h4l4 -4l56 4h12l20 -4l4 4l32 -4l12 4l9 -2v-111z" />
    <glyph glyph-name="parenleft" unicode="(" horiz-adv-x="678" 
d="M490 1434h56q7 -48 17 -48q0 -22 -65 -65q0 -24 -33 -24v-25q0 -30 -40 -65q0 -47 -89 -129q-56 -119 -105 -389v-48l56 -251q114 -135 114 -154l-9 -41q19 0 33 -56q67 -62 138 -98v-23q0 -13 -33 -25l-32 8l-65 -8l-105 114q-164 123 -235 274l-41 57l8 57v40
q-48 81 -48 154h8l-16 73q48 110 81 235q13 0 48 89q42 0 89 146l73 73q81 0 81 32q35 73 97 73q0 24 17 24zM699 1562q-5 -2 -8 -5l-60 8l-36 -8l-12 12h-12l-12 -12l-16 4l-24 -4l-52 12v-4l-64 20l-84 -24l-112 12q-4 -12 -24 -12h-16q-21 0 -36 12l-84 -12q-56 0 -56 28
l4 16q0 34 -20 64q12 32 56 32l60 -16h16l72 -8l44 8l24 -4l120 20h20q11 -16 116 -16h48l36 4q56 -6 56 -12l56 6v-121zM699 -262q-78 0 -152 -12q-37 0 -64 24q0 -16 -56 -20l-24 4l-28 -8q-53 8 -64 16h-4l-4 -4l-88 8q-51 0 -64 -16h-8l-16 12l-24 -8l-4 4h-12
q-25 -8 -96 -12l-28 16v4l4 4q16 6 16 12v4l-12 12l8 28v4q0 8 -12 8v16l16 28q46 0 80 -12q46 0 60 16h20l68 -12h12l44 12q85 -13 100 -24h16q20 0 24 12h4l4 -4h16q0 8 92 20l24 -4h4l4 4q16 -6 16 -12l28 4h28l72 -14v-110z" />
    <glyph glyph-name="parenright" unicode=")" horiz-adv-x="690" 
d="M19 1434q132 0 168 -76q134 -62 134 -116q0 -42 101 -76v-26l-8 -32l117 -210l17 -84l-8 -9v-8l16 -59l-8 -33l25 -67v-9q-108 -289 -142 -326q-77 -136 -302 -302h-110q-16 0 -16 25q11 50 67 50q60 143 134 143v16l-8 34q81 125 109 226v59q0 77 42 184v51
q-68 217 -134 268l8 51q0 71 -92 142q-17 66 -84 92q0 24 -42 58v18zM711 1568l-13 -3h-12l-48 12l-40 -8l-16 4l-56 -12l-4 4h-4l-28 -8l-12 4l-28 -8l-36 12h-64l-24 4l-56 -8l-68 16l-64 -8l-28 4l-16 -4l-20 4l-20 -12l-20 12q-36 -3 -52 -11v121l24 2l28 -8
q19 12 72 12h4l40 -12h32l52 16h48l16 -4l4 4l60 -4l100 12l120 -24l44 4l24 -8h4l4 4l32 -8q0 5 21 12v-113zM711 -251l-5 1l-112 -16l-4 4l-20 -4l-24 4l-60 -8q-31 0 -72 12h-4q-15 -12 -28 -12h-12q-24 0 -48 24l-48 -8l-16 4l-16 -4h-32q-23 -16 -36 -16l-32 4h-4
l-4 -4l-20 12l-24 -12l-24 8q-15 -12 -36 -12h-12l-32 12h-4v110l32 -6l40 16v-4q38 0 72 12l40 -8q76 0 116 16q80 -28 108 -28h20q48 16 92 20l12 -12h12v8h12q0 -12 20 -12h8l4 4l20 -12h12q8 8 32 8l20 20l57 -14v-107z" />
    <glyph glyph-name="plus" unicode="+" horiz-adv-x="1023" 
d="M330 1173l242 -53l-27 -90q5 -99 18 -99q-18 -36 -18 -98q7 -63 27 -63h54q45 0 45 18l125 -18h36q63 -11 63 -152h9q0 -63 -171 -63l-26 -9l-63 27l-99 -9v-9l18 -54l-9 -36l9 -36l-27 -152l18 -117l-27 -9l-72 9l-26 -9l-36 18l-54 -9q-7 54 -18 54l36 54l-9 72l9 26
l-36 135l9 45q0 27 -45 27l-9 27h-27l-215 -27l-27 9l9 107l-9 63l215 27l27 -9q90 0 90 116l-36 90l27 161l-9 27zM1038 1566q-7 -2 -14 -2h-12q-13 0 -28 12h-4q-41 -12 -72 -12l-60 8l-24 -4l-20 4l-4 -4l-112 16l-56 -16l-28 4l-44 -8l-24 12l-4 -4h-4l-16 4l-36 -12
l-12 12l-20 -4h-40l-48 -4l-8 8l-8 -8l-40 4h-36l-40 -20l-64 16l-4 -4h-4l-32 12h-44l-16 -8l-16 8l-36 -4l-4 4l-19 -5v113q17 5 47 12q15 16 32 20q29 -28 60 -28l20 12q9 -13 60 -24l48 12l44 -4h20l24 12q19 -12 36 -12q34 0 56 8l88 -12q6 16 12 16h36l4 4l52 -24h4
l112 28l20 -20q24 0 32 -8h12l20 12l4 -4h8q20 0 20 12h12v-8h12l12 12q44 -4 92 -20h20q12 0 34 5v-119zM1038 -263h-58l-36 -12l-28 8l-12 -4l-28 8h-4l-4 -4l-56 12l-16 -4l-40 8l-48 -12h-12l-32 8l-4 -4l-36 4l-16 -8l-16 8h-44l-32 -12h-4l-4 4l-64 -16l-40 20h-36
l-40 -4l-8 8l-8 -8l-48 4h-40l-20 4l-12 -12l-36 12l-16 -4h-4l-4 4l-24 -12l-44 8l-28 -4l-51 15v107l55 -14h4l52 24l4 -4h36q6 0 12 -16l88 12q22 -8 56 -8q17 0 36 12l24 -12h20l44 4l48 -12q51 11 60 24l20 -12q31 0 60 28q17 -4 32 -20q68 -15 68 -24l32 8l4 -4h4
l24 8l44 -4l120 24l100 -12h6v-124z" />
    <glyph glyph-name="comma" unicode="," horiz-adv-x="578" 
d="M278 480l18 -18l27 18q9 -58 54 -90q0 -29 62 -89l9 -63q-69 -238 -134 -287q-76 0 -179 -108l-90 -9l-9 9v9q0 99 116 117q3 33 117 98l-18 63h-18l-54 -45q-161 36 -161 198l-9 44q96 56 134 117q52 36 135 36zM599 1574q-18 5 -18 14q-27 -24 -64 -24q-76 12 -156 12
l-32 -12h-12q-21 0 -36 12l-24 -8l-24 12l-20 -12l-4 4h-4l-32 -4q-13 0 -36 16h-32l-16 4l-16 -4l-48 8q-17 -17 -34 -22v119q29 7 74 23q40 -16 116 -16l40 8q34 -12 72 -12v4l40 -16l104 20h28l28 -4q0 6 16 12l4 -4h4l24 4q36 -5 58 -9v-125zM599 -258l-2 -1v4l-52 -12
l-24 4l-16 -4l-12 12h-12l-12 -12l-36 8l-60 -8q-14 12 -60 16l-20 -12l-20 12l-20 -4l-16 4l-28 -4l-64 8l-68 -16l-56 8l-24 -4h-6v124l54 4l4 -4l16 4h48l52 -16h32l40 12h4q53 0 72 -12l28 8l80 -8q0 6 56 12l36 -4h48q21 0 38 1v-120z" />
    <glyph glyph-name="hyphen" unicode="-" horiz-adv-x="672" 
d="M369 800q164 -30 164 -60l7 -29l-7 -8v-7l22 -75q0 -74 -67 -74q0 -15 -52 -15h-37l-96 30h-30l-22 -15l-164 15l-74 -30l-8 8l8 7v82l-8 44l23 90q61 22 141 22h7q51 -8 52 -22q55 0 141 37zM693 1575q-4 0 -9 1h-44l-28 -12l-84 16l-28 -8h-4l-4 4l-28 -8l-68 12
l-32 -12h-4l-4 4l-60 -8l-56 16l-80 -16l-76 4l-32 -4q0 7 -40 8h-28l-8 8v8l8 32v12l-8 12v16q0 28 32 32q77 -4 84 -12h4l4 4l16 -8q0 15 120 20l68 -16h16l4 4l4 -4h8l20 4l24 -4h16l52 8l44 -8h40l36 -12l56 12h4l36 -4l29 8v-109zM693 -267h-13l-56 4l-12 -4
q-43 12 -72 12h-20l-32 -8h-12l-72 12l-24 -8h-4l-4 4l-56 -4h-12l-20 4l-4 -4l-32 4l-12 -4l-16 4q-17 -16 -56 -24q-15 11 -52 16v-4l-32 4q-12 0 -12 -8l-36 8q-40 0 -44 68h4q4 52 16 52h4l24 -4l44 12q0 -7 60 -8q20 0 24 12l4 -4l32 4q13 0 28 -16h4v8h4l12 -12h8
q37 28 56 28q41 -20 60 -20l68 8l28 -8h56l76 16h12q15 0 56 -28q11 4 25 7v-119z" />
    <glyph glyph-name="hyphen" unicode="&#xad;" horiz-adv-x="672" 
d="M369 800q164 -30 164 -60l7 -29l-7 -8v-7l22 -75q0 -74 -67 -74q0 -15 -52 -15h-37l-96 30h-30l-22 -15l-164 15l-74 -30l-8 8l8 7v82l-8 44l23 90q61 22 141 22h7q51 -8 52 -22q55 0 141 37zM693 1575q-4 0 -9 1h-44l-28 -12l-84 16l-28 -8h-4l-4 4l-28 -8l-68 12
l-32 -12h-4l-4 4l-60 -8l-56 16l-80 -16l-76 4l-32 -4q0 7 -40 8h-28l-8 8v8l8 32v12l-8 12v16q0 28 32 32q77 -4 84 -12h4l4 4l16 -8q0 15 120 20l68 -16h16l4 4l4 -4h8l20 4l24 -4h16l52 8l44 -8h40l36 -12l56 12h4l36 -4l29 8v-109zM693 -267h-13l-56 4l-12 -4
q-43 12 -72 12h-20l-32 -8h-12l-72 12l-24 -8h-4l-4 4l-56 -4h-12l-20 4l-4 -4l-32 4l-12 -4l-16 4q-17 -16 -56 -24q-15 11 -52 16v-4l-32 4q-12 0 -12 -8l-36 8q-40 0 -44 68h4q4 52 16 52h4l24 -4l44 12q0 -7 60 -8q20 0 24 12l4 -4l32 4q13 0 28 -16h4v8h4l12 -12h8
q37 28 56 28q41 -20 60 -20l68 8l28 -8h56l76 16h12q15 0 56 -28q11 4 25 7v-119z" />
    <glyph glyph-name="period" unicode="." horiz-adv-x="526" 
d="M181 371q177 0 224 -161v-18h9q-7 -59 -144 -180l-18 -44l-143 62q-108 63 -108 135q0 170 180 206zM545 1560l-24 -8q0 20 -56 24l-68 -16h-32l-36 4h-4l-4 -4l-44 4h-20l-12 8h-12l-24 -8l-12 8q0 -8 -84 -12q-8 8 -48 12q0 -8 -36 -12q0 9 -35 15v109l27 8l48 -12h40
l4 4l4 -4h16l36 -4l120 12l12 -4l12 4l16 -4h4l4 4l28 -4l48 8l64 -8l60 16l8 -1v-139zM545 -270l-20 7l-32 -4l-52 8l-44 -16q-83 16 -156 16h-4l-4 -4l-4 4l-32 -4l-24 4q-16 0 -16 -12q-25 0 -96 20l-64 -16h-3v119q25 5 59 5l80 -4l64 12l24 -12l12 4l16 -4l32 8l4 -4
h36l44 4q16 -8 44 -8l36 8q48 0 72 -16l28 9v-124z" />
    <glyph glyph-name="slash" unicode="/" horiz-adv-x="663" 
d="M671 1465q-42 -277 -98 -277l-63 -188l-9 -80q-29 -2 -71 -134l-63 -107l9 -9v-9l-18 -81l27 -26v-9l-98 -152v-45q-51 0 -72 -143l18 -18v-18q-56 0 -80 -214l-27 -18l-125 54q31 71 45 71l-9 45v53q58 58 80 143l-9 54q67 101 81 152l35 27v71q0 63 36 98l-9 9v36
q36 27 36 98q29 52 62 54q0 134 63 223q0 65 89 242q3 80 27 80h72zM687 1568q-11 2 -27 3l-12 -4l-52 12l-32 -12h-32l-16 -4q-60 5 -60 16l-84 -12l-72 4l-64 -8l-56 12h-84q-7 -7 -48 -12l-24 4l-24 -8l-12 4v139l116 -19q22 0 44 12q25 0 48 -12l64 12l92 -8v4h8l12 -8
l32 8h20l24 -8l68 8l56 -12l32 4l44 -4l39 10v-121zM687 -252l-31 -8h-20l-24 8l-68 -8l-56 12l-32 -4l-44 4l-48 -12l-16 4l-144 -12l-4 4l-28 -4l-16 4q-11 15 -32 20q-40 -11 -40 -16l-36 4q-20 -12 -40 -12h-16l-4 1v124l8 3l40 -4h4l4 4l24 -8l28 16l64 -12l32 8l16 -8
l16 4h4l8 -8q54 0 76 20l16 -4l20 4q0 -8 52 -12l12 4l52 -12l32 12h32l16 4q60 -5 60 -16l83 12v-116z" />
    <glyph glyph-name="zero" unicode="0" horiz-adv-x="1250" 
d="M497 1434l27 -74q-4 -46 -27 -46l-55 -27l-28 -147l18 -46l-9 -148v-55q6 -127 28 -138q-31 -95 -65 -138v-9l46 -73l-18 -28q0 -368 120 -368v-18q-46 -36 -46 -111l-10 -9h-27q-31 0 -83 46q-30 0 -83 64q-37 0 -37 37q-46 4 -184 184l10 46v9l-37 56v18l9 9
q-46 82 -46 147q55 83 55 138q0 37 -55 92q0 35 92 258q0 60 138 211q0 53 74 65h64zM607 1425h9l65 -19l82 10q16 0 65 -83q94 -36 202 -166q63 -99 65 -147v-64q27 0 27 -19v-9l-27 -37l55 -73l-28 -157q28 -47 28 -92v-9q0 -51 -74 -129l-9 -27l9 -65q-15 -86 -73 -128
q-31 0 -203 -166l-110 -28l-55 10l-46 -10l-9 10v18q60 74 128 92l19 92l-9 9l9 37l-19 147l10 55l-10 46l10 56l-10 36q19 40 28 166l-9 92l18 18v65l-18 174l9 37l-18 37l9 9v19q0 58 -92 82q0 59 -28 83v28zM1268 1563q-20 8 -32 8l-68 -8l-28 8h-56l-76 -16h-12
q-15 0 -56 28q-32 -12 -84 -12l-80 4l-64 -12l-24 12l-12 -4l-16 4l-32 -8l-4 4h-36l-44 -4q-16 8 -44 8l-36 -8q-48 0 -72 16l-36 -12l-40 4h-4l-4 -4l-24 8l-28 -16l-64 12l-32 -8l-16 8l-16 -4h-4l-8 8q-54 0 -76 -20l-16 4l-20 -4q0 6 -25 9v121l9 2l16 -4l144 12l4 -4
l28 4l16 -4q11 -15 32 -20q40 11 40 16l36 -4q21 12 40 12h16l24 -8l32 4l52 -8l44 16q84 -16 156 -16h4l4 4l4 -4l32 4l24 -4q16 0 16 12q25 0 96 -20l64 16h16l56 -4l12 4q43 -12 72 -12h20l32 8h12l72 -12l24 8h4l4 -4l32 2v-122zM1268 -253l-16 -3l-24 4h-16l-52 -8
l-44 8h-40l-36 12l-56 -12h-4l-36 4l-56 -16l-48 12h-40l-4 -4l-4 4h-16l-36 4l-120 -12l-12 4l-12 -4l-16 4h-4l-4 -4l-28 4l-48 -8l-64 8l-60 -16l-124 20q-22 0 -44 -12q-25 0 -48 12l-64 -12l-92 8v-4h-8l-12 8h-1v116h1l72 -4l64 8l56 -12h84q7 7 48 12l24 -4l24 8
l12 -4l24 8q0 -20 56 -24l68 16h32l36 -4h4l4 4l44 -4h20l12 -8h12l24 8l12 -8q0 8 84 12q8 -8 48 -12q0 8 36 12q0 -10 44 -16h44l28 12l84 -16l28 8h4l4 -4l28 8l68 -12l32 12h4l4 -4l16 2v-111z" />
    <glyph glyph-name="one" unicode="1" horiz-adv-x="711" 
d="M140 1434l55 -55l28 9l64 -9q130 21 130 46q21 -19 111 -19l9 -9v-37l-9 -120l9 -65q-28 0 -37 -111l46 -138l-18 -120l37 -65l-28 -111h9l-9 -9v-28l9 -55q-28 -75 -28 -139v-101q23 -28 37 -120q60 -25 65 -47q-16 -83 -37 -83l-28 28q-83 -46 -184 -46l-102 37
q-171 -28 -240 -65l-10 9v93q26 61 130 83l9 64v10q-46 43 -46 138l18 37l-9 65v83q28 35 28 83v65l-37 37l18 203l-9 55q28 6 28 74v65q-37 0 -37 56h9q-15 46 -65 46l-37 -10l-18 28q0 136 139 148zM729 1586l-90 -17h-28l-28 4q0 -6 -16 -12l-4 4h-4l-24 -4
q-92 12 -92 20h-16l-4 -4h-4q-4 12 -24 12h-16q-15 -11 -100 -24l-44 12h-12l-68 -12h-20q-14 16 -60 16q-34 -12 -80 -12l-16 28v16q12 0 12 8v4l-8 28l12 12v4q0 6 -16 12l-4 4v4l28 16q71 -4 96 -12h12l4 4l24 -8l16 12h8q13 -16 64 -16l88 8l4 -4h4q11 8 64 16l28 -8
l24 4q56 -4 56 -20q27 24 64 24q76 -12 156 -12l14 5v-112zM729 -260q-33 -4 -45 -14l-60 8l-36 -8l-12 12h-12l-12 -12l-16 4l-24 -4l-52 12v-4l-64 20l-84 -24l-112 12q-4 -12 -24 -12h-16q-21 0 -36 12l-84 -12q-56 0 -56 28l4 16q0 34 -20 64q12 32 56 32l60 -16h16
l72 -8l44 8l24 -4l120 20h20q11 -16 116 -16h48l36 4q56 -6 56 -12l80 8l13 -4v-110z" />
    <glyph glyph-name="two" unicode="2" horiz-adv-x="1119" 
d="M388 1434l18 -18v-55q0 -38 -64 -92l82 -100l19 -101v-45q-55 -53 -55 -83l-55 -54l-37 -10q-35 28 -164 37q-29 24 -91 137v64l9 9l-9 9v10q0 81 64 109q0 65 219 137q18 46 64 46zM488 1434h10q275 -33 283 -91q155 0 192 -320v-28q0 -34 -37 -91v-9l9 -9v-10
q-20 0 -36 -109q-119 -35 -119 -119h-110q-15 0 -27 -46q-26 0 -46 -27l-9 9h-18q-31 0 -183 -73l-55 -9l-27 9l-119 -55q0 28 128 110q40 52 183 146q64 184 64 228l-19 55v28l10 146q-74 89 -74 119v9l10 82zM982 474l27 -109q0 -148 -118 -229q-10 -26 -183 -137h-9
l-110 27h-9l-28 -18q-88 0 -155 55h-18l-28 -18h-9q-18 0 -18 27h-82l-73 18q-45 -27 -119 -27h-28l-18 18q0 83 37 83q35 0 64 146q119 36 137 91h27q64 -3 64 -18l73 18h37q57 0 173 -73l74 -9l54 18l73 -9l119 137zM1138 1589l-11 -3l-44 4h-20l-24 -12q-19 12 -36 12
q-34 0 -56 -8l-88 12q-6 -16 -12 -16h-36l-4 -4l-52 24h-4l-112 -28l-20 20q-24 0 -32 8h-12l-20 -12l-4 4h-8q-20 0 -20 -12h-12v8h-12l-12 -12q-44 4 -92 20h-20q-28 0 -108 -28q-40 16 -116 16l-40 -8q-34 12 -72 12v-4l-40 16l-14 -3v112l18 7h12q21 0 36 -12l24 8
l24 -12l20 12l4 -4h4l32 4q13 0 36 -16h32l16 -4l16 4l48 -8q24 24 48 24h12q13 0 28 -12h4q41 12 72 12l60 -8l24 4l20 -4l4 4l112 -16l56 16l28 -4l44 8l24 -12l4 4h4l16 -4l36 12l12 -12l20 4h40l48 4l8 -8l8 8l40 -4h36l23 12v-125zM1138 -253h-42l-48 -4l-8 8l-8 -8
l-40 4h-36l-40 -20l-64 16l-4 -4h-4l-32 12h-44l-16 -8l-16 8l-36 -4l-4 4l-32 -8h-12l-48 12l-40 -8l-16 4l-56 -12l-4 4h-4l-28 -8l-12 4l-28 -8l-36 12h-64l-24 4l-56 -8l-68 16l-64 -8l-28 4l-16 -4l-20 4l-20 -12l-20 12q-8 -1 -15 -2v110l15 -4q19 12 72 12h4l40 -12
h32l52 16h48l16 -4l4 4l60 -4l100 12l120 -24l44 4l24 -8h4l4 4l32 -8q0 9 68 24q15 16 32 20q29 -28 60 -28l20 12q9 -13 60 -24l48 12l44 -4h20l24 12q19 -12 36 -12q34 0 56 8l14 -2v-118z" />
    <glyph glyph-name="three" unicode="3" horiz-adv-x="1162" 
d="M526 1431l64 -9l37 9q268 -92 268 -120q23 -53 74 -83v-19h9l-9 -9v-9l46 -185q-83 -94 -83 -139q-31 0 -175 -166v-9l46 -9h18l9 9q148 -77 148 -176q83 -32 83 -64q0 -92 -64 -185q0 -44 -46 -74q-42 -108 -167 -148l-258 -37l-19 83q56 0 74 84q28 0 28 27l-9 130v55
l-10 9l28 111v93q-85 101 -185 101l-18 28v18q13 31 175 83v74l28 47l-9 27l18 93l-37 37l10 46l-10 28l10 101q0 19 -74 65v83zM415 1422l37 -65v-18q-83 -10 -120 -37q0 -63 110 -176l10 -37v-9q-82 -166 -176 -166q-203 55 -203 194l18 37l-9 74q0 67 93 73q0 56 83 84
q0 34 157 46zM276 526q0 -37 74 -37q65 -25 65 -157h9l-37 -84l9 -46l-92 -46q0 -42 92 -55l10 9l18 -46l-18 -56l-10 9h-9l-46 -18l-222 102q-67 96 -111 129v18h-9l37 158q74 4 74 73q65 42 166 47zM1174 1586h-59l-36 -4q-56 6 -56 12l-80 -8l-28 8q-19 -12 -72 -12h-4
l-40 12h-32l-52 -16h-48l-16 4l-4 -4l-60 4l-100 -12l-120 24l-44 -4l-24 8h-4l-4 -4l-32 8q0 -9 -68 -24q-15 -16 -32 -20q-29 28 -60 28l-20 -12q-9 13 -60 24l-37 -9v125l17 8l64 -16l4 4h4l32 -12h44l16 8l16 -8l36 4l4 -4l32 8h12l48 -12l40 8l16 -4l56 12l4 -4h4l28 8
l12 -4l28 8l36 -12h64l24 -4l56 8l68 -16l64 8l28 -4l16 4l20 -4l20 12l20 -12q46 4 60 16l60 -8l36 8l12 -12h12l12 12l16 -4l24 4l27 -6v-122zM1174 -252q-10 4 -10 11q-27 -24 -64 -24q-76 12 -156 12l-32 -12h-12q-21 0 -36 12l-24 -8l-24 12l-20 -12l-4 4h-4l-32 -4
q-13 0 -36 16h-32l-16 4l-16 -4l-48 8q-24 -24 -48 -24h-12q-13 0 -28 12h-4q-41 -12 -72 -12l-60 8l-24 -4l-20 4l-4 -4l-112 16l-56 -16l-28 4l-44 -8l-24 12l-4 -4h-4l-16 4l-36 -12l-12 12l-18 -4v118l74 -10q6 16 12 16h36l4 4l52 -24h4l112 28l20 -20q24 0 32 -8h12
l20 12l4 -4h8q20 0 20 12h12v-8h12l12 12q44 -4 92 -20h20q28 0 108 28q40 -16 116 -16l40 8q34 -12 72 -12v4l40 -16l104 20h28l28 -4q0 6 16 12l4 -4h4l24 4q30 -4 50 -7v-124z" />
    <glyph glyph-name="four" unicode="4" horiz-adv-x="1204" 
d="M791 1433l28 -10l47 10q74 -10 74 -28q-28 -40 -28 -75q22 0 47 -158l-28 -158h9q-19 -36 -19 -102v-46l38 -47v-121l-10 -130l10 -28l-19 -56v-55q158 -12 158 -65l-19 -28l-83 18h-28l-28 -28q6 -195 19 -195q83 -32 83 -46v-10q0 -25 -232 -55l-9 9h-75
q-35 -28 -84 -28h-18q-214 0 -214 65q0 44 121 65l28 186l-19 177l28 102q0 66 -18 102l18 363l-9 46q0 39 130 251q0 31 102 75zM447 1005q22 0 28 -65q-6 -45 -93 -167q0 -50 -84 -93q0 -69 -139 -223v-28h47l102 -19h74l75 19l37 -103v-9h-10l-65 19l-158 -10l-121 10
l-27 -28q-112 15 -112 65q32 130 112 130q0 72 120 167l10 10v9l-10 37q50 50 103 205q62 15 111 74zM1222 1576l-21 7q-24 -16 -72 -16l-36 8q-28 0 -44 -8l-44 4h-36l-4 -4l-32 8l-16 -4l-12 4l-24 -12l-64 12l-80 -4q-52 0 -84 12q-41 -28 -56 -28h-12l-76 16h-56l-28 -8
l-68 8q-19 0 -60 -20q-19 0 -56 28h-8l-12 -12h-4v8h-4q-15 -16 -28 -16l-32 4l-4 -4q-4 12 -24 12q-60 -1 -60 -8l-44 12l-24 -4h-4q-12 0 -16 52h-4q4 68 44 68l36 8q0 -8 12 -8l32 4v-4q37 5 52 16q39 -8 56 -24l16 4l12 -4l32 4l4 -4l20 4h12l56 -4l4 4h4l24 -8l72 12
h12l32 -8h20q29 0 72 12l12 -4l56 4h16l64 -16q71 20 96 20q0 -12 16 -12l24 4l32 -4l4 4l4 -4h4q73 0 156 16l44 -16l52 8l32 -4l13 4v-119zM1222 -274l-4 -1q0 20 -56 24l-68 -16h-32l-36 4h-4l-4 -4l-44 4h-20l-12 8h-12l-24 -8l-12 8q0 -8 -84 -12q-8 8 -48 12
q0 -8 -36 -12q0 10 -44 16h-44l-28 -12l-84 16l-28 -8h-4l-4 4l-28 -8l-68 12l-32 -12h-4l-4 4l-60 -8l-56 16l-80 -16l-76 4l-32 -4q0 7 -40 8h-28l-8 8v8l8 32v12l-8 12v16q0 28 32 32q77 -4 84 -12h4l4 4l16 -8q0 15 120 20l68 -16h16l4 4l4 -4h8l20 4l24 -4h16l52 8
l44 -8h40l36 -12l56 12h4l36 -4l56 16l48 -12h40l4 4l4 -4h16l36 -4l120 12l12 -4l12 4l16 -4h4l4 4l28 -4l48 8l64 -8l48 13v-144z" />
    <glyph glyph-name="five" unicode="5" horiz-adv-x="1108" 
d="M131 1434q87 0 147 -28l46 10l165 -19l147 19q9 -28 55 -28h64l37 9l37 -9l46 28h18q21 0 28 -46q-22 -105 -157 -175q-15 0 -36 -55q-60 0 -129 -83h-92q-38 28 -92 28l-18 -18h-18l-10 9l-64 -19q-239 25 -239 65l28 220l18 19v18l-9 46l9 9h19zM121 1030
q83 -21 83 -55l-9 -138h9l147 73h28l9 -9l9 -27h9q-43 -92 -73 -120l-9 9h-10q-43 0 -183 -119l-65 28l19 73l-10 46q0 98 46 156v28l-9 46zM470 901h19l37 -27l73 18l18 -18l56 18q0 -46 110 -55q101 -43 101 -110q103 -166 110 -248l-9 -55l9 -83l-73 -120
q0 -48 -129 -128l-55 -64l-120 18q-62 -46 -91 -46h-19q-47 0 -55 28v45l110 102l-18 55v27l28 138l-10 230v64q0 92 -92 92l10 46zM131 506q238 0 238 -101l10 -64q-19 0 -28 -92l9 -37l-92 -82q117 -33 120 -56v-64h-19l-137 37l-74 -9l-138 138l-18 91h9l-9 10v18
q62 174 119 174zM1099 1549l-24 8l-12 -4l-24 8l-24 -4q-41 5 -48 12h-84l-56 -12l-64 8l-72 -4l-84 12q0 -11 -60 -16l-16 4h-32l-32 12l-52 -12l-12 4q-52 -4 -52 -12l-20 4l-16 -4q-22 20 -76 20l-8 -8h-4l-16 4l-16 -8l-32 8l-64 -12l-28 16l-24 -8l-4 4h-4l-40 -4
l-15 5v119l11 4h16q20 0 40 -12l36 4q0 -5 40 -16q21 5 32 20l16 4l28 -4l4 4l144 -12l16 4l48 -12l44 4l32 -4l56 12l68 -8l24 8h20l32 -8l12 8h8v-4l92 8l64 -12q23 12 48 12q22 -12 44 -12l124 20l46 -12l-1 -115q-29 -6 -29 -21zM1116 -253l-36 -12l-40 4h-4l-4 -4
l-24 8l-28 -16l-64 12l-32 -8l-16 8l-16 -4h-4l-8 8q-54 0 -76 -20l-16 4l-20 -4q0 8 -52 12l-12 -4l-52 12l-32 -12h-32l-16 -4q-60 5 -60 16l-84 -12l-72 4l-64 -8l-56 12h-84q-7 -7 -48 -12l-24 4l-24 -8l-12 4l-20 -7v144l12 3l124 -20q22 0 44 12q25 0 48 -12l64 12
l92 -8v4h8l12 -8l32 8h20l24 -8l68 8l56 -12l32 4l44 -4l48 12l16 -4l144 12l4 -4l28 4l16 -4q11 -15 32 -20q40 11 40 16l36 -4q21 12 40 12h16l24 -8l15 2l-1 -114z" />
    <glyph glyph-name="six" unicode="6" horiz-adv-x="1228" 
d="M487 1434h28l18 -83v-9q-48 0 -101 -73l-37 -9q28 -88 46 -248l-46 -128l19 -65l-19 -165q46 -146 46 -202l-36 -110q17 -201 101 -201q18 0 18 -46h9l-9 -9v-10l9 -64h-64l-37 -9q-134 101 -174 101q0 26 -55 55q-53 62 -129 229q-39 0 -64 220l-9 28v37q9 62 28 64
l-10 64v55l-9 9l55 175l-9 27l28 18l-10 83q0 22 92 83q1 19 83 82q0 83 165 83l36 -10zM588 1434l110 -18l110 9l110 -92q47 -165 92 -165v-46l9 -9q0 -104 -202 -174l-174 46l-37 165q15 57 83 110v46q0 16 -83 36zM680 856h37q52 0 100 -46q134 0 184 -128q2 -35 73 -129
l37 -101q-30 -97 -83 -174l10 -9v-9q-1 -19 -83 -92q0 -110 -248 -165q-101 0 -101 28l19 64l-19 18v9q0 18 55 37v9l-18 174q9 84 37 120q-19 214 -83 220l-46 -9l-27 36v28q82 110 101 110zM4 1687l66 8l50 -8l30 4l4 -4h4l17 4l12 -4l13 4l125 -12l37 4h17l4 4l4 -4h42
l50 12l58 -16l38 4h4l58 -12l38 12h42l46 8l54 -8h16l25 4l21 -4h9l4 4l4 -4h17l71 16q125 -5 125 -20l16 8l5 -4h4q7 8 87 12q34 -4 34 -32v-16l-9 -12v-12l9 -32v-8l-9 -8h-29q-42 -1 -42 -8l-33 4l-79 -4l-84 16l-58 -16l-63 8l-4 -4h-4l-33 12l-71 -12l-29 8l-4 -4h-5
l-29 8l-87 -16l-30 12h-45q-46 -6 -46 -16q-38 4 -38 12q-42 -4 -50 -12q-87 4 -87 12l-13 -8l-25 8h-13l-12 -8h-21l-46 -4l-4 4h-4l-38 -4h-33l-71 16q-16 -1 -28 -3l1 115zM0 -135l55 -8l46 16q87 -16 162 -16h4l5 4l4 -4l33 4l25 -4q17 0 17 12q26 0 100 -20l67 16h16
l59 -4l12 4q45 -12 75 -12h21l33 8h13l75 -12l25 8h4l4 -4l59 4h12l21 -4l4 4l34 -4l12 4l17 -4q18 16 58 24q16 -11 54 -16v4l34 -4q12 0 12 8l38 -8q42 0 46 -68h-4q-5 -52 -17 -52h-4l-25 4l-46 -12q0 7 -63 8q-21 0 -25 -12l-4 4l-33 -4q-13 0 -30 16h-4v-8h-4l-12 12
h-9q-37 -28 -58 -28q-43 20 -63 20l-71 -8l-29 8h-58l-79 -16h-13q-15 0 -58 28q-34 -12 -88 -12l-83 4l-67 -12l-25 12l-12 -4l-17 4l-34 -8l-4 4h-37l-46 -4q-17 8 -46 8l-37 -8q-44 0 -69 12v114z" />
    <glyph glyph-name="seven" unicode="7" horiz-adv-x="1108" 
d="M491 1434l9 -9v-10l57 19l37 -28l38 9q99 0 159 -47h75q0 32 47 66q46 -16 46 -47q-75 -116 -75 -178q0 -102 -234 -140h-9q-26 18 -253 47l-28 -10l-9 10h-10l-28 -10l-122 47l-103 -112l28 -38v-19h-84q-21 0 -28 47q37 87 47 216l37 56l-9 37q0 70 47 75q37 -9 37 -56
v-28h38q37 19 37 47q128 56 253 56zM744 994h9v-10q0 -25 -56 -112q0 -47 -47 -75l10 -9v-85l-38 -140q66 -224 66 -290q0 -89 -47 -178q-9 -75 -38 -75l-9 9h-9q-54 -5 -85 -28l-28 19h-93q-83 0 -122 103q-35 0 -47 103l9 56l-9 9v10l38 56l-10 84q0 23 66 56
q0 134 121 169q0 27 94 122l9 84h-9q0 29 75 56l9 38l66 -10q30 0 75 38zM1119 1563l-26 -6h-32l-36 4h-4l-4 -4l-44 4h-20l-12 8h-12l-24 -8l-12 8q0 -8 -84 -12q-8 8 -48 12q0 -8 -36 -12q0 10 -44 16h-44l-28 -12l-84 16l-28 -8h-4l-4 4l-28 -8l-68 12l-32 -12h-4l-4 4
l-60 -8l-56 16l-80 -16l-76 4l-32 -4q0 7 -40 8h-28l-8 8v8l8 32v12l-8 12v16q0 28 32 32q77 -4 84 -12h4l4 4l16 -8q0 15 120 20l68 -16h16l4 4l4 -4h8l20 4l24 -4h16l52 8l44 -8h40l36 -12l56 12h4l36 -4l56 16l48 -12h40l4 4l4 -4h16l36 -4l120 12l12 -4l12 4l16 -4h4
l4 4l28 -4l48 8l10 -1v-125zM1119 -261l-14 3q-28 0 -44 -8l-44 4h-36l-4 -4l-32 8l-16 -4l-12 4l-24 -12l-64 12l-80 -4q-52 0 -84 12q-41 -28 -56 -28h-12l-76 16h-56l-28 -8l-68 8q-19 0 -60 -20q-19 0 -56 28h-8l-12 -12h-4v8h-4q-15 -16 -28 -16l-32 4l-4 -4
q-4 12 -24 12q-60 -1 -60 -8l-44 12l-24 -4h-4q-12 0 -16 52h-4q4 68 44 68l36 8q0 -8 12 -8l32 4v-4q37 5 52 16q39 -8 56 -24l16 4l12 -4l32 4l4 -4l20 4h12l56 -4l4 4h4l24 -8l72 12h12l32 -8h20q29 0 72 12l12 -4l56 4h16l64 -16q71 20 96 20q0 -12 16 -12l24 4l32 -4
l4 4l4 -4h4q73 0 156 16l26 -9v-122z" />
    <glyph glyph-name="eight" unicode="8" horiz-adv-x="1162" 
d="M623 1434q73 0 334 -153l72 -181q-47 -207 -108 -207q0 -63 -108 -99q-13 -36 -72 -36v-27h63q234 -84 234 -325l9 -9l-36 -135l9 -28l-54 -63q0 -18 -54 -63q0 -63 -171 -63l-127 -18q-41 0 -54 90q-27 0 -27 18q45 51 108 72l27 127v36l-36 99l27 171q-35 33 -108 54v9
q14 82 54 82l45 144v27q0 63 -36 153l27 127q0 75 -63 126l-27 -9l-18 72l9 9h81zM317 1407l63 -18l54 18h36l-45 -198v-37l9 -81l-9 -9v-9l9 -36l-27 -135q0 -41 81 -126v-54q-27 -32 -81 -217l27 -135v-9l-9 -9l9 -9v-109q0 -55 45 -99v-36q0 -99 -81 -99h-9q0 56 -199 72
q-63 44 -63 90q-108 0 -108 253l-18 36q45 121 90 153q0 37 45 54h9l9 -9h9l9 9q0 18 63 18q0 18 55 64v18q-40 0 -82 63q-189 108 -189 207q63 209 135 298l54 9q25 45 109 72zM1177 1569l-28 3h-4l-4 -4l-24 8l-28 -16l-64 12l-32 -8l-16 8l-16 -4h-4l-8 8q-54 0 -76 -20
l-16 4l-20 -4q0 8 -52 12l-12 -4l-52 12l-32 -12h-32l-16 -4q-60 5 -60 16l-84 -12l-72 4l-64 -8l-56 12h-84q-7 -7 -48 -12l-24 4l-24 -8l-12 4l-24 -8q0 20 -56 24l-42 -10v125l54 -7l60 16l124 -20q22 0 44 12q25 0 48 -12l64 12l92 -8v4h8l12 -8l32 8h20l24 -8l68 8
l56 -12l32 4l44 -4l48 12l16 -4l144 12l4 -4l28 4l16 -4q11 -15 32 -20q40 11 40 16l36 -4q21 12 40 12v-127zM1177 -268l-16 5l-24 -4q-41 5 -48 12h-84l-56 -12l-64 8l-72 -4l-84 12q0 -11 -60 -16l-16 4h-32l-32 12l-52 -12l-12 4q-52 -4 -52 -12l-20 4l-16 -4
q-22 20 -76 20l-8 -8h-4l-16 4l-16 -8l-32 8l-64 -12l-28 16l-24 -8l-4 4h-4l-40 -4l-36 12q-24 -16 -72 -16l-22 5v122l18 -7l52 8l32 -4l24 8h16q20 0 40 -12l36 4q0 -5 40 -16q21 5 32 20l16 4l28 -4l4 4l144 -12l16 4l48 -12l44 4l32 -4l56 12l68 -8l24 8h20l32 -8l12 8
h8v-4l92 8l64 -12q23 12 48 12q22 -12 44 -12l96 15v-136z" />
    <glyph glyph-name="nine" unicode="9" horiz-adv-x="1222" 
d="M472 1434l36 -9l-9 -54l9 -9l-9 -28l-45 9l-9 -9v-54q2 -45 18 -45l-9 -9v-9l9 -136l-27 -27l9 -154l-18 -18v-10q30 -126 99 -126l27 9l19 -55v-9q-91 -72 -263 -72q0 16 -63 54h-19l-45 -9q0 24 -45 45v19l9 9v9q-145 96 -145 235v73q63 127 82 208q41 0 135 90
q55 0 55 37q33 27 199 45zM599 1425h36q55 0 272 -145q23 0 36 -81q90 -74 90 -272q28 0 28 -18l-18 -27v-19l45 -144v-73q-27 -27 -82 -163v-145q-70 -59 -81 -118q-18 0 -18 -27l-18 -36q-74 0 -109 -45q-20 0 -172 -109h-18l-27 27q0 79 108 172l18 55l-36 117v46l27 90
v36l-18 136l27 136l-27 27l9 46v108l-18 136l9 118q-15 54 -72 54l-18 100zM273 546h27q53 0 109 -63q45 0 72 -100l-72 -190v-27q0 -20 99 -72l9 -9l-9 -10v-54q-31 0 -99 45l-100 -9q0 46 -73 46q0 18 -27 18q0 17 -81 90l-18 55v18q0 178 136 235zM-37 1696h16l24 -8
l32 4l52 -8l44 16q84 -16 156 -16h4l4 4l4 -4l32 4l24 -4q16 0 16 12q25 0 96 -20l64 16h16l56 -4l12 4q43 -12 72 -12h20l32 8h12l72 -12l24 8h4l4 -4l56 4h12l20 -4l4 4l32 -4l12 4l16 -4q17 16 56 24q15 -11 52 -16v4l32 -4q12 0 12 8l36 -8q40 0 44 -68h-4
q-4 -52 -16 -52h-4l-24 4l-44 -12q0 7 -60 8q-20 0 -24 -12l-4 4l-32 -4q-12 0 -28 16h-4v-8h-4l-12 12h-8q-36 -28 -56 -28q-41 20 -60 20l-68 -8l-28 8h-56l-76 -16h-12q-15 0 -56 28q-32 -12 -84 -12l-80 4l-64 -12l-24 12l-12 -4l-16 4l-32 -8l-4 4h-36l-44 -4
q-16 8 -44 8l-36 -8q-48 0 -72 16l-36 -12l-12 1v127zM-37 -132l28 5l60 -16l64 8l48 -8l28 4l4 -4h4l16 4l12 -4l12 4l120 -12l36 4h16l4 4l4 -4h40l48 12l56 -16l36 4h4l56 -12l36 12h40l44 8l52 -8h16l24 4l20 -4h8l4 4l4 -4h16l68 16q120 -5 120 -20l16 8l4 -4h4
q7 8 84 12q32 -4 32 -32v-16l-8 -12v-12l8 -32v-8l-8 -8h-28q-40 -1 -40 -8l-32 4l-76 -4l-80 16l-56 -16l-60 8l-4 -4h-4l-32 12l-68 -12l-28 8l-4 -4h-4l-28 8l-84 -16l-28 12h-44q-44 -6 -44 -16q-36 4 -36 12q-40 -4 -48 -12q-84 4 -84 12l-12 -8l-24 8h-12l-12 -8h-20
l-44 -4l-4 4h-4l-36 -4h-32l-68 16q-56 -4 -56 -24l-24 8l-12 -4l-8 3v136z" />
    <glyph glyph-name="colon" unicode=":" horiz-adv-x="445" 
d="M167 961l45 -22l8 7q9 -22 82 -75l-7 -68l7 -120q0 -15 -180 -46q0 23 -98 53v8l7 30l-22 75q11 68 45 68q0 75 98 75zM144 442q104 -33 113 -61q68 -58 68 -120q-68 -174 -136 -174l-52 -7q-128 92 -128 166v75l-8 7q0 48 143 114zM-24 1708l25 -6v4l64 -20l84 24
l112 -12q4 12 24 12h16q21 0 36 -12l84 12q56 0 56 -28l-4 -16q0 -34 20 -64q-12 -32 -56 -32l-60 16h-16l-72 8l-44 -8l-24 4l-120 -20h-20q-10 15 -105 16v122zM-24 -128q42 -8 42 -13h16l4 4h4q4 -12 24 -12h16q15 11 100 24l44 -12h12l68 12h20q15 -16 60 -16
q34 12 80 12l16 -28v-16q-12 0 -12 -8v-4l8 -28l-12 -12v-4q0 -6 16 -12l4 -4v-4l-28 -16q-71 4 -96 12h-12l-4 -4l-24 8l-16 -12h-8q-13 16 -64 16l-88 -8l-4 4h-4q-11 -8 -64 -16l-28 8l-24 -4q-32 2 -46 9v124z" />
    <glyph glyph-name="semicolon" unicode=";" horiz-adv-x="472" 
d="M149 971h37q74 0 159 -151v-8q-30 -45 -30 -128l7 -7q-90 -49 -188 -76q-113 47 -113 211v8q73 151 128 151zM171 428q151 -30 151 -90q60 -59 60 -106h8q-51 -88 -98 -120q-8 -121 -60 -121q-91 -58 -91 -83h-15l-113 -15l-15 23q0 58 143 98q44 52 45 98h-15l-67 -16
q0 23 -68 76l-38 151q36 5 90 60v7l-7 8v7zM502 1575l-8 6q0 -16 -56 -20l-24 4l-28 -8q-53 8 -64 16h-4l-4 -4l-88 8q-51 0 -64 -16h-8l-16 12l-24 -8l-4 4h-12q-25 -8 -96 -12l-28 16v4l4 4q16 6 16 12v4l-12 12l8 28v4q0 8 -12 8v16l16 28q46 0 80 -12q46 0 60 16h20
l68 -12h12l44 12q85 -13 100 -24h16q20 0 24 12h4l4 -4h16q0 6 60 16v-122zM502 -251h-6q-105 0 -116 -16h-20l-120 20l-24 -4l-44 8l-72 -8h-16l-60 -16q-44 0 -56 32q20 30 20 64l-4 16q0 28 56 28l84 -12q15 12 36 12h16q20 0 24 -12l112 12l84 -24l64 20v-4l42 10v-126z
" />
    <glyph glyph-name="semicolon" unicode="&#x37e;" horiz-adv-x="472" 
d="M149 971h37q74 0 159 -151v-8q-30 -45 -30 -128l7 -7q-90 -49 -188 -76q-113 47 -113 211v8q73 151 128 151zM171 428q151 -30 151 -90q60 -59 60 -106h8q-51 -88 -98 -120q-8 -121 -60 -121q-91 -58 -91 -83h-15l-113 -15l-15 23q0 58 143 98q44 52 45 98h-15l-67 -16
q0 23 -68 76l-38 151q36 5 90 60v7l-7 8v7zM502 1575l-8 6q0 -16 -56 -20l-24 4l-28 -8q-53 8 -64 16h-4l-4 -4l-88 8q-51 0 -64 -16h-8l-16 12l-24 -8l-4 4h-12q-25 -8 -96 -12l-28 16v4l4 4q16 6 16 12v4l-12 12l8 28v4q0 8 -12 8v16l16 28q46 0 80 -12q46 0 60 16h20
l68 -12h12l44 12q85 -13 100 -24h16q20 0 24 12h4l4 -4h16q0 6 60 16v-122zM502 -251h-6q-105 0 -116 -16h-20l-120 20l-24 -4l-44 8l-72 -8h-16l-60 -16q-44 0 -56 32q20 30 20 64l-4 16q0 28 56 28l84 -12q15 12 36 12h16q20 0 24 -12l112 12l84 -24l64 20v-4l42 10v-126z
" />
    <glyph glyph-name="less" unicode="&#x3c;" horiz-adv-x="883" 
d="M767 999l8 -22q-8 -68 -30 -68l7 -60q0 -31 -68 -31l-22 -15q0 -30 -46 -30l-113 -75l-22 -23l-8 8h-7l-143 -61q-49 0 -129 -60v-7q21 0 38 -23l60 23h8q0 -31 53 -31q203 -135 346 -211l8 8h45q30 -11 30 -53q-36 -75 -45 -143h-7q0 15 -136 45q-36 46 -196 106
q0 41 -30 53h-45q-40 0 -181 98q-64 0 -83 37q-40 0 -60 30l7 38l-7 68l7 38l-7 22q60 0 90 45l38 -7q18 0 67 45q42 0 121 60l45 30q47 0 121 68q24 0 158 83q87 0 128 15zM902 1578l-92 -13l-4 4l-20 -4l-24 4l-60 -8q-31 0 -72 12h-4q-15 -12 -28 -12h-12q-24 0 -48 24
l-48 -8l-16 4l-16 -4h-32q-23 -16 -36 -16l-32 4h-4l-4 -4l-20 12l-24 -12l-24 8q-15 -12 -36 -12h-12l-32 12q-80 0 -156 -12q-32 0 -56 18v122q14 2 32 4l24 -4h4l4 4q16 -6 16 -12l28 4h28l104 -20l40 16v-4q38 0 72 12l40 -8q76 0 116 16q80 -28 108 -28h20q48 16 92 20
l12 -12h12v8h12q0 -12 20 -12h8l4 4l20 -12h12q8 8 32 8l20 20l32 -8v-115zM902 -244q-14 5 -14 9l-32 -8l-4 4h-4l-24 -8l-44 4l-120 -24l-100 12l-60 -4l-4 4l-16 -4h-48l-52 16h-32l-40 -12h-4q-53 0 -72 12l-28 -8l-80 8q0 -6 -56 -12l-36 4h-42v126l10 2l24 -4l16 4
l12 -12h12l12 12l36 -8l60 8q14 -12 60 -16l20 12l20 -12l20 4l16 -4l28 4l64 -8l68 16l56 -8l24 4h64l36 12l28 -8l12 4l28 -8h4l4 4l56 -12l16 4l40 -8l48 12h12l6 -1v-112z" />
    <glyph glyph-name="equal" unicode="=" horiz-adv-x="889" 
d="M644 871q85 0 143 -121l-37 -83h-8q-37 0 -37 15l-219 -22l-45 15l-23 -15q-15 0 -15 22h-15l-30 -15l-53 8l-60 -23h-30q-174 25 -174 38l-30 128l8 30h7l98 8l30 -8l53 8l53 -16h8l7 8l8 -8h7l8 8h7l30 -8l38 8l45 -15l38 7l30 -7l45 15h61q28 23 52 23zM162 516
q0 -24 113 -37l173 22q81 -37 128 -37h136l8 7q37 0 37 -75h-7l15 -45v-31l-30 -7l-91 7q0 -16 -52 -22q-195 13 -234 30l-23 -15h-60l-121 -30l-150 53v7l15 60v68q0 25 143 45zM908 1557l-7 2h-4l-4 -4l-56 12l-16 -4l-40 8l-48 -12h-12l-32 8l-4 -4l-36 4l-16 -8l-16 8
h-44l-32 -12h-4l-4 4l-64 -16l-40 20h-36l-40 -4l-8 8l-8 -8l-48 4h-40l-20 4l-12 -12l-36 12l-16 -4h-4l-4 4l-24 -12l-44 8l-28 -4l-56 16l-20 -3v115l80 -20h4l52 24l4 -4h36q6 0 12 -16l88 12q22 -8 56 -8q17 0 36 12l24 -12h20l44 4l48 -12q51 11 60 24l20 -12
q31 0 60 28q17 -4 32 -20q68 -15 68 -24l32 8l4 -4h4l24 8l44 -4l71 14v-128zM908 -268q-5 -1 -9 -1l-12 12h-12v-8h-12q0 12 -20 12h-8l-4 -4l-20 12h-12q-8 -8 -32 -8l-20 -20l-112 28h-4l-52 -24l-4 4h-36q-6 0 -12 16l-88 -12q-22 8 -56 8q-17 0 -36 -12l-24 12h-20
l-44 -4l-48 12q-51 -11 -60 -24l-20 12q-31 0 -60 -28q-17 4 -32 20q-37 8 -54 15v112l26 -7l4 4l36 -4l16 8l16 -8h44l32 12h4l4 -4l64 16l40 -20h36l40 4l8 -8l8 8l48 -4h40l20 -4l12 12l36 -12l16 4h4l4 -4l24 12l44 -8l28 4l56 -16l112 16l4 -4l20 4l24 -4l53 7v-134z
" />
    <glyph glyph-name="greater" unicode="&#x3e;" horiz-adv-x="862" 
d="M29 1006q82 0 203 -105l181 -76q23 0 23 -30l180 -53q0 -18 128 -67v-30q0 -29 -30 -68l38 -91v-15q-51 0 -113 -68q-49 0 -181 -75q-70 0 -128 -45q-89 -68 -121 -68l-22 8q0 -16 -23 -16l-7 -7l-106 -60h-22l-15 30l7 22l-15 46v22l15 15l-7 38q7 19 203 83
q0 38 143 75q23 0 60 38q49 34 136 53v7q-49 15 -68 68q-158 47 -181 75q-209 46 -286 121h-7v90l-8 30l8 23l-8 23l8 7h15zM886 1558l-75 21l-64 -20v4l-52 -12l-24 4l-16 -4l-12 12h-12l-12 -12l-36 8l-60 -8q-14 12 -60 16l-20 -12l-20 12l-20 -4l-16 4l-28 -4l-64 8
l-68 -16l-56 8l-24 -4h-64l-36 -12l-28 8l-12 -4l-21 6v128l49 10l100 -12l60 4l4 -4l16 4h48l52 -16h32l40 12h4q53 0 72 -12l28 8l80 -8q0 6 56 12l36 -4h48q105 0 116 16h20l39 -6v-131zM883 -261q-44 8 -54 16h-16q-20 0 -24 -12h-4l-4 4h-16q0 -8 -92 -20l-24 4h-4
l-4 -4q-16 6 -16 12l-28 -4h-28l-104 20l-40 -16v4q-38 0 -72 -12l-40 8q-76 0 -116 -16q-80 28 -108 28h-20q-43 -14 -83 -19v134l7 1q31 0 72 -12h4q15 12 28 12h12q24 0 48 -24l48 8l16 -4l16 4h32q23 16 36 16l32 -4h4l4 4l20 -12l24 12l24 -8q15 12 36 12h12l32 -12
q80 0 156 12q37 0 64 -24q0 16 56 20l24 -4l28 8q49 -7 62 -15v-117z" />
    <glyph glyph-name="question" unicode="?" horiz-adv-x="955" 
d="M388 1410h18v-62q0 -36 -53 -90v-54q27 -33 27 -62v-9q-45 -92 -90 -144l-63 -18h-63l-152 90l-9 72l99 161l-9 27q125 9 125 45l45 -9h45zM514 1401q72 0 161 -134q128 0 180 -296q0 -69 -72 -161q0 -144 -296 -242l-54 9q-53 0 -107 -135l-27 -9q-47 0 -54 135l18 54
l-27 35q36 32 36 54l-45 54v72q47 67 233 98q16 54 72 117l27 81v26q0 59 -90 144v9q11 74 45 89zM353 388h71q61 -20 117 -170v-27q-81 -114 -81 -161q-76 0 -116 -18v9l-54 -18q-117 0 -117 90q-31 0 -44 98v18q0 128 224 179zM977 1575q-31 3 -61 3h-4l-4 -4l-4 4l-32 -4
l-24 4q-16 0 -16 -12q-25 0 -96 20l-64 -16h-16l-56 4l-12 -4q-43 12 -72 12h-20l-32 -8h-12l-72 12l-24 -8h-4l-4 4l-56 -4h-12l-20 4l-4 -4l-32 4l-12 -4l-16 4q-17 -16 -56 -24q-15 11 -52 16v-4l-32 4q-12 0 -12 -8l-36 8q-40 0 -44 68h4q4 52 16 52h4l24 -4l44 12
q0 -7 60 -8q20 0 24 12l4 -4l32 4q13 0 28 -16h4v8h4l12 -12h8q37 28 56 28q41 -20 60 -20l68 8l28 -8h56l76 16h12q15 0 56 -28q32 12 84 12l80 -4l64 12l24 -12l12 4l16 -4l32 8l4 -4h17v-119zM977 -270l-31 3h-20l-12 8h-12l-24 -8l-12 8q0 -8 -84 -12q-8 8 -48 12
q0 -8 -36 -12q0 10 -44 16h-44l-28 -12l-84 16l-28 -8h-4l-4 4l-28 -8l-68 12l-32 -12h-4l-4 4l-60 -8l-56 16l-80 -16l-76 4l-32 -4q0 7 -40 8h-28l-8 8v8l8 32v12l-8 12v16q0 28 32 32q77 -4 84 -12h4l4 4l16 -8q0 15 120 20l68 -16h16l4 4l4 -4h8l20 4l24 -4h16l52 8
l44 -8h40l36 -12l56 12h4l36 -4l56 16l48 -12h40l4 4l4 -4h16l36 -4l120 12l12 -4l7 2v-125z" />
    <glyph glyph-name="at" unicode="@" horiz-adv-x="1564" 
d="M826 1440l34 -9l52 9q264 -56 355 -173q19 0 121 -130q26 0 26 -26l9 -8h8l-8 -44v-26l8 -34l-8 -35l8 -112q-69 -171 -86 -173l8 -87v-26q-255 -207 -328 -207v-26h-9q-60 69 -86 69q-173 13 -173 95l8 43h-17q-20 0 -113 -121q-97 -34 -147 -34l-43 8l-26 -8
q-6 23 -78 86l9 52l-9 9l9 8v9l-9 95v9q31 34 44 112q26 0 26 44h-9q2 43 121 129q132 173 268 173q69 44 104 44q216 -31 216 -104v-18l-8 -51l8 -26q-36 0 -43 -96l-43 -112v-26l8 -69q-8 -89 -34 -121v-9q30 -52 78 -52h8q199 95 199 277q11 0 18 121h-9l17 87
q-24 0 -69 112h-9l18 35h-9l9 8v9l-9 9q0 19 -61 43v8l9 35q-13 0 -43 61l-130 52l-156 51l-259 -51l-9 -9l-8 9h-9q-78 -26 -78 -87q-130 -37 -173 -121q-41 0 -60 -138q-52 0 -52 -148l-18 -17l9 -26q0 -43 -17 -43l8 -9v-86l-8 -9q34 -233 69 -233q0 -70 78 -104
q0 -35 69 -43q52 -122 233 -122q102 9 139 44q28 0 69 -35l26 9l43 -9q119 33 217 156h17v8q65 -23 69 -43v-17q-47 0 -130 -113q-19 -17 -60 -17q0 -37 -95 -52q-72 -69 -96 -69l-8 9h-9l-8 -9h-9l-69 9l-26 -9l-130 26l-43 -26h-18q-108 52 -173 52q-47 28 -129 130
q-44 21 -78 112l-52 35v52q0 106 -69 147l-9 52q37 58 52 216l-9 9l26 69h-8q51 259 129 259q65 87 95 87q59 73 113 78q0 77 78 77l8 -8h9q154 43 329 69zM610 783q13 -234 43 -234h17q130 128 130 251l34 43l-8 43q24 0 34 87l-60 52h-61q-26 0 -26 -52q-17 -61 -103 -190
zM1591 1578l-35 -4l-12 4l-12 -4l-16 4h-4l-4 -4l-28 4l-48 -8l-64 8l-60 -16l-124 20q-22 0 -44 -12q-25 0 -48 12l-64 -12l-92 8v-4h-8l-12 8l-32 -8h-20l-24 8l-68 -8l-56 12l-32 -4l-44 4l-48 -12l-16 4l-144 -12l-4 4l-28 -4l-16 4q-11 15 -32 20q-40 -11 -40 -16
l-36 4q-20 -12 -40 -12h-16l-24 8l-32 -4l-52 8l-44 -16q-49 9 -95 13v119h19l44 4q16 -8 44 -8l36 8q48 0 72 -16l36 12l40 -4h4l4 4l24 -8l28 16l64 -12l32 8l16 -8l16 4h4l8 -8q54 0 76 20l16 -4l20 4q0 -8 52 -12l12 4l52 -12l32 12h32l16 4q60 -5 60 -16l84 12l72 -4
l64 8l56 -12h84q7 7 48 12l24 -4l24 8l12 -4l24 8q0 -20 56 -24l68 16h32l36 -4h4l4 4l44 -4h20l3 -2v-118zM1591 -259h-1l-32 -8l-4 4h-36l-44 -4q-16 8 -44 8l-36 -8q-48 0 -72 16l-36 -12l-40 4h-4l-4 -4l-24 8l-28 -16l-64 12l-32 -8l-16 8l-16 -4h-4l-8 8
q-54 0 -76 -20l-16 4l-20 -4q0 8 -52 12l-12 -4l-52 12l-32 -12h-32l-16 -4q-60 5 -60 16l-84 -12l-72 4l-64 -8l-56 12h-84q-7 -7 -48 -12l-24 4l-24 -8l-12 4l-24 -8q0 20 -56 24l-68 -16h-32l-36 4h-4l-4 -4l-13 1v125l5 2l16 -4h4l4 4l28 -4l48 8l64 -8l60 16l124 -20
q22 0 44 12q25 0 48 -12l64 12l92 -8v4h8l12 -8l32 8h20l24 -8l68 8l56 -12l32 4l44 -4l48 12l16 -4l144 12l4 -4l28 4l16 -4q11 -15 32 -20q40 11 40 16l36 -4q21 12 40 12h16l24 -8l32 4l52 -8l44 16q80 -15 149 -16v-112z" />
    <glyph glyph-name="A" unicode="A" 
d="M887 1431l9 -9l19 -18h9l-18 -74l37 -102l37 -37v-194q27 -25 73 -222l37 -37l-9 -9v-37l9 -37l-9 -37l56 -166h-10l28 -46l-28 -47q32 0 56 -111l-9 -64q0 -28 83 -56l27 -74l-37 -27h-9l-27 18h-19l-120 -37h-9l-37 9l-37 -9h-19l-46 28l-194 -28q-48 0 -74 46v10
q56 34 56 120l-19 64l9 10l-18 83l9 9v37h-83l-74 -18q-24 18 -92 18l-10 9v84q0 18 56 27l37 -37h64l47 10l-28 157l9 55q-28 0 -65 203l10 28l-83 296l9 27l-9 84q7 55 55 55l46 -9zM444 1117h9l9 -28l-9 -27l9 -93q0 -121 -55 -194q0 -116 -74 -259l9 -27l-9 -65l9 -65
l-28 -9l9 -55l-27 -74v-9q0 -81 120 -93h18v-9q0 -111 -64 -111h-111q-31 0 -65 28l-129 -28q-36 0 -65 102v18q111 0 111 102q85 85 157 295l-9 28l101 342l19 19l-9 27q0 113 74 185zM1419 1578q-23 7 -23 12l-32 -8l-4 4h-4l-24 -8l-44 4l-120 -24l-100 12l-60 -4l-4 4
l-16 -4h-48l-52 16h-32l-40 -12h-4q-53 0 -72 12l-28 -8l-80 8q0 -6 -56 -12l-36 4h-48q-105 0 -116 -16h-20l-120 20l-24 -4l-44 8l-72 -8h-16l-60 -16q-44 0 -56 32q20 30 20 64l-4 16q0 28 56 28l84 -12q15 12 36 12h16q20 0 24 -12l112 12l84 -24l64 20v-4l52 12l24 -4
l16 4l12 -12h12l12 12l36 -8l60 8q14 -12 60 -16l20 12l20 -12l20 4l16 -4l28 4l64 -8l68 16l56 -8l24 4h64l36 12l28 -8l12 4l28 -8h4l4 4l56 -12l16 4l40 -8l48 12h12l15 -4v-112zM1419 -260l-14 4l-112 -16l-4 4l-20 -4l-24 4l-60 -8q-31 0 -72 12h-4q-15 -12 -28 -12
h-12q-24 0 -48 24l-48 -8l-16 4l-16 -4h-32q-23 -16 -36 -16l-32 4h-4l-4 -4l-20 12l-24 -12l-24 8q-15 -12 -36 -12h-12l-32 12q-80 0 -156 -12q-37 0 -64 24q0 -16 -56 -20l-24 4l-28 -8q-53 8 -64 16h-4l-4 -4l-88 8q-51 0 -64 -16h-8l-16 12l-24 -8l-4 4h-12
q-25 -8 -96 -12l-28 16v4l4 4q16 6 16 12v4l-12 12l8 28v4q0 8 -12 8v16l16 28q46 0 80 -12q46 0 60 16h20l68 -12h12l44 12q85 -13 100 -24h16q20 0 24 12h4l4 -4h16q0 8 92 20l24 -4h4l4 4q16 -6 16 -12l28 4h28l104 -20l40 16v-4q38 0 72 12l40 -8q76 0 116 16
q80 -28 108 -28h20q48 16 92 20l12 -12h12v8h12q0 -12 20 -12h8l4 4l20 -12h12q8 8 32 8l20 20l66 -17v-107z" />
    <glyph glyph-name="B" unicode="B" 
d="M233 1434l101 -18l55 9q47 -37 166 -37v-9l-28 -129v-9q18 -18 18 -74l19 -18l-19 -340l28 -92v-83l18 -92q-46 -170 -46 -257v-18l37 -46v-28q0 -107 -46 -138l-46 9h-9l-37 -27q-19 18 -101 18l-27 28l-28 -19l-18 19h-46l-101 -55q-10 -28 -56 -28h-9q-18 0 -55 110
v19q0 15 74 46h9l9 -10l28 10v82l-10 56q19 13 28 193l-28 128l10 46v55l-19 74l19 64v9l-10 111l10 92l-10 55l10 27l-10 56l10 46q0 36 -92 36q-28 34 -28 65l55 46h9l28 -19h28q110 23 110 37zM665 1425l147 -9l64 9q231 -55 285 -166q74 -135 74 -211q0 -172 -294 -285
v-9q156 -19 156 -55q35 -84 129 -120l18 -119v-83l9 -64q-22 0 -55 -120h-18v-9l9 -28q-182 -119 -276 -119h-28q-18 0 -18 27h-92l-83 -9q-36 9 -36 55v28q0 18 92 46l46 119h-10l10 10v46l18 156q0 95 -147 193l-37 73l9 28h19q128 0 147 129v64q-28 34 -28 129l9 92
q-42 73 -119 73q-28 0 -28 19l19 36l-10 65l10 9h9zM1425 1569l-57 11l-40 -16v4q-38 0 -72 -12l-40 8q-76 0 -116 -16q-80 28 -108 28h-20q-48 -16 -92 -20l-12 12h-12v-8h-12q0 12 -20 12h-8l-4 -4l-20 12h-12q-8 -8 -32 -8l-20 -20l-112 28h-4l-52 -24l-4 4h-36
q-6 0 -12 16l-88 -12q-22 8 -56 8q-17 0 -36 -12l-24 12h-20l-44 -4l-48 12q-51 -11 -60 -24l-20 12q-31 0 -60 -28q-17 4 -32 20q-28 6 -45 12v112l17 -4l4 4l36 -4l16 8l16 -8h44l32 12h4l4 -4l64 16l40 -20h36l40 4l8 -8l8 8l48 -4h40l20 -4l12 12l36 -12l16 4h4l4 -4
l24 12l44 -8l28 4l56 -16l112 16l4 -4l20 4l24 -4l60 8q31 0 72 -12h4q15 12 28 12h12q24 0 48 -24l48 8l16 -4l16 4h32q23 16 36 16l32 -4h4l4 4l20 -12l24 12l24 -8q15 12 36 12h12l32 -12h29v-115zM1422 -283l-21 -3q-14 12 -60 16l-20 -12l-20 12l-20 -4l-16 4l-28 -4
l-64 8l-68 -16l-56 8l-24 -4h-64l-36 -12l-28 8l-12 -4l-28 8h-4l-4 -4l-56 12l-16 -4l-40 8l-48 -12h-12l-32 8l-4 -4l-36 4l-16 -8l-16 8h-44l-32 -12h-4l-4 4l-64 -16l-40 20h-36l-40 -4l-8 8l-8 -8l-48 4h-40l-20 4l-12 -12l-36 12l-16 -4h-4l-4 4l-24 -12l-44 8l-28 -4
l-42 12v107l46 -11h4l52 24l4 -4h36q6 0 12 -16l88 12q22 -8 56 -8q17 0 36 12l24 -12h20l44 4l48 -12q51 11 60 24l20 -12q31 0 60 28q17 -4 32 -20q68 -15 68 -24l32 8l4 -4h4l24 8l44 -4l120 24l100 -12l60 4l4 -4l16 4h48l52 -16h32l40 12h4q53 0 72 -12l28 8l53 -5
v-120z" />
    <glyph glyph-name="C" unicode="C" horiz-adv-x="1253" 
d="M569 1434l27 -9v-81q0 -62 -91 -72l9 -9l-27 -46l9 -63l-18 -18v-63l9 -9l-9 -9v-9l18 -72v-27q-54 -129 -54 -181l54 -162l-18 -54v-64l27 -126l-27 -81v-36q0 -48 127 -154l-18 -63h-9q-47 0 -82 27h-18l-81 -9q-43 7 -72 45l-190 100l18 45q-63 14 -63 45l9 9v9
l-90 225q18 40 18 145l-27 144q0 191 108 244l9 9v9l-27 45q23 46 81 81q15 66 208 181q0 21 190 54zM767 1425q0 -24 136 -72q63 0 117 63h18q45 -23 45 -81q0 -45 -18 -45q18 -22 27 -145l-9 -153l27 -72q-26 -64 -81 -64q0 24 -45 36l-72 244q-23 0 -73 63q-45 7 -45 27
l9 37q-45 33 -135 45q0 99 54 99q0 18 45 18zM1083 423l9 -9q-11 -140 -54 -207q-63 0 -63 -73l-136 -45v9l-99 -99h-54q-36 15 -36 63v36q0 16 234 118q100 207 199 207zM1271 -263l-16 -5l-12 4l-24 -8q0 20 -56 24l-68 -16h-32l-36 4h-4l-4 -4l-44 4h-20l-12 8h-12
l-24 -8l-12 8q0 -8 -84 -12q-8 8 -48 12q0 -8 -36 -12q0 10 -44 16h-44l-28 -12l-84 16l-28 -8h-4l-4 4l-28 -8l-68 12l-32 -12h-4l-4 4l-60 -8l-56 16l-80 -16l-76 4l-32 -4q0 7 -40 8h-28l-8 8v8l8 32v12l-8 12v16q0 28 32 32q77 -4 84 -12h4l4 4l16 -8q0 15 120 20
l68 -16h16l4 4l4 -4h8l20 4l24 -4h16l52 8l44 -8h40l36 -12l56 12h4l36 -4l56 16l48 -12h40l4 4l4 -4h16l36 -4l120 12l12 -4l12 4l16 -4h4l4 4l28 -4l48 8l64 -8l60 16l36 -6v-133zM1271 1562l-53 -7q-31 0 -72 12h-4q-15 -12 -28 -12h-12q-24 0 -48 24l-48 -8l-16 4
l-16 -4h-32q-23 -16 -36 -16l-32 4h-4l-4 -4l-20 12l-24 -12l-24 8q-15 -12 -36 -12h-12l-32 12q-80 0 -156 -12q-37 0 -64 24q0 -16 -56 -20l-24 4l-28 -8q-53 8 -64 16h-4l-4 -4l-88 8q-51 0 -64 -16h-8l-16 12l-24 -8l-4 4h-12q-25 -8 -96 -12l-28 16v4l4 4q16 6 16 12v4
l-12 12l8 28v4q0 8 -12 8v16l16 28q46 0 80 -12q46 0 60 16h20l68 -12h12l44 12q85 -13 100 -24h16q20 0 24 12h4l4 -4h16q0 8 92 20l24 -4h4l4 4q16 -6 16 -12l28 4h28l104 -20l40 16v-4q38 0 72 12l40 -8q76 0 116 16q80 -28 108 -28h20q48 16 92 20l12 -12h12v8h12
q0 -3 1 -5v-120z" />
    <glyph glyph-name="D" unicode="D" horiz-adv-x="1398" 
d="M205 1434l130 -37h56q103 28 187 28v-38q-38 -42 -38 -65l10 -74l-10 -10v-9l19 -75v-111q-37 -50 -37 -84v-19l56 -130l-56 -121l46 -75v-9l-18 -103v-177l18 -28v-46l-9 -56l9 -10v-9l-18 -74l18 -75l-223 -28l-93 19l-38 -10l-46 10l-65 -19l-28 9l-28 -9
q-19 23 -28 93q84 0 84 149v19l-10 84l10 140v121l-38 112v37q19 18 47 233l18 28l-18 56l9 65q-19 186 -74 186q-34 0 -47 37q0 45 196 66zM745 1425l131 -93q106 0 233 -159q44 -177 102 -177q10 -102 28 -121v-75l-9 -83l9 -38l-18 -37l18 -37q-80 -354 -158 -354l9 -47
q-76 -13 -177 -140q-177 -27 -195 -56q-75 0 -75 112l112 65v19h9l-9 280v149l9 65l-9 9l-10 28h-9l19 56l-10 56l10 9h9l-9 75q21 25 28 140l-28 37l9 37q-14 0 -46 75l9 28l-9 56h9l-9 28h-56v83zM1419 -264l-30 -6l-24 12l-12 -4l-16 4l-32 -8l-4 4h-36l-44 -4
q-16 8 -44 8l-36 -8q-48 0 -72 16l-36 -12l-40 4h-4l-4 -4l-24 8l-28 -16l-64 12l-32 -8l-16 8l-16 -4h-4l-8 8q-54 0 -76 -20l-16 4l-20 -4q0 8 -52 12l-12 -4l-52 12l-32 -12h-32l-16 -4q-60 5 -60 16l-84 -12l-72 4l-64 -8l-56 12h-84q-7 -7 -48 -12l-24 4l-8 -3v133
l88 -14q22 0 44 12q25 0 48 -12l64 12l92 -8v4h8l12 -8l32 8h20l24 -8l68 8l56 -12l32 4l44 -4l48 12l16 -4l144 12l4 -4l28 4l16 -4q11 -15 32 -20q40 11 40 16l36 -4q21 12 40 12h16l24 -8l32 4l52 -8l44 16q84 -16 156 -16h4l4 4l4 -4l32 4l24 -4q3 0 6 1v-119z
M1419 1558l-55 7l-68 -16l-56 8l-24 -4h-64l-36 -12l-28 8l-12 -4l-28 8h-4l-4 -4l-56 12l-16 -4l-40 8l-48 -12h-12l-32 8l-4 -4l-36 4l-16 -8l-16 8h-44l-32 -12h-4l-4 4l-64 -16l-40 20h-36l-40 -4l-8 8l-8 -8l-48 4h-40l-20 4l-12 -12l-36 12l-16 -4h-4l-4 4l-24 -12
l-44 8l-28 -4l-56 16l-112 -16l-4 4l-20 -4l-24 4l-7 -1v120q3 -7 19 -7h8l4 4l20 -12h12q8 8 32 8l20 20l112 -28h4l52 24l4 -4h36q6 0 12 -16l88 12q22 -8 56 -8q17 0 36 12l24 -12h20l44 4l48 -12q51 11 60 24l20 -12q31 0 60 28q17 -4 32 -20q68 -15 68 -24l32 8l4 -4h4
l24 8l44 -4l120 24l100 -12l60 4l4 -4l16 4h48l52 -16h32l3 1v-108z" />
    <glyph glyph-name="E" unicode="E" horiz-adv-x="1207" 
d="M241 1434q107 -46 223 -56l65 19q18 0 65 -74v-84l-37 -55v-47l9 -111l-19 -130l65 -149q0 -52 -83 -269v-9l18 -28l-9 -37l19 -93l-10 -9v-9l10 -9v-28h-10l10 -65v-158l-10 -9v-9l-9 9h-9l-167 -28l-121 65l-111 -46h-19q-51 0 -92 64q0 38 83 56l9 9v10l-18 37l37 102
q0 82 -28 120l19 75v92l-10 38l10 37l-19 130l28 102l-28 148l28 149q-51 98 -130 139q0 102 241 102v9zM724 1434l37 -19l9 10h9l102 -19l102 9l75 -18v-46l9 -297q-40 -50 -93 -56l-74 93v28l9 9q-59 111 -120 111l-10 37l-83 -9q-47 6 -47 56v74q0 18 75 37zM835 1026
v-56q25 0 46 -306l-9 -28l28 -74l-9 -9l9 -47q-12 -74 -56 -74q-35 2 -111 121q-19 0 -19 55l-65 65q0 130 65 130q0 19 28 19l47 195l9 9h37zM1030 451q43 0 55 -149h10l-28 -74l9 -9l-9 -47v-148l-37 -9l-176 27l-195 -27l9 27l-9 56v9q0 19 83 19q12 28 130 93
q71 175 139 232h19zM1228 1568l-28 9q-24 -16 -72 -16l-36 8q-28 0 -44 -8l-44 4h-36l-4 -4l-32 8l-16 -4l-12 4l-24 -12l-64 12l-80 -4q-52 0 -84 12q-41 -28 -56 -28h-12l-76 16h-56l-28 -8l-68 8q-19 0 -60 -20q-19 0 -56 28h-8l-12 -12h-4v8h-4q-15 -16 -28 -16l-32 4
l-4 -4q-4 12 -24 12q-60 -1 -60 -8l-44 12l-24 -4h-4q-12 0 -16 52h-4q4 68 44 68l36 8q0 -8 12 -8l32 4v-4q37 5 52 16q39 -8 56 -24l16 4l12 -4l32 4l4 -4l20 4h12l56 -4l4 4h4l24 -8l72 12h12l32 -8h20q29 0 72 12l12 -4l56 4h16l64 -16q71 20 96 20q0 -12 16 -12l24 4
l32 -4l4 4l4 -4h4q73 0 156 16l44 -16l52 8l32 -4l20 7v-124zM1225 -268l-28 -8l-12 4l-28 -8l-36 12h-64l-24 4l-56 -8l-68 16l-64 -8l-28 4l-16 -4l-20 4l-20 -12l-20 12q-46 -4 -60 -16l-60 8l-36 -8l-12 12h-12l-12 -12l-16 4l-24 -4l-52 12v-4l-64 20l-84 -24l-112 12
q-4 -12 -24 -12h-16q-21 0 -36 12l-84 -12q-56 0 -56 28l4 16q0 34 -20 64q12 32 56 32l60 -16h16l72 -8l44 8l24 -4l120 20h20q11 -16 116 -16h48l36 4q56 -6 56 -12l80 8l28 -8q19 12 72 12h4l40 -12h32l52 16h48l16 -4l4 4l60 -4l100 12l56 -11v-125z" />
    <glyph glyph-name="F" unicode="F" horiz-adv-x="1201" 
d="M897 1434l148 -28v-74l-10 -9l19 -74l-9 -37l18 -139v-37q0 -48 -28 -55h-18q-67 0 -74 83q-14 0 -74 130q-31 0 -102 55q-120 41 -120 139q33 28 111 28h37l37 -10zM518 1425l27 -9v-28l19 -56l-19 -101h10l-10 -28l37 -93l-9 -55l19 -56q-37 -15 -56 -249l9 -28
l-18 -111l28 -92l-10 -37v-19l10 -9l-10 -9v-102l10 -83l-10 -9v-10q0 -92 56 -92q40 -23 55 -65q0 -48 -55 -83h-83q-46 46 -157 46h-56q-52 0 -157 -46l-102 9h-9l-37 111q37 28 83 28l37 185q0 95 -37 157l37 120l-18 56l9 55l-19 19v9l28 37v9l-28 46l37 65
q-11 92 -27 92q20 111 46 111v19l-28 55l9 28q0 93 -111 93l-9 9v46q24 46 74 46h176l139 -18l9 9h9l56 -9h18q14 0 28 37zM841 1027l74 -83l-27 -28v-129l18 -56l-18 -46l9 -102v-55l-56 -55q-74 0 -74 64l10 46q-111 78 -111 167l-19 18v19q120 77 120 129q0 111 74 111z
M1213 1559l-59 14q-56 -4 -56 -24l-24 8l-12 -4l-24 8l-24 -4q-41 5 -48 12h-84l-56 -12l-64 8l-72 -4l-84 12q0 -11 -60 -16l-16 4h-32l-32 12l-52 -12l-12 4q-52 -4 -52 -12l-20 4l-16 -4q-22 20 -76 20l-8 -8h-4l-16 4l-16 -8l-32 8l-64 -12l-28 16l-24 -8l-4 4h-4
l-40 -4l-8 3v124l4 1h16q20 0 40 -12l36 4q0 -5 40 -16q21 5 32 20l16 4l28 -4l4 4l144 -12l16 4l48 -12l44 4l32 -4l56 12l68 -8l24 8h20l32 -8l12 8h8v-4l92 8l64 -12q23 12 48 12q22 -12 44 -12l124 20l60 -16l64 8l7 -1v-129zM1207 -272q-13 0 -28 12h-4
q-41 -12 -72 -12l-60 8l-24 -4l-20 4l-4 -4l-112 16l-56 -16l-28 4l-44 -8l-24 12l-4 -4h-4l-16 4l-36 -12l-12 12l-20 -4h-40l-48 -4l-8 8l-8 -8l-40 4h-36l-40 -20l-64 16l-4 -4h-4l-32 12h-44l-16 -8l-16 8l-36 -4l-4 4l-32 -8h-12l-48 12l-40 -8l-16 4l-56 -12l-4 4h-4
v125l64 -13l44 4l24 -8h4l4 4l32 -8q0 9 68 24q15 16 32 20q29 -28 60 -28l20 12q9 -13 60 -24l48 12l44 -4h20l24 12q19 -12 36 -12q34 0 56 8l88 -12q6 16 12 16h36l4 4l52 -24h4l112 28l20 -20q24 0 32 -8h12l20 12l4 -4h8q20 0 20 12h12v-8h12l12 12q44 -4 92 -20h20
q8 0 19 2l1 -118h-12z" />
    <glyph glyph-name="G" unicode="G" horiz-adv-x="1301" 
d="M478 1434l27 -28h55v-45q-59 -49 -101 -184l-9 -9l18 -83l-18 -37l18 -165l-9 -37v-64l9 -9l-27 -83v-138l9 -128l-9 -28q55 -68 55 -193l-9 -37q68 -44 73 -73q0 -74 -92 -74l-220 74q0 20 -83 92l-82 156l9 9q-12 39 -92 119v10q2 46 18 46l-9 9v9l9 83l-18 27v92
l18 28v91q65 236 92 285q105 105 138 175l101 18l-9 64q19 16 138 28zM1066 1434q24 0 45 -46l-9 -37l9 -82l-9 -10v-9l37 -101v-27l-28 -120l10 -9v-9q-22 -64 -37 -64l-83 9q-25 229 -92 229q-120 157 -183 157q-74 34 -74 82h9l10 9l9 -9h18l92 9q58 -6 110 -45h55l55 64
zM1038 773q93 0 129 -74v-37l-37 -91l9 -65q-28 -45 -28 -119l10 -74l-10 -9v-9l10 -28q0 -119 -65 -119q-99 -26 -147 -83l-229 -64q-74 10 -74 46q0 57 120 101l9 64v28q0 92 -18 92l9 9v110l-9 9l18 65q0 95 -129 137v19l46 46h55l147 18l92 -18h28q51 0 64 46z
M1316 1566q-7 -1 -15 -2l-24 4l-24 -8l-12 4l-24 -8q0 20 -56 24l-68 -16h-32l-36 4h-4l-4 -4l-44 4h-20l-12 8h-12l-24 -8l-12 8q0 -8 -84 -12q-8 8 -48 12q0 -8 -36 -12q0 10 -44 16h-44l-28 -12l-84 16l-28 -8h-4l-4 4l-28 -8l-68 12l-32 -12h-4l-4 4l-60 -8l-56 16
l-80 -16l-76 4l-32 -4q0 7 -40 8h-28l-8 8v8l8 32v12l-8 12v16q0 28 32 32q77 -4 84 -12h4l4 4l16 -8q0 15 120 20l68 -16h16l4 4l4 -4h8l20 4l24 -4h16l52 8l44 -8h40l36 -12l56 12h4l36 -4l56 16l48 -12h40l4 4l4 -4h16l36 -4l120 12l12 -4l12 4l16 -4h4l4 4l28 -4l48 8
l64 -8l60 16l83 -13v-125zM1319 -252l-35 3l-120 -24l-100 12l-60 -4l-4 4l-16 -4h-48l-52 16h-32l-40 -12h-4q-53 0 -72 12l-28 -8l-80 8q0 -6 -56 -12l-36 4h-48q-105 0 -116 -16h-20l-120 20l-24 -4l-44 8l-72 -8h-16l-60 -16q-44 0 -56 32q20 30 20 64l-4 16q0 28 56 28
l84 -12q15 12 36 12h16q20 0 24 -12l112 12l84 -24l64 20v-4l52 12l24 -4l16 4l12 -12h12l12 12l36 -8l60 8q14 -12 60 -16l20 12l20 -12l20 4l16 -4l28 4l64 -8l68 16l56 -8l24 4h64l36 12l28 -8l12 4l28 -8h4l4 4l56 -12l16 4l19 -4v-107z" />
    <glyph glyph-name="H" unicode="H" horiz-adv-x="1495" 
d="M781 1435h74q13 -18 148 -28l9 10h10l129 -19l148 28l65 -28q0 -111 -92 -111l-19 -65v-74l19 -74v-55q0 -68 -28 -158l28 -111l-19 -120l19 -111l-19 -38l9 -27l-9 -111l19 -65l-10 -47q0 -53 93 -157l-28 -37h-28l-102 19q-46 -3 -46 -19l-120 28h-28q0 -28 -28 -28v9
q-71 -27 -203 -37q-56 0 -56 65h-9q92 94 92 130l37 231l-37 65l47 139v18l-19 19l-37 -9l-83 9v-9q-74 13 -74 74v28l18 18h83l10 -9q92 68 92 259l-46 102q46 60 46 92q0 67 -139 139v28q13 37 84 37zM207 1426l111 -19l83 10l139 -10l65 10l55 -19v-55
q-110 -79 -120 -130l28 -185v-74l9 -47l-37 -64v-74q28 -34 28 -65l-19 -102l37 -148q-46 -30 -46 -111q28 -46 28 -121v-18l-19 -28v-9q0 -19 56 -28q6 -43 65 -83v-28l-10 -9l-27 -10v-9q-174 19 -278 56q-113 -10 -250 -47h-56l-46 65v9q0 59 93 84v148l-28 55
q37 56 37 84h-9l18 46l-9 9v10l9 9v9l-9 37l18 28l-9 28q28 49 28 157l-56 93l19 120q-21 0 -28 46q21 111 56 111q-44 117 -111 223l37 18l55 -9h9q50 37 84 37zM1519 1574q-17 -2 -36 -2l-80 4l-64 -12l-24 12l-12 -4l-16 4l-32 -8l-4 4h-36l-44 -4q-16 8 -44 8l-36 -8
q-48 0 -72 16l-36 -12l-40 4h-4l-4 -4l-24 8l-28 -16l-64 12l-32 -8l-16 8l-16 -4h-4l-8 8q-54 0 -76 -20l-16 4l-20 -4q0 8 -52 12l-12 -4l-52 12l-32 -12h-32l-16 -4q-60 5 -60 16l-84 -12l-72 4l-64 -8l-56 12h-84q-6 -6 -33 -10v125l41 -7q22 0 44 12q25 0 48 -12l64 12
l92 -8v4h8l12 -8l32 8h20l24 -8l68 8l56 -12l32 4l44 -4l48 12l16 -4l144 12l4 -4l28 4l16 -4q11 -15 32 -20q40 11 40 16l36 -4q21 12 40 12h16l24 -8l32 4l52 -8l44 16q84 -16 156 -16h4l4 4l4 -4l32 4l24 -4q16 0 16 12q25 0 96 -20l44 11v-117zM1519 -254l-45 9l-40 -16
v4q-38 0 -72 -12l-40 8q-76 0 -116 -16q-80 28 -108 28h-20q-48 -16 -92 -20l-12 12h-12v-8h-12q0 12 -20 12h-8l-4 -4l-20 12h-12q-8 -8 -32 -8l-20 -20l-112 28h-4l-52 -24l-4 4h-36q-6 0 -12 16l-88 -12q-22 8 -56 8q-17 0 -36 -12l-24 12h-20l-44 -4l-48 12
q-51 -11 -60 -24l-20 12q-31 0 -60 -28q-17 4 -32 20q-68 15 -68 24l-32 -8l-4 4h-4l-24 -8l-9 1v107l21 -4l48 12h12l32 -8l4 4l36 -4l16 8l16 -8h44l32 12h4l4 -4l64 16l40 -20h36l40 4l8 -8l8 8l48 -4h40l20 -4l12 12l36 -12l16 4h4l4 -4l24 12l44 -8l28 4l56 -16l112 16
l4 -4l20 4l24 -4l60 8q31 0 72 -12h4q15 12 28 12h12q24 0 48 -24l48 8l16 -4l16 4h32q23 16 36 16l32 -4h4l4 4l20 -12l24 12l24 -8q15 12 36 12h12l32 -12h17v-113z" />
    <glyph glyph-name="I" unicode="I" horiz-adv-x="762" 
d="M550 1434l10 -9h54q0 -25 46 -46l9 -55q-100 0 -100 -64l-19 -64l10 -9v-9l-28 -55l9 -27l-9 -28q0 -146 46 -146l-9 -64v-164l18 -37l-55 -128l55 -219v-64l-9 -55q0 -18 91 -91l-55 -101q-70 9 -137 55l-119 -28q-38 25 -118 37l-64 -37h-55q-67 0 -119 55v19l91 54
l37 83l-9 82q0 46 18 46l-18 155l9 9v9l-18 110v128l-9 9l9 9v18q0 46 -19 46l37 146l-18 55l18 128q0 66 -101 119l-9 64v9q135 28 320 37l9 9l101 -9q100 5 100 18zM781 1570l-8 -2l-60 8l-4 -4h-4l-32 12l-68 -12l-28 8l-4 -4h-4l-28 8l-84 -16l-28 12h-44
q-44 -6 -44 -16q-36 4 -36 12q-40 -4 -48 -12q-84 4 -84 12l-12 -8l-24 8h-12l-12 -8h-20l-44 -4l-4 4h-4l-36 -4h-32l-9 2v129l41 -7l28 4l4 -4h4l16 4l12 -4l12 4l120 -12l36 4h16l4 4l4 -4h40l48 12l56 -16l36 4h4l56 -12l36 12h40l44 8l52 -8h16l24 4l20 -4h8l4 4l4 -4
h16l16 4v-118zM784 -254l-30 -3l-4 4h-4q-11 -8 -64 -16l-28 8l-24 -4q-56 4 -56 20q-27 -24 -64 -24q-76 12 -156 12l-32 -12h-12q-21 0 -36 12l-24 -8l-24 12l-20 -12l-4 4h-4l-32 -4q-13 0 -36 16h-32l-16 4l-16 -4l-48 8q-24 -24 -48 -24l-1 118q31 6 89 26
q40 -16 116 -16l40 8q34 -12 72 -12v4l40 -16l104 20h28l28 -4q0 6 16 12l4 -4h4l24 4q92 -12 92 -20h16l4 4h4q4 -12 24 -12h16q14 11 94 23v-124z" />
    <glyph glyph-name="J" unicode="J" horiz-adv-x="1147" 
d="M582 1434h9q38 -45 143 -45v-9l152 45q153 -17 153 -90v-18l-72 -35q0 -27 -36 -81l18 -99l-18 -188v-45l9 -53l-18 -45l18 -36l-9 -9v-188l9 -9l-9 -9v-18l18 -99v-80l-9 -9l9 -9v-18q-97 -170 -161 -170l-180 -81q-56 -36 -143 -36q-25 0 -63 72q0 51 90 170l27 99v9
l-9 35l9 9v9l-45 260l18 54v27l-9 9l18 72v206l18 80q0 92 -90 171q0 35 -27 62v45l18 18h81q47 0 81 27zM142 556h117q134 -51 134 -126v-89l-18 -18q-29 0 -35 -90q-36 -9 -36 -54h-18v-27q63 -9 63 -27v-71l-90 -18q-25 0 -90 81q-85 34 -125 107q0 18 -45 54v36
q14 110 143 242zM1165 -257q-18 -4 -42 -4l-36 8q-28 0 -44 -8l-44 4h-36l-4 -4l-32 8l-16 -4l-12 4l-24 -12l-64 12l-80 -4q-52 0 -84 12q-41 -28 -56 -28h-12l-76 16h-56l-28 -8l-68 8q-19 0 -60 -20q-19 0 -56 28h-8l-12 -12h-4v8h-4q-15 -16 -28 -16l-32 4l-4 -4
q-4 12 -24 12q-60 -1 -60 -8l-44 12l-24 -4h-4q-12 0 -16 52h-4q4 68 44 68l36 8q0 -8 12 -8l32 4v-4q37 5 52 16q39 -8 56 -24l16 4l12 -4l32 4l4 -4l20 4h12l56 -4l4 4h4l24 -8l72 12h12l32 -8h20q29 0 72 12l12 -4l56 4h16l64 -16q71 20 96 20q0 -12 16 -12l24 4l32 -4
l4 4l4 -4h4q73 0 156 16l44 -16l46 7v-123zM1162 1562l-28 9h-64l-24 4l-56 -8l-68 16l-64 -8l-28 4l-16 -4l-20 4l-20 -12l-20 12q-46 -4 -60 -16l-60 8l-36 -8l-12 12h-12l-12 -12l-16 4l-24 -4l-52 12v-4l-64 20l-84 -24l-112 12q-4 -12 -24 -12h-16q-21 0 -36 12
l-84 -12q-56 0 -56 28l4 16q0 34 -20 64q12 32 56 32l60 -16h16l72 -8l44 8l24 -4l120 20h20q11 -16 116 -16h48l36 4q56 -6 56 -12l80 8l28 -8q19 12 72 12h4l40 -12h32l52 16h48l16 -4l4 4l60 -4l80 10v-143z" />
    <glyph glyph-name="K" unicode="K" horiz-adv-x="1464" 
d="M166 1432q84 0 139 -47h19l65 10v-10l9 10h47q120 0 167 18l46 -18v-65q-83 -65 -83 -121l9 -130l-9 -158h9l-9 -9v-47l9 -55l-9 -10v-9l9 -37l-9 -176v-37l18 -75v-37l-28 -121q0 -195 84 -195l37 -55q0 -31 -111 -47l-84 10l-93 -10h-46l-102 10l-10 -10h-9l-56 10
l-55 -19l-75 28h-37l-9 37q0 25 102 84l47 185l-10 65l10 28l-38 269l10 56v74l9 10l-28 74l28 111l-19 158l10 47q0 50 -84 74l-18 37v9l37 37l9 -9h19zM1206 1413h93q17 0 56 -65q-39 -65 -140 -65q-14 -27 -130 -111q0 -41 -74 -102q-9 -37 -37 -37v-10q81 -177 102 -306
l-9 -37q54 -127 83 -130q0 -79 65 -167q37 -65 37 -140l47 -92q50 0 102 -84v-9q0 -21 -65 -37l-37 9l-74 -28l-112 19h-186l-148 -10q-56 22 -56 37v10q0 35 47 83v84q0 125 -112 316l-9 157q23 8 130 232q94 0 167 251v28q-2 21 -111 102l-10 56l37 37l112 -9zM1481 -253
l-12 -8l-24 8h-12l-12 -8h-20l-44 -4l-4 4h-4l-36 -4h-32l-68 16q-56 -4 -56 -24l-24 8l-12 -4l-24 8l-24 -4q-41 5 -48 12h-84l-56 -12l-64 8l-72 -4l-84 12q0 -11 -60 -16l-16 4h-32l-32 12l-52 -12l-12 4q-52 -4 -52 -12l-20 4l-16 -4q-22 20 -76 20l-8 -8h-4l-16 4
l-16 -8l-32 8l-64 -12l-28 16l-24 -8l-4 4h-4l-40 -4l-36 12q-12 -8 -30 -12v123l6 1l32 -4l24 8h16q20 0 40 -12l36 4q0 -5 40 -16q21 5 32 20l16 4l28 -4l4 4l144 -12l16 4l48 -12l44 4l32 -4l56 12l68 -8l24 8h20l32 -8l12 8h8v-4l92 8l64 -12q23 12 48 12q22 -12 44 -12
l124 20l60 -16l64 8l48 -8l28 4l4 -4h4l16 4l12 -4l12 4l105 -11l1 -111q-14 3 -14 6zM1456 1583h-32l-16 4l-16 -4l-48 8q-24 -24 -48 -24h-12q-13 0 -28 12h-4q-41 -12 -72 -12l-60 8l-24 -4l-20 4l-4 -4l-112 16l-56 -16l-28 4l-44 -8l-24 12l-4 -4h-4l-16 4l-36 -12
l-12 12l-20 -4h-40l-48 -4l-8 8l-8 -8l-40 4h-36l-40 -20l-64 16l-4 -4h-4l-32 12h-44l-16 -8l-16 8l-36 -4l-4 4l-32 -8h-12l-48 12l-40 -8l-16 4l-56 -12l-4 4h-4l-28 -8l-12 4l-28 -8l-8 3v143l20 2l120 -24l44 4l24 -8h4l4 4l32 -8q0 9 68 24q15 16 32 20q29 -28 60 -28
l20 12q9 -13 60 -24l48 12l44 -4h20l24 12q19 -12 36 -12q34 0 56 8l88 -12q6 16 12 16h36l4 4l52 -24h4l112 28l20 -20q24 0 32 -8h12l20 12l4 -4h8q20 0 20 12h12v-8h12l12 12q44 -4 92 -20h20q28 0 108 28q36 -15 102 -16l1 -127q-12 2 -31 15z" />
    <glyph glyph-name="L" unicode="L" horiz-adv-x="1180" 
d="M141 1434q210 -24 210 -36l27 9q52 -28 109 -28l19 19h36l82 9q64 -13 64 -92l-9 -27h-37q-72 0 -72 -191v-19l9 -109h-9q27 -37 36 -146q0 -27 -27 -27l-9 -10v-9l9 -45l-9 -28l9 -82v-73q2 -45 18 -45l-55 -219l28 -55h-10l37 -155h-27q-39 0 -92 -46h-9q-52 0 -100 37
h-46l-73 -18l-155 18l-55 -9l-18 27v18q0 23 101 55l18 82q0 67 -28 119q6 88 46 146l-9 36l9 28l-27 54l18 155q0 118 -27 210l27 37v9l-27 27l9 9v64l-9 55l9 9v9q0 119 -119 119l-9 9v18q73 82 137 82zM980 504q82 -22 82 -110v-64q-46 0 -46 -54l46 -183v-9
q0 -60 -36 -82l-92 64l-219 -18q-54 0 -54 54v19q0 13 109 45q0 37 46 73l64 64l9 36l-9 10v9l45 64q5 82 55 82zM1207 1585q-24 -14 -69 -14l-36 8q-28 0 -44 -8l-44 4h-36l-4 -4l-32 8l-16 -4l-12 4l-24 -12l-64 12l-80 -4q-52 0 -84 12q-41 -28 -56 -28h-12l-76 16h-56
l-28 -8l-68 8q-19 0 -60 -20q-19 0 -56 28h-8l-12 -12h-4v8h-4q-15 -16 -28 -16l-32 4l-4 -4q-4 12 -24 12q-60 -1 -60 -8l-44 12l-24 -4h-4q-12 0 -16 52h-4q4 68 44 68l36 8q0 -8 12 -8l32 4v-4q37 5 52 16q39 -8 56 -24l16 4l12 -4l32 4l4 -4l20 4h12l56 -4l4 4h4l24 -8
l72 12h12l32 -8h20q29 0 72 12l12 -4l56 4h16l64 -16q71 20 96 20q0 -12 16 -12l24 4l32 -4l4 4l4 -4h4q73 0 156 16l44 -16l52 8l21 -3v-111zM1207 -257q-14 4 -37 6l-68 -16h-32l-36 4h-4l-4 -4l-44 4h-20l-12 8h-12l-24 -8l-12 8q0 -8 -84 -12q-8 8 -48 12q0 -8 -36 -12
q0 10 -44 16h-44l-28 -12l-84 16l-28 -8h-4l-4 4l-28 -8l-68 12l-32 -12h-4l-4 4l-60 -8l-56 16l-80 -16l-76 4l-32 -4q0 7 -40 8h-28l-8 8v8l8 32v12l-8 12v16q0 28 32 32q77 -4 84 -12h4l4 4l16 -8q0 15 120 20l68 -16h16l4 4l4 -4h8l20 4l24 -4h16l52 8l44 -8h40l36 -12
l56 12h4l36 -4l56 16l48 -12h40l4 4l4 -4h16l36 -4l120 12l12 -4l12 4l16 -4h4l4 4l28 -4l48 8l64 -8l25 7v-121z" />
    <glyph glyph-name="M" unicode="M" horiz-adv-x="1561" 
d="M193 1434l192 -55l128 37h9q19 0 19 -64l36 -83q13 0 19 -73q21 0 54 -36l-27 -46v-28q42 -39 46 -109q18 0 18 -83l46 -27q0 87 64 174h18l-9 -9v-74l36 -100q-54 -211 -91 -211q-18 0 -18 -27l9 -9v-9l-55 -156l9 -155l-46 -92l10 -36l-46 -55q-25 -83 -46 -83h-18
q-40 28 -92 238l-91 174l-9 37l18 45q0 32 -82 174l-138 448q-33 137 -45 138q-83 0 -110 64v9q0 46 192 82zM1135 1416q48 -37 92 -37v-9l9 9h18l9 -9l83 27q109 -14 109 -45v-28q-119 -85 -119 -119l10 -9v-9l-10 -27l19 -101l-19 -64l19 -156q-19 -82 -46 -118
q52 -119 73 -119v-9q0 -19 -36 -19q0 -128 27 -274l-9 -119q15 0 82 -101q-18 -57 -46 -64h-54l-92 19l-46 -10l-73 19h-18q-101 -19 -128 -46l-156 46q-55 0 -55 27q31 80 138 128v19l-9 210l18 192v37l-9 64l18 18l-27 100v46l9 83l-9 27l9 46l-9 55l9 27l-37 37
q18 81 18 219q0 21 46 28l55 -10zM815 1105h18v-19l-27 -27v18zM129 867h9q46 -28 46 -64h-9q46 -62 46 -165l-10 -36l37 -37l-9 -37l18 -36l-9 -37l9 -82q-27 0 -27 -101q44 -12 91 -119q43 0 101 -64q0 -54 -92 -54l-27 -28h-9l-9 9l-10 -9h-64l-36 28h-28l-137 -10l-9 28
l9 9v9l-9 37l137 119l-9 91l27 110l-18 293l9 9v9q-18 36 -18 100v28zM1585 1583q-11 4 -11 8q-40 -4 -48 -12q-84 4 -84 12l-12 -8l-24 8h-12l-12 -8h-20l-44 -4l-4 4h-4l-36 -4h-32l-68 16q-56 -4 -56 -24l-24 8l-12 -4l-24 8l-24 -4q-41 5 -48 12h-84l-56 -12l-64 8
l-72 -4l-84 12q0 -11 -60 -16l-16 4h-32l-32 12l-52 -12l-12 4q-52 -4 -52 -12l-20 4l-16 -4q-22 20 -76 20l-8 -8h-4l-16 4l-16 -8l-32 8l-64 -12l-28 16l-24 -8l-4 4h-4l-40 -4l-36 12q-1 -1 -3 -2v111l11 -1l24 8h16q20 0 40 -12l36 4q0 -5 40 -16q21 5 32 20l16 4l28 -4
l4 4l144 -12l16 4l48 -12l44 4l32 -4l56 12l68 -8l24 8h20l32 -8l12 8h8v-4l92 8l64 -12q23 12 48 12q22 -12 44 -12l124 20l60 -16l64 8l48 -8l28 4l4 -4h4l16 4l12 -4l12 4l120 -12l36 4h16l4 4l4 -4h40l15 4v-120zM1585 -246l-67 3l-64 -12l-24 12l-12 -4l-16 4l-32 -8
l-4 4h-36l-44 -4q-16 8 -44 8l-36 -8q-48 0 -72 16l-36 -12l-40 4h-4l-4 -4l-24 8l-28 -16l-64 12l-32 -8l-16 8l-16 -4h-4l-8 8q-54 0 -76 -20l-16 4l-20 -4q0 8 -52 12l-12 -4l-52 12l-32 -12h-32l-16 -4q-60 5 -60 16l-84 -12l-72 4l-64 -8l-56 12h-84q-7 -7 -48 -12
l-24 4l-24 -8l-12 4l-24 -8q0 12 -19 18v121l35 9l124 -20q22 0 44 12q25 0 48 -12l64 12l92 -8v4h8l12 -8l32 8h20l24 -8l68 8l56 -12l32 4l44 -4l48 12l16 -4l144 12l4 -4l28 4l16 -4q11 -15 32 -20q40 11 40 16l36 -4q21 12 40 12h16l24 -8l32 4l52 -8l44 16
q84 -16 156 -16h4l4 4l4 -4l32 4l24 -4q16 0 16 12q24 0 91 -19v-108z" />
    <glyph glyph-name="N" unicode="N" 
d="M54 1434q103 0 167 -46q42 0 83 28h102q240 -27 240 -74q0 -104 120 -167q55 -101 74 -212l46 -83l-9 -10v-27q240 -259 240 -379l-9 -9v-10l9 -46l-9 -74q37 0 37 -101q0 -102 -28 -111l9 -9v-28l-18 -28l9 -28h-9l-47 -18q-295 61 -295 166q-32 0 -56 111q-18 0 -18 37
q-46 0 -46 93q-120 110 -120 194q-14 0 -84 157q-24 0 -64 129q-57 15 -120 231q-168 212 -213 212q-27 0 -46 37q55 47 55 65zM969 1406q51 0 157 -37h9l37 28h37q70 0 83 -55q0 -37 -55 -47q0 -15 -92 -83l-10 -74l10 -138l-37 -277v-47q-74 43 -74 139l27 92
q-27 49 -37 157l19 74q0 22 -65 65l-9 37l9 9v56l-64 55v37zM202 1055q32 -48 83 -222v-110l-18 -37l37 -157v-10q0 -77 -37 -221q18 0 46 -130l9 -9h10l9 9h9q74 -24 74 -46v-46l-18 -56l-204 19q-55 -3 -55 -19l-37 19l-56 -9l-18 18v46q111 61 111 157l18 28l-9 65
l65 120v46l-65 194l9 139h-9l9 9v129l10 10l-10 9v9q18 42 37 46zM1416 1573l-34 -9l-20 20q-24 0 -32 8h-12l-20 -12l-4 4h-8q-20 0 -20 -12h-12v8h-12l-12 -12q-44 4 -92 20h-20q-28 0 -108 -28q-40 16 -116 16l-40 -8q-34 12 -72 12v-4l-40 16l-104 -20h-28l-28 4
q0 -6 -16 -12l-4 4h-4l-24 -4q-92 12 -92 20h-16l-4 -4h-4q-4 12 -24 12h-16q-15 -11 -100 -24l-44 12h-12l-68 -12h-20q-14 16 -60 16q-34 -12 -80 -12l-16 28v16q12 0 12 8v4l-8 28l12 12v4q0 6 -16 12l-4 4v4l28 16q71 -4 96 -12h12l4 4l24 -8l16 12h8q13 -16 64 -16
l88 8l4 -4h4q11 8 64 16l28 -8l24 4q56 -4 56 -20q27 24 64 24q76 -12 156 -12l32 12h12q21 0 36 -12l24 8l24 -12l20 12l4 -4h4l32 4q13 0 36 -16h32l16 -4l16 4l48 -8q24 24 48 24h12q13 0 28 -12h4q41 12 72 12l60 -8l24 4l20 -4l4 4l94 -13v-114zM1416 -268l-14 -4h-12
l-48 12l-40 -8l-16 4l-56 -12l-4 4h-4l-28 -8l-12 4l-28 -8l-36 12h-64l-24 4l-56 -8l-68 16l-64 -8l-28 4l-16 -4l-20 4l-20 -12l-20 12q-46 -4 -60 -16l-60 8l-36 -8l-12 12h-12l-12 -12l-16 4l-24 -4l-52 12v-4l-64 20l-84 -24l-112 12q-4 -12 -24 -12h-16q-21 0 -36 12
l-84 -12q-56 0 -56 28l4 16q0 34 -20 64q12 32 56 32l60 -16h16l72 -8l44 8l24 -4l120 20h20q11 -16 116 -16h48l36 4q56 -6 56 -12l80 8l28 -8q19 12 72 12h4l40 -12h32l52 16h48l16 -4l4 4l60 -4l100 12l120 -24l44 4l24 -8h4l4 4l32 -8q0 5 22 12v-112z" />
    <glyph glyph-name="O" unicode="O" horiz-adv-x="1368" 
d="M589 1434q36 -9 36 -46q-28 -87 -109 -127l-18 -109v-82l9 -64q-36 -5 -36 -27l9 -10v-9l-18 -63l18 -55l-9 -46l18 -18v-18l-18 -27v-28l18 -27v-36l-9 -10l18 -36l-18 -55v-164l-18 -27v-45q0 -41 136 -201q0 -100 -36 -100q-38 36 -182 64q-204 102 -265 264
q0 40 -45 118q0 22 -64 100l-9 46q36 55 36 82l-9 118q37 81 55 274l27 27l-9 82q37 0 37 46q82 0 82 72l91 64l54 -9q57 36 228 82zM780 1416q164 -30 164 -91q20 -19 100 -19q64 -85 64 -136q68 0 146 -364l9 -10q-36 -69 -36 -218l9 -82q-26 -91 -64 -91
q0 -179 -191 -264q-60 -91 -246 -91q-41 -46 -82 -46l-9 27q0 99 109 155q19 102 46 109l-10 10v18l10 91q-55 164 -55 246q0 50 55 91l9 73l-55 118l36 137l-36 64l9 45v27q0 68 -91 128v9l9 46h27zM1395 1580l-6 2q-19 -12 -72 -12h-4l-40 12h-32l-52 -16h-48l-16 4l-4 -4
l-60 4l-100 -12l-120 24l-44 -4l-24 8h-4l-4 -4l-32 8q0 -9 -68 -24q-15 -16 -32 -20q-29 28 -60 28l-20 -12q-9 13 -60 24l-48 -12l-44 4h-20l-24 -12q-19 12 -36 12q-34 0 -56 -8l-88 12q-6 -16 -12 -16h-36l-4 -4l-52 24h-4l-78 -19v114l18 -3l56 16l28 -4l44 8l24 -12
l4 4h4l16 -4l36 12l12 -12l20 4h40l48 4l8 -8l8 8l40 -4h36l40 20l64 -16l4 4h4l32 -12h44l16 8l16 -8l36 4l4 -4l32 8h12l48 -12l40 8l16 -4l56 12l4 -4h4l28 8l12 -4l28 8l36 -12h64l24 -4l56 8l68 -16l64 8l28 -4l16 4l20 -4l20 12l20 -12q3 0 6 1v-107zM1392 -282
l-11 -4h-12q-21 0 -36 12l-24 -8l-24 12l-20 -12l-4 4h-4l-32 -4q-13 0 -36 16h-32l-16 4l-16 -4l-48 8q-24 -24 -48 -24h-12q-13 0 -28 12h-4q-41 -12 -72 -12l-60 8l-24 -4l-20 4l-4 -4l-112 16l-56 -16l-28 4l-44 -8l-24 12l-4 -4h-4l-16 4l-36 -12l-12 12l-20 -4h-40
l-48 -4l-8 8l-8 -8l-40 4h-36l-40 -20l-64 16l-4 -4h-4l-32 12h-44l-16 -8l-16 8l-36 -4l-4 4l-18 -4v112q17 6 46 12q15 16 32 20q29 -28 60 -28l20 12q9 -13 60 -24l48 12l44 -4h20l24 12q19 -12 36 -12q34 0 56 8l88 -12q6 16 12 16h36l4 4l52 -24h4l112 28l20 -20
q24 0 32 -8h12l20 12l4 -4h8q20 0 20 12h12v-8h12l12 12q44 -4 92 -20h20q28 0 108 28q40 -16 116 -16l40 8q34 -12 72 -12v4l40 -16l7 1v-113z" />
    <glyph glyph-name="P" unicode="P" horiz-adv-x="1349" 
d="M884 1434q81 -21 112 -84q204 -64 204 -222l18 -75l-9 -28l37 -176q0 -62 -223 -214q-207 -102 -334 -102q0 28 -18 28l27 56l-18 37q65 48 102 195v46l-19 158q56 40 56 75q0 87 -158 204v56l28 27l74 -18q25 25 121 37zM58 1425l9 -10h9l56 10l344 -28l55 18h47v-9
l-10 -56q12 -297 38 -297q-19 -21 -19 -111l-9 -9l-10 -28l10 -56l-19 -84l19 -37l-19 -55l28 -47l-9 -9v-47l9 -9q-19 -77 -37 -83l56 -103v-9l-10 -223q22 -18 65 -18l28 -75h-9q-131 -25 -158 -46l-186 46h-93l-65 -37q-167 17 -167 56q0 37 112 46l46 75v37l-28 93v28
l19 74l-56 102v9l28 140l-19 37l19 65l-9 37l9 74h-9l9 9v10l-9 65l9 55l-9 10v9l18 74v102q-37 0 -74 103q-46 9 -65 37zM1368 -255h-3l-124 -20l-60 16l-64 -8l-48 8l-28 -4l-4 4h-4l-16 -4l-12 4l-12 -4l-120 12l-36 -4h-16l-4 -4l-4 4h-40l-48 -12l-56 16l-36 -4h-4
l-56 12l-36 -12h-40l-44 -8l-52 8h-16l-24 -4l-20 4h-8l-4 -4l-4 4h-16l-68 -16q-120 5 -120 20l-16 -8l-4 4h-4q-7 -8 -84 -12q-32 4 -32 32v16l8 12v12l-8 32v8l8 8h28q40 1 40 8l32 -4l76 4l80 -16l56 16l60 -8l4 4h4l32 -12l68 12l28 -8l4 4h4l28 -8l84 16l28 -12h44
q44 6 44 16q36 -4 36 -12q40 4 48 12q84 -4 84 -12l12 8l24 -8h12l12 8h20l44 4l4 -4h4l36 4h32l68 -16q56 4 56 24l24 -8l12 4l24 -8l24 4q41 -5 48 -12h11v-108zM1368 1574l-42 -6l-4 4l-20 -4l-24 4l-60 -8q-31 0 -72 12h-4q-15 -12 -28 -12h-12q-24 0 -48 24l-48 -8
l-16 4l-16 -4h-32q-23 -16 -36 -16l-32 4h-4l-4 -4l-20 12l-24 -12l-24 8q-15 -12 -36 -12h-12l-32 12q-80 0 -156 -12q-37 0 -64 24q0 -16 -56 -20l-24 4l-28 -8q-53 8 -64 16h-4l-4 -4l-88 8q-51 0 -64 -16h-8l-16 12l-24 -8l-4 4h-12q-25 -8 -96 -12l-28 16v4l4 4
q16 6 16 12v4l-12 12l8 28v4q0 8 -12 8v16l16 28q46 0 80 -12q46 0 60 16h20l68 -12h12l44 12q85 -13 100 -24h16q20 0 24 12h4l4 -4h16q0 8 92 20l24 -4h4l4 4q16 -6 16 -12l28 4h28l104 -20l40 16v-4q38 0 72 12l40 -8q76 0 116 16q80 -28 108 -28h20q48 16 92 20l12 -12
h12v8h12q0 -12 20 -12h8l4 4l20 -12h12q8 8 32 8l2 2v-112z" />
    <glyph glyph-name="Q" unicode="Q" horiz-adv-x="1346" 
d="M666 1434v-9l9 9h36q205 -34 205 -98q101 0 152 -135q72 0 72 -62v-81q80 -93 80 -286l-9 -89l9 -9v-9l-18 -45l9 -54q-21 0 -62 -169q-17 0 -45 -54l-134 -134q0 -45 152 -45l98 45v-9l9 -9q0 -86 -71 -134l-27 9q-34 -45 -259 -63h-9l-72 80q-36 -26 -134 -35v107
l18 72q-48 53 -134 53q0 99 107 99h45q18 0 18 -27h26l9 45l-26 205l17 54l-9 9v9q24 29 36 152h-9l9 9q-18 143 -36 161v89l18 72v36l-9 8l9 9v18q0 59 -80 90l-27 107zM406 1425h153q0 -63 -72 -98l-36 -99h9q-27 -42 -27 -161v-18l27 -98l-9 -45l9 -27l-9 -80v-89l45 -81
l-45 -206v-9l27 -62l-9 -36l9 -27l-9 -80v-18q107 0 107 -99v-9l-62 18l-143 -18q-322 236 -322 305q-45 113 -45 250q0 345 89 402q0 27 54 108l-9 80q56 102 206 152zM1368 -267q-19 -4 -30 -4q0 12 -16 12l-24 -4l-32 4l-4 -4l-4 4h-4q-72 0 -156 -16l-44 16l-52 -8
l-32 4l-24 -8h-16q-19 0 -40 12l-36 -4q0 5 -40 16q-21 -5 -32 -20l-16 -4l-28 4l-4 -4l-144 12l-16 -4l-48 12l-44 -4l-32 4l-56 -12l-68 8l-24 -8h-20l-32 8l-12 -8h-8v4l-92 -8l-64 12q-23 -12 -48 -12q-21 11 -41 12v108h73l56 12l64 -8l72 4l84 -12q0 11 60 16l16 -4
h32l32 -12l52 12l12 -4q52 4 52 12l20 -4l16 4q22 -20 76 -20l8 8h4l16 -4l16 8l32 -8l64 12l28 -16l24 8l4 -4h4l40 4l36 -12q24 16 72 16l36 -8q28 0 44 8l44 -4h36l4 4l32 -8l16 4l12 -4l24 12l64 -12h6v-120zM1368 1574l-9 2l-28 -4l-64 8l-68 -16l-56 8l-24 -4h-64
l-36 -12l-28 8l-12 -4l-28 8h-4l-4 -4l-56 12l-16 -4l-40 8l-48 -12h-12l-32 8l-4 -4l-36 4l-16 -8l-16 8h-44l-32 -12h-4l-4 4l-64 -16l-40 20h-36l-40 -4l-8 8l-8 -8l-48 4h-40l-20 4l-12 -12l-36 12l-16 -4h-4l-4 4l-24 -12l-44 8l-28 -4l-56 16l-70 -10v112l18 18
l112 -28h4l52 24l4 -4h36q6 0 12 -16l88 12q22 -8 56 -8q17 0 36 12l24 -12h20l44 4l48 -12q51 11 60 24l20 -12q31 0 60 28q17 -4 32 -20q68 -15 68 -24l32 8l4 -4h4l24 8l44 -4l120 24l100 -12l60 4l4 -4l16 4h48l52 -16h32l40 12h9v-118z" />
    <glyph glyph-name="R" unicode="R" horiz-adv-x="1455" 
d="M452 1434h55q46 0 55 -37l-9 -27l18 -102l-9 -55l19 -27l-10 -10v-46q0 -87 -36 -165v-9q46 -113 46 -184l-19 -74v-101l-37 -110l10 -65l-10 -37q26 0 46 -193l10 -46l64 -46v-46l-18 -18h-120l-64 -19l-56 19v-9l-55 18h-9l-138 -28l-46 10l-28 -19q-110 7 -110 28
q0 129 74 129l73 128q0 65 -55 157v9l18 83l-9 165l9 74l-9 27l28 138l-9 56l9 55l-9 9v9l9 46l-9 37l9 9l-28 28l19 27v10q0 16 -92 64l-19 101l55 19h37l37 -28h9l9 9l74 -18l156 18v-9zM673 1416l82 -19h111q118 0 165 -64q51 0 74 -65q33 0 73 -110h10l-19 -239l9 -9
q-20 -2 -128 -138q-43 0 -129 -92v-19h55q185 0 221 -174l9 -10l-9 -46l9 -46q-16 -19 -28 -128q14 -37 28 -37h9l120 37l27 -56q-119 -174 -211 -174q0 -28 -19 -28l-46 9l-46 -9q-122 3 -257 147l-9 74l9 64l-37 92l18 55q0 184 -73 184q-37 0 -37 129q83 23 83 92l27 147
l-27 129l9 46q0 88 -92 156l-9 92zM1470 1564l-16 -1l-4 4l-28 -4l-16 4q-11 15 -32 20q-40 -11 -40 -16l-36 4q-20 -12 -40 -12h-16l-24 8l-32 -4l-52 8l-44 -16q-83 16 -156 16h-4l-4 -4l-4 4l-32 -4l-24 4q-16 0 -16 -12q-25 0 -96 20l-64 -16h-16l-56 4l-12 -4
q-43 12 -72 12h-20l-32 -8h-12l-72 12l-24 -8h-4l-4 4l-56 -4h-12l-20 4l-4 -4l-32 4l-12 -4l-16 4q-17 -16 -56 -24q-15 11 -52 16v-4l-32 4q-12 0 -12 -8l-36 8q-40 0 -44 68h4q4 52 16 52h4l24 -4l44 12q0 -7 60 -8q20 0 24 12l4 -4l32 4q13 0 28 -16h4v8h4l12 -12h8
q37 28 56 28q41 -20 60 -20l68 8l28 -8h56l76 16h12q15 0 56 -28q32 12 84 12l80 -4l64 12l24 -12l12 4l16 -4l32 8l4 -4h36l44 4q16 -8 44 -8l36 8q48 0 72 -16l36 12l40 -4h4l4 4l24 -8l28 16l64 -12l32 8l16 -8l12 3v-126zM1470 -245l-9 2q-23 -12 -48 -12q-22 12 -44 12
l-124 -20l-60 16l-64 -8l-48 8l-28 -4l-4 4h-4l-16 -4l-12 4l-12 -4l-120 12l-36 -4h-16l-4 -4l-4 4h-40l-48 -12l-56 16l-36 -4h-4l-56 12l-36 -12h-40l-44 -8l-52 8h-16l-24 -4l-20 4h-8l-4 -4l-4 4h-16l-68 -16q-120 5 -120 20l-16 -8l-4 4h-4q-7 -8 -84 -12
q-32 4 -32 32v16l8 12v12l-8 32v8l8 8h28q40 1 40 8l32 -4l76 4l80 -16l56 16l60 -8l4 4h4l32 -12l68 12l28 -8l4 4h4l28 -8l84 16l28 -12h44q44 6 44 16q36 -4 36 -12q40 4 48 12q84 -4 84 -12l12 8l24 -8h12l12 8h20l44 4l4 -4h4l36 4h32l68 -16q56 4 56 24l24 -8l12 4
l24 -8l24 4q41 -5 48 -12h84l25 5v-115z" />
    <glyph glyph-name="S" unicode="S" horiz-adv-x="1113" 
d="M408 1434q90 -18 90 -36v-27q0 -68 -108 -100l-37 -109q52 -136 109 -136q7 -26 191 -72q140 -127 217 -127q0 -16 91 -91v-63q27 0 27 -18l-9 -37q36 -49 36 -163q-21 0 -36 -163q-92 -98 -172 -227q-206 -63 -281 -63h-9q-19 0 -28 54q16 91 82 91q90 0 100 82v81
q-43 172 -227 172q-9 29 -154 73q0 27 -145 81q-49 127 -72 127v46l-73 99l45 91l-27 91l27 9v45q120 191 200 227l9 -10h9q27 0 145 73zM934 1434h9q9 -63 27 -63l-9 -46l9 -54l-27 -100v-9l36 -100v-27q0 -43 -55 -90h-45v90q-108 174 -136 191q-151 74 -172 99v18
q0 73 36 73q177 -25 209 -55h36q0 59 82 73zM54 546h28q36 -10 72 -100v-9l-9 -45q59 -50 100 -191v-9h45l145 -108v-46q0 -27 -100 -27q-5 22 -63 45l-9 -9h-9q-55 22 -55 37q-60 0 -108 -73h-28l-27 45l9 46l-18 18v63l-18 55l18 72v64l-9 36q12 136 36 136zM1129 1574
l-33 -3l-12 4l-12 -4l-16 4h-4l-4 -4l-28 4l-48 -8l-64 8l-60 -16l-124 20q-22 0 -44 -12q-25 0 -48 12l-64 -12l-92 8v-4h-8l-12 8l-32 -8h-20l-24 8l-68 -8l-56 12l-32 -4l-44 4l-48 -12l-16 4l-128 -11v126l4 1h4l8 -8q54 0 76 20l16 -4l20 4q0 -8 52 -12l12 4l52 -12
l32 12h32l16 4q60 -5 60 -16l84 12l72 -4l64 8l56 -12h84q7 7 48 12l24 -4l24 8l12 -4l24 8q0 -20 56 -24l68 16h32l36 -4h4l4 4l44 -4h20l1 -1v-120zM1129 -248q-59 -2 -126 -15l-44 16l-52 -8l-32 4l-24 -8h-16q-19 0 -40 12l-36 -4q0 5 -40 16q-21 -5 -32 -20l-16 -4
l-28 4l-4 -4l-144 12l-16 -4l-48 12l-44 -4l-32 4l-56 -12l-68 8l-24 -8h-20l-32 8l-12 -8h-8v4l-92 -8l-55 10v115l31 7l64 -8l72 4l84 -12q0 11 60 16l16 -4h32l32 -12l52 12l12 -4q52 4 52 12l20 -4l16 4q22 -20 76 -20l8 8h4l16 -4l16 8l32 -8l64 12l28 -16l24 8l4 -4h4
l40 4l36 -12q24 16 72 16l36 -8q28 0 44 8l44 -4h36l4 4l10 -2v-119z" />
    <glyph glyph-name="T" unicode="T" horiz-adv-x="1350" 
d="M85 1434l75 -9l65 9q92 0 103 -122l-93 -56v-18q0 -88 -56 -141q0 -187 -66 -187h-28q-34 0 -56 131l9 10v9l-9 56l9 131l-9 9v10l9 28q-21 0 -37 112q0 28 84 28zM926 1568q-3 -1 -5 -1q-77 4 -84 12h-4l-4 -4l-16 8q0 -15 -120 -20l-68 16h-16l-4 -4l-4 4h-8l-20 -4
l-24 4h-16l-52 -8l-44 8h-40l-36 12l-56 -12h-4l-36 4l-56 -16l-48 12h-40l-4 -4l-4 4h-16l-36 4l-87 -9v120l11 -7h12l24 8l12 -8q0 8 84 12q8 -8 48 -12q0 8 36 12q0 -10 44 -16h44l28 12l84 -16l28 8h4l4 -4l28 8l68 -12l32 12h4l4 -4l60 8l56 -16l80 16l76 -4l32 4
q0 -7 40 -8h2l7 12q46 0 80 -12q46 0 60 16h20l68 -12h12l44 12q85 -13 100 -24h16q20 0 24 12h4l4 -4h16v-120h-4l-24 4l-28 -8q-53 8 -64 16h-4l-4 -4l-88 8q-51 0 -64 -16h-8l-16 12l-24 -8l-4 4h-12q-25 -8 -96 -12zM916 -251h-4l-36 -8q0 8 -12 8l-32 -4v4
q-37 -5 -52 -16q-39 8 -56 24l-16 -4l-12 4l-32 -4l-4 4l-20 -4h-12l-56 4l-4 -4h-4l-24 8l-72 -12h-12l-32 8h-20q-29 0 -72 -12l-12 4l-56 -4h-16l-64 16q-71 -20 -96 -20q0 12 -16 12l-24 -4l-32 4l-4 -4l-4 4h-4q-15 0 -30 -1v119l22 -6l16 4l12 -4l24 12l64 -12l80 4
q52 0 84 -12q41 28 56 28h12l76 -16h56l28 8l68 -8q19 0 60 20q20 0 56 -28h8l12 12h4v-8h4q16 16 28 16l32 -4l4 4q4 -12 24 -12q60 1 60 8l44 -12l24 4h6q7 1 16 1l60 -16h16l72 -8l44 8l24 -4l120 20h20q8 -11 64 -15v-116l-48 15l-84 -24l-112 12q-4 -12 -24 -12h-16
q-21 0 -36 12l-84 -12q-46 0 -54 19zM1030 1425h140q47 -90 47 -197q-28 -49 -28 -131l19 -37l-38 -150h-47q-28 0 -46 103l18 19q0 171 -84 215q0 56 -65 56l-10 9v10l19 37l-9 47zM674 1425l38 -10l47 10q46 0 93 -47l-9 -178l9 -84l-19 -47l28 -168q-21 0 -28 -66l10 -28
l-19 -56v-9l9 -28l-18 -197q22 -29 37 -205l-9 -38l9 -28l-19 -19v-46q10 -30 103 -56l10 -47v-19q-25 0 -47 -47h-28l-56 10q-42 -19 -122 -19l-56 19v-10l-9 10h-19l-75 -19q-45 0 -112 47l-94 -28q0 23 -37 28v18q28 0 28 47q44 0 65 122l10 9v84q0 194 37 215v10
q-18 118 -56 140v9q28 35 28 66v65l-19 150v9q0 65 57 141q0 142 -28 262h9l178 -10q0 25 74 38z" />
    <glyph glyph-name="U" unicode="U" horiz-adv-x="1349" 
d="M555 1434q85 0 90 -100q-99 -56 -99 -190l-27 -100l27 -99l-9 -145l18 -28l-27 -81v-64l18 -244v-55q28 -199 99 -199q28 0 28 -18v-64q0 -18 -28 -18l-45 9l-118 -36q-135 105 -253 118l-82 81l-27 164l9 9v9l-9 27l18 190q-30 0 -36 118v27l27 245l-36 136v36
q0 47 27 82v36q-94 21 -118 54q0 37 45 37l9 45h64l100 9q27 -18 145 -27zM1044 1434q94 0 136 -54q64 0 64 -28q-145 -176 -145 -262l9 -9v-10l-37 -81l37 -136l-37 -209q28 -45 37 -126l-27 -164h9l-37 -72l9 -9v-9q-81 -227 -163 -227l-136 9v91q50 0 173 91v54
q81 61 81 145l-36 172q0 290 36 290l-9 64v54l-18 27l18 36q-15 19 -27 155q-36 0 -36 18l9 36q-109 32 -109 45l-9 27q0 37 136 55zM1364 -263l-33 -3l-8 8l-8 -8l-40 4h-36l-40 -20l-64 16l-4 -4h-4l-32 12h-44l-16 -8l-16 8l-36 -4l-4 4l-32 -8h-12l-48 12l-40 -8l-16 4
l-56 -12l-4 4h-4l-28 -8l-12 4l-28 -8l-36 12h-64l-24 4l-56 -8l-68 16l-64 -8l-28 4l-16 -4l-20 4l-20 -12l-20 12q-46 -4 -60 -16l-60 8l-36 -8l-12 12h-12l-12 -12l-16 4l-24 -4l-52 12v-4l-16 5v116q22 -1 52 -1h48l36 4q56 -6 56 -12l80 8l28 -8q19 12 72 12h4l40 -12
h32l52 16h48l16 -4l4 4l60 -4l100 12l120 -24l44 4l24 -8h4l4 4l32 -8q0 9 68 24q15 16 32 20q29 -28 60 -28l20 12q9 -13 60 -24l48 12l44 -4h20l24 12q19 -12 36 -12h13v-113zM1368 1575h-5l-40 -4l-8 8l-8 -8l-48 4h-40l-20 4l-12 -12l-36 12l-16 -4h-4l-4 4l-24 -12
l-44 8l-28 -4l-56 16l-112 -16l-4 4l-20 -4l-24 4l-60 -8q-31 0 -72 12h-4q-15 -12 -28 -12h-12q-24 0 -48 24l-48 -8l-16 4l-16 -4h-32q-23 -16 -36 -16l-32 4h-4l-4 -4l-20 12l-24 -12l-24 8q-15 -12 -36 -12h-12l-32 12q-80 0 -156 -12q-37 0 -64 24q0 -15 -52 -20v120
q0 8 92 20l24 -4h4l4 4q16 -6 16 -12l28 4h28l104 -20l40 16v-4q38 0 72 12l40 -8q76 0 116 16q80 -28 108 -28h20q48 16 92 20l12 -12h12v8h12q0 -12 20 -12h8l4 4l20 -12h12q8 8 32 8l20 20l112 -28h4l52 24l4 -4h36q6 0 12 -16l88 12q22 -8 56 -8q17 0 36 12l24 -12h21
v-112z" />
    <glyph glyph-name="V" unicode="V" horiz-adv-x="1322" 
d="M316 1434q344 -25 344 -46v-56l-65 -65v-37l18 -19l-9 -65q7 -130 37 -130l-9 -47v-18l28 -84q46 0 121 -260l-10 -84q19 0 19 -93l37 -46q-28 -45 -28 -121v-65q-77 -176 -111 -176l-130 -19q-92 9 -121 37l9 56q0 92 -65 149l9 9v18q-102 365 -167 484l19 28
q-19 139 -93 288v93q0 85 -130 139l-19 56q22 55 37 55h9l75 -18h46l65 18l56 -9zM1096 1434h38q83 0 83 -46q0 -103 -83 -103l-121 -139q0 -180 -65 -251l-9 -84q0 -46 18 -46q-46 -99 -74 -242h-10l-27 19l37 56q-37 67 -47 167l10 56l-10 28q0 76 65 158l19 130v46
q0 80 -84 130l-46 65l9 28zM1343 -270q-4 0 -9 -1l-28 8l-24 -4q-56 4 -56 20q-27 -24 -64 -24q-76 12 -156 12l-32 -12h-12q-21 0 -36 12l-24 -8l-24 12l-20 -12l-4 4h-4l-32 -4q-13 0 -36 16h-32l-16 4l-16 -4l-48 8q-24 -24 -48 -24h-12q-13 0 -28 12h-4q-41 -12 -72 -12
l-60 8l-24 -4l-20 4l-4 -4l-112 16l-56 -16l-28 4l-44 -8l-24 12l-4 -4h-4l-16 4l-36 -12l-12 12l-20 -4h-40l-15 -1v113q25 2 43 8l88 -12q6 16 12 16h36l4 4l52 -24h4l112 28l20 -20q24 0 32 -8h12l20 12l4 -4h8q20 0 20 12h12v-8h12l12 12q44 -4 92 -20h20q28 0 108 28
q40 -16 116 -16l40 8q34 -12 72 -12v4l40 -16l104 20h28l28 -4q0 6 16 12l4 -4h4l24 4q92 -12 92 -20h16l4 4h4q4 -12 24 -12h16l1 1v-116zM1343 1589l-17 5l-64 -20v4l-52 -12l-24 4l-16 -4l-12 12h-12l-12 -12l-36 8l-60 -8q-14 12 -60 16l-20 -12l-20 12l-20 -4l-16 4
l-28 -4l-64 8l-68 -16l-56 8l-24 -4h-64l-36 -12l-28 8l-12 -4l-28 8h-4l-4 -4l-56 12l-16 -4l-40 8l-48 -12h-12l-32 8l-4 -4l-36 4l-16 -8l-16 8h-44l-32 -12h-4l-4 4l-64 -16l-40 20h-31v112l43 4l48 -12q51 11 60 24l20 -12q31 0 60 28q17 -4 32 -20q68 -15 68 -24l32 8
l4 -4h4l24 8l44 -4l120 24l100 -12l60 4l4 -4l16 4h48l52 -16h32l40 12h4q53 0 72 -12l28 8l80 -8q0 6 56 12l36 -4h48q105 0 116 16h1v-121z" />
    <glyph glyph-name="W" unicode="W" horiz-adv-x="1791" 
d="M952 1435q120 0 120 -111q27 0 74 -167q37 -19 37 -46h9l-18 -111q0 -90 83 -231l-9 -28l27 -56l-9 -46l28 -129h-9l9 -10v-9l-9 -102l18 -83q0 -164 -129 -259q0 -24 -47 -46q-157 48 -157 65q-9 69 -74 222l9 37l-18 55v19l18 27q-27 0 -37 84q-34 0 -101 203l18 56
l-18 27l-10 167l10 65l-10 37q28 0 28 129q19 0 19 56q27 0 27 92l10 28q37 0 46 55zM366 1566q-14 -8 -45 -8l-84 12q-15 -12 -36 -12h-16q-20 0 -24 12l-112 -12l-67 19v121h19l120 -20l24 4l44 -8l72 8h16l60 16q11 0 21 -2q12 5 30 5l60 -16h16l72 -8l44 8l24 -4l120 20
h20q11 -16 116 -16h48l36 4q56 -6 56 -12l80 8l28 -8q19 12 72 12h4l40 -12h32l52 16h48l16 -4l4 4l60 -4l100 12l120 -24l44 4l24 -8h4l4 4l32 -8q0 7 45 19v-119h-1l-4 4l-32 -8h-12l-48 12l-40 -8l-16 4l-56 -12l-4 4h-4l-28 -8l-12 4l-28 -8l-36 12h-64l-24 4l-56 -8
l-68 16l-64 -8l-28 4l-16 -4l-20 4l-20 -12l-20 12q-46 -4 -60 -16l-60 8l-36 -8l-12 12h-12l-12 -12l-16 4l-24 -4l-52 12v-4l-64 20l-84 -24l-112 12q-4 -12 -24 -12h-16q-21 0 -36 12l-84 -12q-25 0 -38 5zM385 -264v-3l-28 -16q-71 4 -96 12h-12l-4 -4l-24 8l-16 -12h-8
q-13 16 -64 16l-88 -8l-4 4h-4q-10 -7 -55 -15v116q17 10 99 23l44 -12h12l68 12h20q15 -16 60 -16q34 12 80 12l3 -5q7 4 16 4l36 8q0 -8 12 -8l32 4v-4q37 5 52 16q39 -8 56 -24l16 4l12 -4l32 4l4 -4l20 4h12l56 -4l4 4h4l24 -8l72 12h12l32 -8h20q29 0 72 12l12 -4l56 4
h16l64 -16q71 20 96 20q0 -12 16 -12l24 4l32 -4l4 4l4 -4h4q73 0 156 16l44 -16l52 8l32 -4l24 8h16q20 0 40 -12l36 4q0 -5 40 -16q21 5 32 20l16 4l28 -4l1 1v-124l-9 -5l-32 8l-64 -12l-28 16l-24 -8l-4 4h-4l-40 -4l-36 12q-24 -16 -72 -16l-36 8q-28 0 -44 -8l-44 4
h-36l-4 -4l-32 8l-16 -4l-12 4l-24 -12l-64 12l-80 -4q-52 0 -84 12q-41 -28 -56 -28h-12l-76 16h-56l-28 -8l-68 8q-19 0 -60 -20q-19 0 -56 28h-8l-12 -12h-4v8h-4q-15 -16 -28 -16l-32 4l-4 -4q-4 12 -24 12q-60 -1 -60 -8l-44 12h-3zM230 1416h111l194 -37q50 37 84 37
l37 -65v-27q-37 0 -74 -111v-19l37 -148q27 0 27 -28l-9 -9v-9l28 -93l-9 -27l55 -250l9 -9q0 -45 37 -84v-9l-46 -185v-74q-74 -90 -74 -250q-240 18 -240 84l-28 55l18 74q0 49 -83 102l-18 129l9 74l-19 28v102h-18v55q0 38 -65 102q0 46 -28 46v28q-27 173 -74 315v74
q-1 17 -92 55v9q18 50 46 56l102 -9h9zM1636 1425q37 -9 37 -55v-9q-39 -45 -139 -84q0 -72 -92 -249v-47h-19v-74l-27 -92h9q-24 -84 -56 -111q-18 0 -27 92q-15 0 -47 65v37q74 129 74 194l-9 37l65 56v18q0 89 -148 130l-9 9v28q0 23 83 37l46 -19l37 19l65 -19
q111 10 157 37z" />
    <glyph glyph-name="X" unicode="X" horiz-adv-x="1355" 
d="M294 1434l9 -9h10l64 9l148 -55l46 27l9 -9h65l9 -46q-37 -39 -37 -92v-37l9 -9v-10l-9 -9q46 0 102 -194l-10 -37l120 -138q46 -191 129 -314q0 -40 56 -55l83 -175q18 -97 129 -157l-65 -92l-73 18h-28l-65 -46l-138 37h-18q-34 -28 -65 -28l-55 9v-9q-176 38 -176 83
q65 43 65 139q-18 0 -46 101q-66 21 -129 175q-13 93 -47 139l-83 138q-99 269 -129 295q-25 0 -55 65v9l9 83q0 41 -101 65q0 46 -28 46q18 51 46 74q36 -19 102 -19h18zM866 1425h9l74 -19l37 10l148 -19v9l37 -27v-28q0 -74 -83 -74q-22 -30 -83 -46q-60 -164 -176 -249
q-46 24 -46 74l19 18v111q27 0 27 18v74q-55 36 -55 74q0 74 92 74zM359 475q37 -39 37 -93q-102 -135 -102 -203q43 0 65 -55q42 0 74 -55q-19 -58 -47 -65h-18q-21 18 -120 37l-92 -19l-74 10v-10q-38 13 -55 47v9q13 30 166 138q80 197 129 259h18l10 9zM1368 -272
q-2 -2 -2 -4q-36 4 -36 12q-40 -4 -48 -12q-84 4 -84 12l-12 -8l-24 8h-12l-12 -8h-20l-44 -4l-4 4h-4l-36 -4h-32l-68 16q-56 -4 -56 -24l-24 8l-12 -4l-24 8l-24 -4q-41 5 -48 12h-84l-56 -12l-64 8l-72 -4l-84 12q0 -11 -60 -16l-16 4h-32l-32 12l-52 -12l-12 4
q-52 -4 -52 -12l-20 4l-16 -4q-22 20 -76 20l-8 -8h-4l-16 4l-7 -3v124l3 3l144 -12l16 4l48 -12l44 4l32 -4l56 12l68 -8l24 8h20l32 -8l12 8h8v-4l92 8l64 -12q23 12 48 12q22 -12 44 -12l124 20l60 -16l64 8l48 -8l28 4l4 -4h4l16 4l12 -4l12 4l120 -12l36 4h16l4 4l4 -4
h40l42 11v-127zM1368 1565l-22 -8h-12q-21 0 -36 12l-24 -8l-24 12l-20 -12l-4 4h-4l-32 -4q-13 0 -36 16h-32l-16 4l-16 -4l-48 8q-24 -24 -48 -24h-12q-13 0 -28 12h-4q-41 -12 -72 -12l-60 8l-24 -4l-20 4l-4 -4l-112 16l-56 -16l-28 4l-44 -8l-24 12l-4 -4h-4l-16 4
l-36 -12l-12 12l-20 -4h-40l-48 -4l-8 8l-8 -8l-40 4h-36l-40 -20l-64 16l-4 -4h-4l-32 12h-44l-16 -8l-16 8l-35 -4v119q10 2 23 5q15 16 32 20q29 -28 60 -28l20 12q9 -13 60 -24l48 12l44 -4h20l24 12q19 -12 36 -12q34 0 56 8l88 -12q6 16 12 16h36l4 4l52 -24h4l112 28
l20 -20q24 0 32 -8h12l20 12l4 -4h8q20 0 20 12h12v-8h12l12 12q44 -4 92 -20h20q28 0 108 28q40 -16 116 -16l40 8q34 -12 72 -12v4l40 -16l18 3v-111z" />
    <glyph glyph-name="Y" unicode="Y" horiz-adv-x="1349" 
d="M1017 1434l74 -18l128 9l18 -55q0 -66 -73 -83v9q-128 -90 -128 -174q-74 -147 -111 -266q-25 0 -45 -73h-19v9l9 92q-27 9 -27 55l101 257q0 88 -119 137l-10 9v9q0 50 37 65h73q92 0 92 18zM734 -258l-6 -6h-28q-40 -1 -40 -8l-32 4l-76 -4l-80 16l-56 -16l-60 8l-4 -4
h-4l-32 12l-68 -12l-28 8l-4 -4h-4l-28 8l-84 -16l-28 12h-44q-35 -5 -42 -12v127l6 1l56 -16l36 4h4l56 -12l36 12h40l44 8l52 -8h16l24 4l20 -4h8l4 4l4 -4h16l68 16q120 -5 120 -20l16 8l4 -4h4q7 8 84 12q7 -1 13 -3q8 7 23 9q77 -4 84 -12h4l4 4l16 -8q0 15 120 20
l68 -16h16l4 4l4 -4h8l20 4l24 -4h16l52 8l44 -8h40l36 -12l56 12h4l16 -2l1 -102h-5l-28 -12l-84 16l-28 -8h-4l-4 4l-28 -8l-68 12l-32 -12h-4l-4 4l-60 -8l-56 16l-80 -16l-76 4l-32 -4q0 7 -40 8h-10zM735 1572l-27 -15q-71 4 -96 12h-12l-4 -4l-24 8l-16 -12h-8
q-13 16 -64 16l-88 -8l-4 4h-4q-11 -8 -64 -16l-28 8l-24 -4q-56 4 -56 20q-27 -24 -64 -24q-76 12 -156 12l-10 -4v111l86 17h28l28 -4q0 6 16 12l4 -4h4l24 4q92 -12 92 -20h16l4 4h4q4 -12 24 -12h16q15 11 100 24l44 -12h12l68 12h20q15 -16 60 -16q34 12 80 12l3 -5
q2 2 5 2h4l24 -4l44 12q0 -7 60 -8q20 0 24 12l4 -4l32 4q13 0 28 -16h4v8h4l12 -12h8q37 28 56 28q41 -20 60 -20l68 8l28 -8h56l76 16h12q13 0 43 -20l1 -118l-32 2l-12 -4q-43 12 -72 12h-20l-32 -8h-12l-72 12l-24 -8h-4l-4 4l-56 -4h-12l-20 4l-4 -4l-32 4l-12 -4
l-16 4q-17 -16 -56 -24q-15 11 -52 16v-4l-32 4q-12 0 -12 -8l-36 8q-7 0 -13 2zM247 1425l46 -19l311 19l37 -9v-10l-9 -36l18 -55q-46 -12 -46 -28q0 -79 83 -302q50 -120 110 -211q6 -92 18 -92l-9 -9q0 -138 55 -285q-36 -54 -46 -156q25 -66 120 -101
q-36 -110 -55 -110l-221 28l-128 -46l-128 55l-101 -9h-9l-19 18v9l46 83l9 -9h28q36 18 36 55l-18 128l28 110q-10 37 -37 37v18q46 0 46 28v55q-32 64 -83 64v46q-73 65 -73 183q-12 0 -74 184q-30 27 -137 248q-46 10 -46 73l9 9h9l110 -18z" />
    <glyph glyph-name="Z" unicode="Z" horiz-adv-x="1144" 
d="M111 1434l111 -37h56l157 -9v-10q0 -111 -102 -111l-120 -101q0 -83 -111 -148l-19 -47q-64 16 -64 28l18 37l-9 65l18 55l-9 10v9l28 65v9q-37 60 -37 92v47q25 46 83 46zM601 1406q61 -28 130 -28l111 28q157 -6 157 -37q-14 -111 -46 -111l9 -65q-74 -206 -129 -249
l-28 -121v-64q-111 -84 -111 -185q-94 -134 -148 -343q-31 -3 -74 -166v-46l-46 -10l-259 37h-84l-37 -9q-46 0 -46 93l19 46h-10q0 18 93 92l74 176l-9 46l203 407q0 98 102 250l-9 9v10q18 21 37 175zM944 453h18l37 -27l-18 -139l46 -241l-19 -18l-74 9l-37 -28l-83 10
l-83 -19q-204 15 -204 37q25 111 84 111l138 46q28 0 28 47q79 0 111 175q9 37 56 37zM1171 1578l-44 -5l-56 12l-32 -4l-44 4l-48 -12l-16 4l-144 -12l-4 4l-28 -4l-16 4q-11 15 -32 20q-40 -11 -40 -16l-36 4q-20 -12 -40 -12h-16l-24 8l-32 -4l-52 8l-44 -16
q-83 16 -156 16h-4l-4 -4l-4 4l-32 -4l-24 4q-16 0 -16 -12q-25 0 -96 20l-64 -16h-16l-24 2l-1 118q6 -3 13 -8q32 12 84 12l80 -4l64 12l24 -12l12 4l16 -4l32 8l4 -4h36l44 4q16 -8 44 -8l36 8q48 0 72 -16l36 12l40 -4h4l4 4l24 -8l28 16l64 -12l32 8l16 -8l16 4h4l8 -8
q54 0 76 20l16 -4l20 4q0 -8 52 -12l12 4l52 -12l32 12h32l16 4q29 -2 44 -6v-117zM1163 -263h-32l-16 -4q-60 5 -60 16l-84 -12l-72 4l-64 -8l-56 12h-84q-7 -7 -48 -12l-24 4l-24 -8l-12 4l-24 -8q0 20 -56 24l-68 -16h-32l-36 4h-4l-4 -4l-44 4h-20l-12 8h-12l-24 -8
l-12 8q0 -8 -84 -12q-8 8 -48 12q0 -8 -36 -12q0 10 -44 16h-39l-1 102l20 -2l56 16l48 -12h40l4 4l4 -4h16l36 -4l120 12l12 -4l12 4l16 -4h4l4 4l28 -4l48 8l64 -8l60 16l124 -20q22 0 44 12q25 0 48 -12l64 12l92 -8v4h8l12 -8l32 8h20l24 -8l68 8l51 -11l-1 -112z" />
    <glyph glyph-name="bracketleft" unicode="[" horiz-adv-x="236" 
d="M121 1688q21 2 21 7l32 -4l91 1h1v-127q-45 6 -45 15l-31 -5l-4 4h-4q-5 -6 -46 -9q5 -30 15 -43q-8 -39 -24 -56l4 -16l-4 -12l4 -32l-4 -4l4 -20v-12l-4 -56l4 -4v-4l-8 -24l12 -72v-12l-8 -32v-20q0 -29 12 -72l-4 -12l4 -56v-16l-16 -64q20 -71 20 -96q-12 0 -12 -16
l4 -24l-4 -32l4 -4l-4 -4v-4q0 -72 16 -156l-16 -44l8 -52l-4 -32l8 -24v-16q0 -19 -12 -40l4 -36q-5 0 -16 -40q5 -21 20 -32l4 -16l-4 -28l4 -4l-12 -144l4 -16l-12 -48l4 -44l-4 -32l12 -56l-4 -34l30 -6l71 13l34 -5l-2 -111l-4 -4l-4 4h-16l-83 -13q-47 2 -75 5v10
l-70 4l11 77q-11 0 -16 60l4 16v32l12 32l-12 52l4 12q-4 52 -12 52l4 20l-4 16q20 22 20 76l-8 8v4l4 16l-8 16l8 32l-12 64l16 28l-8 24l4 4v4l-4 40l12 36q-16 24 -16 72l8 36q0 28 -8 44l4 44v36l-4 4l8 32l-4 16l4 12l-12 24l12 64l-4 80q0 52 12 84q-28 41 -28 56v12
l16 76v56l-8 28l8 68q0 19 -20 60q0 20 28 56v8l-12 12v4h8v4q-16 16 -16 28l4 32l-4 4q12 4 12 24q-1 60 -8 60l12 44l-4 24v4q0 12 52 16v4q37 -2 54 -15z" />
    <glyph glyph-name="backslash" unicode="\" horiz-adv-x="611" 
d="M164 1501q29 -5 48 -56l-9 -37l29 -147l-10 -46q26 0 48 -138q41 -3 58 -175h-10l10 -10v-54l-10 -38q32 -25 68 -211q48 -59 48 -157l-10 -46q96 -90 96 -193l-9 -10v-10q24 -119 38 -119l20 -18l-10 -38l19 -54q-77 -3 -77 -28q-55 9 -96 74l19 101l-67 129
q-58 161 -77 276q-32 0 -58 93l19 36q0 46 -19 46l10 10v9q0 30 -77 129q0 90 -29 184l9 84q0 52 -48 137h10l-58 148l10 46q-48 16 -48 55zM626 -264l-11 -1q-12 0 -28 16h-4v-8h-4l-12 12h-8q-36 -28 -56 -28q-41 20 -60 20l-68 -8l-28 8h-56l-76 -16h-12q-15 0 -56 28
q-32 -12 -84 -12l-80 4l-34 -6v119q10 2 10 11q25 0 96 -20l64 16h16l56 -4l12 4q43 -12 72 -12h20l32 8h12l72 -12l24 8h4l4 -4l56 4h12l20 -4l4 4l32 -4l12 4l16 -4q11 10 31 17v-140zM626 1558q-16 1 -20 12l-112 -12l-84 24l-64 -20v4l-52 -12l-24 4l-16 -4l-12 12h-12
l-12 -12l-36 8l-60 -8q-14 12 -60 16l-20 -12l-20 12l-20 -4l-16 4l-28 -4l-9 1v108l37 11h4q53 0 72 -12l28 8l80 -8q0 6 56 12l36 -4h48q105 0 116 16h20l120 -20l24 4l36 -7v-117z" />
    <glyph glyph-name="bracketright" unicode="]" horiz-adv-x="266" 
d="M101 1703v-4q52 -4 52 -16v-4l-4 -24l12 -44q-7 0 -8 -60q0 -20 12 -24l-4 -4l4 -32q0 -12 -16 -28v-4h8v-4l-12 -12v-8q28 -36 28 -56q-20 -41 -20 -60l8 -68l-8 -28v-56l16 -76v-12q0 -15 -28 -56q12 -32 12 -84l-4 -80l12 -64l-12 -24l4 -12l-4 -16l8 -32l-4 -4v-36
l4 -44q-8 -16 -8 -44l8 -36q0 -48 -16 -72l12 -36l-4 -40v-4l4 -4l-8 -24l16 -28l-12 -64l8 -32l-8 -16l4 -16v-4l-8 -8q0 -54 20 -76l-4 -16l4 -20q-8 0 -12 -52l4 -12l-12 -52l12 -32v-32l4 -16q-5 -60 -16 -60l11 -77l-70 -4v-10q-28 -3 -75 -5l-68 16h-16l-4 -4l-4 4
l-2 111l34 5l56 -16l30 6l-4 34l12 56l-4 32l4 44l-12 48l4 16l-12 144l4 4l-4 28l4 16q15 11 20 32q-11 40 -16 40l4 36q-12 21 -12 40v16l8 24l-4 32l8 52l-16 44q16 84 16 156v4l-4 4l4 4l-4 32l4 24q0 16 -12 16q0 25 20 96l-16 64v16l4 56l-4 12q12 43 12 72v20l-8 32
v12l12 72l-8 24v4l4 4l-4 56v12l4 20l-4 4l4 32l-4 12l4 16q-16 17 -24 56q10 13 15 43q-41 3 -46 9h-4l-4 -4l-16 8q0 -9 -45 -15v127h1l76 -4l32 4q0 -5 21 -7q17 13 54 15z" />
    <glyph glyph-name="underscore" unicode="_" horiz-adv-x="971" 
d="M401 315q48 -11 64 -36l63 9h54l81 -9l27 18l9 -9h9l72 18l37 -9l72 9l9 -9l-9 -63v-109l-27 -27l9 -72l-9 -9h-64l-126 9l-27 -18l-108 18q-75 -36 -172 -36l-81 9l-9 -9h-9q-41 18 -117 18h-154l-18 18v9l9 45q-20 0 -27 82h-9q0 117 72 117l72 9h37l117 -45
q106 63 153 63v9zM995 1568l-8 -2l-48 12h-40l-4 -4l-4 4h-16l-36 4l-120 -12l-12 4l-12 -4l-16 4h-4l-4 -4l-28 4l-48 -8l-64 8l-60 -16l-124 20q-22 0 -44 -12q-25 0 -48 12l-64 -12l-92 8v-4h-8l-12 8l-32 -8h-20l-24 8l-24 -3v117q16 -4 16 -10l84 12l72 -4l64 8l56 -12
h84q7 7 48 12l24 -4l24 8l12 -4l24 8q0 -20 56 -24l68 16h32l36 -4h4l4 4l44 -4h20l12 -8h12l24 8l12 -8q0 8 84 12q8 -8 48 -12q0 8 36 12q0 -6 16 -11v-119zM995 -261q-11 -1 -24 -1l-80 4l-64 -12l-24 12l-12 -4l-16 4l-32 -8l-4 4h-36l-44 -4q-16 8 -44 8l-36 -8
q-48 0 -72 16l-36 -12l-40 4h-4l-4 -4l-24 8l-28 -16l-64 12l-32 -8l-16 8l-16 -4h-4l-8 8q-54 0 -76 -20l-16 4l-20 -4q0 8 -52 12l-12 -4l-52 12l-30 -11l1 112l5 -1l32 4l44 -4l48 12l16 -4l144 12l4 -4l28 4l16 -4q11 -15 32 -20q40 11 40 16l36 -4q21 12 40 12h16
l24 -8l32 4l52 -8l44 16q84 -16 156 -16h4l4 4l4 -4l32 4l24 -4q16 0 16 12q25 0 96 -20l32 8v-115z" />
    <glyph glyph-name="a" unicode="a" 
d="M887 1431l9 -9l19 -18h9l-18 -74l37 -102l37 -37v-194q27 -25 73 -222l37 -37l-9 -9v-37l9 -37l-9 -37l56 -166h-10l28 -46l-28 -47q32 0 56 -111l-9 -64q0 -28 83 -56l27 -74l-37 -27h-9l-27 18h-19l-120 -37h-9l-37 9l-37 -9h-19l-46 28l-194 -28q-48 0 -74 46v10
q56 34 56 120l-19 64l9 10l-18 83l9 9v37h-83l-74 -18q-24 18 -92 18l-10 9v84q0 18 56 27l37 -37h64l47 10l-28 157l9 55q-28 0 -65 203l10 28l-83 296l9 27l-9 84q7 55 55 55l46 -9zM444 1117h9l9 -28l-9 -27l9 -93q0 -121 -55 -194q0 -116 -74 -259l9 -27l-9 -65l9 -65
l-28 -9l9 -55l-27 -74v-9q0 -81 120 -93h18v-9q0 -111 -64 -111h-111q-31 0 -65 28l-129 -28q-36 0 -65 102v18q111 0 111 102q85 85 157 295l-9 28l101 342l19 19l-9 27q0 113 74 185zM1419 1578q-23 7 -23 12l-32 -8l-4 4h-4l-24 -8l-44 4l-120 -24l-100 12l-60 -4l-4 4
l-16 -4h-48l-52 16h-32l-40 -12h-4q-53 0 -72 12l-28 -8l-80 8q0 -6 -56 -12l-36 4h-48q-105 0 -116 -16h-20l-120 20l-24 -4l-44 8l-72 -8h-16l-60 -16q-44 0 -56 32q20 30 20 64l-4 16q0 28 56 28l84 -12q15 12 36 12h16q20 0 24 -12l112 12l84 -24l64 20v-4l52 12l24 -4
l16 4l12 -12h12l12 12l36 -8l60 8q14 -12 60 -16l20 12l20 -12l20 4l16 -4l28 4l64 -8l68 16l56 -8l24 4h64l36 12l28 -8l12 4l28 -8h4l4 4l56 -12l16 4l40 -8l48 12h12l15 -4v-112zM1419 -260l-14 4l-112 -16l-4 4l-20 -4l-24 4l-60 -8q-31 0 -72 12h-4q-15 -12 -28 -12
h-12q-24 0 -48 24l-48 -8l-16 4l-16 -4h-32q-23 -16 -36 -16l-32 4h-4l-4 -4l-20 12l-24 -12l-24 8q-15 -12 -36 -12h-12l-32 12q-80 0 -156 -12q-37 0 -64 24q0 -16 -56 -20l-24 4l-28 -8q-53 8 -64 16h-4l-4 -4l-88 8q-51 0 -64 -16h-8l-16 12l-24 -8l-4 4h-12
q-25 -8 -96 -12l-28 16v4l4 4q16 6 16 12v4l-12 12l8 28v4q0 8 -12 8v16l16 28q46 0 80 -12q46 0 60 16h20l68 -12h12l44 12q85 -13 100 -24h16q20 0 24 12h4l4 -4h16q0 8 92 20l24 -4h4l4 4q16 -6 16 -12l28 4h28l104 -20l40 16v-4q38 0 72 12l40 -8q76 0 116 16
q80 -28 108 -28h20q48 16 92 20l12 -12h12v8h12q0 -12 20 -12h8l4 4l20 -12h12q8 8 32 8l20 20l66 -17v-107z" />
    <glyph glyph-name="b" unicode="b" 
d="M233 1434l101 -18l55 9q47 -37 166 -37v-9l-28 -129v-9q18 -18 18 -74l19 -18l-19 -340l28 -92v-83l18 -92q-46 -170 -46 -257v-18l37 -46v-28q0 -107 -46 -138l-46 9h-9l-37 -27q-19 18 -101 18l-27 28l-28 -19l-18 19h-46l-101 -55q-10 -28 -56 -28h-9q-18 0 -55 110
v19q0 15 74 46h9l9 -10l28 10v82l-10 56q19 13 28 193l-28 128l10 46v55l-19 74l19 64v9l-10 111l10 92l-10 55l10 27l-10 56l10 46q0 36 -92 36q-28 34 -28 65l55 46h9l28 -19h28q110 23 110 37zM665 1425l147 -9l64 9q231 -55 285 -166q74 -135 74 -211q0 -172 -294 -285
v-9q156 -19 156 -55q35 -84 129 -120l18 -119v-83l9 -64q-22 0 -55 -120h-18v-9l9 -28q-182 -119 -276 -119h-28q-18 0 -18 27h-92l-83 -9q-36 9 -36 55v28q0 18 92 46l46 119h-10l10 10v46l18 156q0 95 -147 193l-37 73l9 28h19q128 0 147 129v64q-28 34 -28 129l9 92
q-42 73 -119 73q-28 0 -28 19l19 36l-10 65l10 9h9zM1425 1569l-57 11l-40 -16v4q-38 0 -72 -12l-40 8q-76 0 -116 -16q-80 28 -108 28h-20q-48 -16 -92 -20l-12 12h-12v-8h-12q0 12 -20 12h-8l-4 -4l-20 12h-12q-8 -8 -32 -8l-20 -20l-112 28h-4l-52 -24l-4 4h-36
q-6 0 -12 16l-88 -12q-22 8 -56 8q-17 0 -36 -12l-24 12h-20l-44 -4l-48 12q-51 -11 -60 -24l-20 12q-31 0 -60 -28q-17 4 -32 20q-28 6 -45 12v112l17 -4l4 4l36 -4l16 8l16 -8h44l32 12h4l4 -4l64 16l40 -20h36l40 4l8 -8l8 8l48 -4h40l20 -4l12 12l36 -12l16 4h4l4 -4
l24 12l44 -8l28 4l56 -16l112 16l4 -4l20 4l24 -4l60 8q31 0 72 -12h4q15 12 28 12h12q24 0 48 -24l48 8l16 -4l16 4h32q23 16 36 16l32 -4h4l4 4l20 -12l24 12l24 -8q15 12 36 12h12l32 -12h29v-115zM1422 -283l-21 -3q-14 12 -60 16l-20 -12l-20 12l-20 -4l-16 4l-28 -4
l-64 8l-68 -16l-56 8l-24 -4h-64l-36 -12l-28 8l-12 -4l-28 8h-4l-4 -4l-56 12l-16 -4l-40 8l-48 -12h-12l-32 8l-4 -4l-36 4l-16 -8l-16 8h-44l-32 -12h-4l-4 4l-64 -16l-40 20h-36l-40 -4l-8 8l-8 -8l-48 4h-40l-20 4l-12 -12l-36 12l-16 -4h-4l-4 4l-24 -12l-44 8l-28 -4
l-42 12v107l46 -11h4l52 24l4 -4h36q6 0 12 -16l88 12q22 -8 56 -8q17 0 36 12l24 -12h20l44 4l48 -12q51 11 60 24l20 -12q31 0 60 28q17 -4 32 -20q68 -15 68 -24l32 8l4 -4h4l24 8l44 -4l120 24l100 -12l60 4l4 -4l16 4h48l52 -16h32l40 12h4q53 0 72 -12l28 8l53 -5
v-120z" />
    <glyph glyph-name="c" unicode="c" horiz-adv-x="1253" 
d="M569 1434l27 -9v-81q0 -62 -91 -72l9 -9l-27 -46l9 -63l-18 -18v-63l9 -9l-9 -9v-9l18 -72v-27q-54 -129 -54 -181l54 -162l-18 -54v-64l27 -126l-27 -81v-36q0 -48 127 -154l-18 -63h-9q-47 0 -82 27h-18l-81 -9q-43 7 -72 45l-190 100l18 45q-63 14 -63 45l9 9v9
l-90 225q18 40 18 145l-27 144q0 191 108 244l9 9v9l-27 45q23 46 81 81q15 66 208 181q0 21 190 54zM767 1425q0 -24 136 -72q63 0 117 63h18q45 -23 45 -81q0 -45 -18 -45q18 -22 27 -145l-9 -153l27 -72q-26 -64 -81 -64q0 24 -45 36l-72 244q-23 0 -73 63q-45 7 -45 27
l9 37q-45 33 -135 45q0 99 54 99q0 18 45 18zM1083 423l9 -9q-11 -140 -54 -207q-63 0 -63 -73l-136 -45v9l-99 -99h-54q-36 15 -36 63v36q0 16 234 118q100 207 199 207zM1271 -263l-16 -5l-12 4l-24 -8q0 20 -56 24l-68 -16h-32l-36 4h-4l-4 -4l-44 4h-20l-12 8h-12
l-24 -8l-12 8q0 -8 -84 -12q-8 8 -48 12q0 -8 -36 -12q0 10 -44 16h-44l-28 -12l-84 16l-28 -8h-4l-4 4l-28 -8l-68 12l-32 -12h-4l-4 4l-60 -8l-56 16l-80 -16l-76 4l-32 -4q0 7 -40 8h-28l-8 8v8l8 32v12l-8 12v16q0 28 32 32q77 -4 84 -12h4l4 4l16 -8q0 15 120 20
l68 -16h16l4 4l4 -4h8l20 4l24 -4h16l52 8l44 -8h40l36 -12l56 12h4l36 -4l56 16l48 -12h40l4 4l4 -4h16l36 -4l120 12l12 -4l12 4l16 -4h4l4 4l28 -4l48 8l64 -8l60 16l36 -6v-133zM1271 1562l-53 -7q-31 0 -72 12h-4q-15 -12 -28 -12h-12q-24 0 -48 24l-48 -8l-16 4
l-16 -4h-32q-23 -16 -36 -16l-32 4h-4l-4 -4l-20 12l-24 -12l-24 8q-15 -12 -36 -12h-12l-32 12q-80 0 -156 -12q-37 0 -64 24q0 -16 -56 -20l-24 4l-28 -8q-53 8 -64 16h-4l-4 -4l-88 8q-51 0 -64 -16h-8l-16 12l-24 -8l-4 4h-12q-25 -8 -96 -12l-28 16v4l4 4q16 6 16 12v4
l-12 12l8 28v4q0 8 -12 8v16l16 28q46 0 80 -12q46 0 60 16h20l68 -12h12l44 12q85 -13 100 -24h16q20 0 24 12h4l4 -4h16q0 8 92 20l24 -4h4l4 4q16 -6 16 -12l28 4h28l104 -20l40 16v-4q38 0 72 12l40 -8q76 0 116 16q80 -28 108 -28h20q48 16 92 20l12 -12h12v8h12
q0 -3 1 -5v-120z" />
    <glyph glyph-name="d" unicode="d" horiz-adv-x="1398" 
d="M205 1434l130 -37h56q103 28 187 28v-38q-38 -42 -38 -65l10 -74l-10 -10v-9l19 -75v-111q-37 -50 -37 -84v-19l56 -130l-56 -121l46 -75v-9l-18 -103v-177l18 -28v-46l-9 -56l9 -10v-9l-18 -74l18 -75l-223 -28l-93 19l-38 -10l-46 10l-65 -19l-28 9l-28 -9
q-19 23 -28 93q84 0 84 149v19l-10 84l10 140v121l-38 112v37q19 18 47 233l18 28l-18 56l9 65q-19 186 -74 186q-34 0 -47 37q0 45 196 66zM745 1425l131 -93q106 0 233 -159q44 -177 102 -177q10 -102 28 -121v-75l-9 -83l9 -38l-18 -37l18 -37q-80 -354 -158 -354l9 -47
q-76 -13 -177 -140q-177 -27 -195 -56q-75 0 -75 112l112 65v19h9l-9 280v149l9 65l-9 9l-10 28h-9l19 56l-10 56l10 9h9l-9 75q21 25 28 140l-28 37l9 37q-14 0 -46 75l9 28l-9 56h9l-9 28h-56v83zM1419 -264l-30 -6l-24 12l-12 -4l-16 4l-32 -8l-4 4h-36l-44 -4
q-16 8 -44 8l-36 -8q-48 0 -72 16l-36 -12l-40 4h-4l-4 -4l-24 8l-28 -16l-64 12l-32 -8l-16 8l-16 -4h-4l-8 8q-54 0 -76 -20l-16 4l-20 -4q0 8 -52 12l-12 -4l-52 12l-32 -12h-32l-16 -4q-60 5 -60 16l-84 -12l-72 4l-64 -8l-56 12h-84q-7 -7 -48 -12l-24 4l-8 -3v133
l88 -14q22 0 44 12q25 0 48 -12l64 12l92 -8v4h8l12 -8l32 8h20l24 -8l68 8l56 -12l32 4l44 -4l48 12l16 -4l144 12l4 -4l28 4l16 -4q11 -15 32 -20q40 11 40 16l36 -4q21 12 40 12h16l24 -8l32 4l52 -8l44 16q84 -16 156 -16h4l4 4l4 -4l32 4l24 -4q3 0 6 1v-119z
M1419 1558l-55 7l-68 -16l-56 8l-24 -4h-64l-36 -12l-28 8l-12 -4l-28 8h-4l-4 -4l-56 12l-16 -4l-40 8l-48 -12h-12l-32 8l-4 -4l-36 4l-16 -8l-16 8h-44l-32 -12h-4l-4 4l-64 -16l-40 20h-36l-40 -4l-8 8l-8 -8l-48 4h-40l-20 4l-12 -12l-36 12l-16 -4h-4l-4 4l-24 -12
l-44 8l-28 -4l-56 16l-112 -16l-4 4l-20 -4l-24 4l-7 -1v120q3 -7 19 -7h8l4 4l20 -12h12q8 8 32 8l20 20l112 -28h4l52 24l4 -4h36q6 0 12 -16l88 12q22 -8 56 -8q17 0 36 12l24 -12h20l44 4l48 -12q51 11 60 24l20 -12q31 0 60 28q17 -4 32 -20q68 -15 68 -24l32 8l4 -4h4
l24 8l44 -4l120 24l100 -12l60 4l4 -4l16 4h48l52 -16h32l3 1v-108z" />
    <glyph glyph-name="e" unicode="e" horiz-adv-x="1207" 
d="M241 1434q107 -46 223 -56l65 19q18 0 65 -74v-84l-37 -55v-47l9 -111l-19 -130l65 -149q0 -52 -83 -269v-9l18 -28l-9 -37l19 -93l-10 -9v-9l10 -9v-28h-10l10 -65v-158l-10 -9v-9l-9 9h-9l-167 -28l-121 65l-111 -46h-19q-51 0 -92 64q0 38 83 56l9 9v10l-18 37l37 102
q0 82 -28 120l19 75v92l-10 38l10 37l-19 130l28 102l-28 148l28 149q-51 98 -130 139q0 102 241 102v9zM724 1434l37 -19l9 10h9l102 -19l102 9l75 -18v-46l9 -297q-40 -50 -93 -56l-74 93v28l9 9q-59 111 -120 111l-10 37l-83 -9q-47 6 -47 56v74q0 18 75 37zM835 1026
v-56q25 0 46 -306l-9 -28l28 -74l-9 -9l9 -47q-12 -74 -56 -74q-35 2 -111 121q-19 0 -19 55l-65 65q0 130 65 130q0 19 28 19l47 195l9 9h37zM1030 451q43 0 55 -149h10l-28 -74l9 -9l-9 -47v-148l-37 -9l-176 27l-195 -27l9 27l-9 56v9q0 19 83 19q12 28 130 93
q71 175 139 232h19zM1228 1568l-28 9q-24 -16 -72 -16l-36 8q-28 0 -44 -8l-44 4h-36l-4 -4l-32 8l-16 -4l-12 4l-24 -12l-64 12l-80 -4q-52 0 -84 12q-41 -28 -56 -28h-12l-76 16h-56l-28 -8l-68 8q-19 0 -60 -20q-19 0 -56 28h-8l-12 -12h-4v8h-4q-15 -16 -28 -16l-32 4
l-4 -4q-4 12 -24 12q-60 -1 -60 -8l-44 12l-24 -4h-4q-12 0 -16 52h-4q4 68 44 68l36 8q0 -8 12 -8l32 4v-4q37 5 52 16q39 -8 56 -24l16 4l12 -4l32 4l4 -4l20 4h12l56 -4l4 4h4l24 -8l72 12h12l32 -8h20q29 0 72 12l12 -4l56 4h16l64 -16q71 20 96 20q0 -12 16 -12l24 4
l32 -4l4 4l4 -4h4q73 0 156 16l44 -16l52 8l32 -4l20 7v-124zM1225 -268l-28 -8l-12 4l-28 -8l-36 12h-64l-24 4l-56 -8l-68 16l-64 -8l-28 4l-16 -4l-20 4l-20 -12l-20 12q-46 -4 -60 -16l-60 8l-36 -8l-12 12h-12l-12 -12l-16 4l-24 -4l-52 12v-4l-64 20l-84 -24l-112 12
q-4 -12 -24 -12h-16q-21 0 -36 12l-84 -12q-56 0 -56 28l4 16q0 34 -20 64q12 32 56 32l60 -16h16l72 -8l44 8l24 -4l120 20h20q11 -16 116 -16h48l36 4q56 -6 56 -12l80 8l28 -8q19 12 72 12h4l40 -12h32l52 16h48l16 -4l4 4l60 -4l100 12l56 -11v-125z" />
    <glyph glyph-name="f" unicode="f" horiz-adv-x="1201" 
d="M897 1434l148 -28v-74l-10 -9l19 -74l-9 -37l18 -139v-37q0 -48 -28 -55h-18q-67 0 -74 83q-14 0 -74 130q-31 0 -102 55q-120 41 -120 139q33 28 111 28h37l37 -10zM518 1425l27 -9v-28l19 -56l-19 -101h10l-10 -28l37 -93l-9 -55l19 -56q-37 -15 -56 -249l9 -28
l-18 -111l28 -92l-10 -37v-19l10 -9l-10 -9v-102l10 -83l-10 -9v-10q0 -92 56 -92q40 -23 55 -65q0 -48 -55 -83h-83q-46 46 -157 46h-56q-52 0 -157 -46l-102 9h-9l-37 111q37 28 83 28l37 185q0 95 -37 157l37 120l-18 56l9 55l-19 19v9l28 37v9l-28 46l37 65
q-11 92 -27 92q20 111 46 111v19l-28 55l9 28q0 93 -111 93l-9 9v46q24 46 74 46h176l139 -18l9 9h9l56 -9h18q14 0 28 37zM841 1027l74 -83l-27 -28v-129l18 -56l-18 -46l9 -102v-55l-56 -55q-74 0 -74 64l10 46q-111 78 -111 167l-19 18v19q120 77 120 129q0 111 74 111z
M1213 1559l-59 14q-56 -4 -56 -24l-24 8l-12 -4l-24 8l-24 -4q-41 5 -48 12h-84l-56 -12l-64 8l-72 -4l-84 12q0 -11 -60 -16l-16 4h-32l-32 12l-52 -12l-12 4q-52 -4 -52 -12l-20 4l-16 -4q-22 20 -76 20l-8 -8h-4l-16 4l-16 -8l-32 8l-64 -12l-28 16l-24 -8l-4 4h-4
l-40 -4l-8 3v124l4 1h16q20 0 40 -12l36 4q0 -5 40 -16q21 5 32 20l16 4l28 -4l4 4l144 -12l16 4l48 -12l44 4l32 -4l56 12l68 -8l24 8h20l32 -8l12 8h8v-4l92 8l64 -12q23 12 48 12q22 -12 44 -12l124 20l60 -16l64 8l7 -1v-129zM1207 -272q-13 0 -28 12h-4
q-41 -12 -72 -12l-60 8l-24 -4l-20 4l-4 -4l-112 16l-56 -16l-28 4l-44 -8l-24 12l-4 -4h-4l-16 4l-36 -12l-12 12l-20 -4h-40l-48 -4l-8 8l-8 -8l-40 4h-36l-40 -20l-64 16l-4 -4h-4l-32 12h-44l-16 -8l-16 8l-36 -4l-4 4l-32 -8h-12l-48 12l-40 -8l-16 4l-56 -12l-4 4h-4
v125l64 -13l44 4l24 -8h4l4 4l32 -8q0 9 68 24q15 16 32 20q29 -28 60 -28l20 12q9 -13 60 -24l48 12l44 -4h20l24 12q19 -12 36 -12q34 0 56 8l88 -12q6 16 12 16h36l4 4l52 -24h4l112 28l20 -20q24 0 32 -8h12l20 12l4 -4h8q20 0 20 12h12v-8h12l12 12q44 -4 92 -20h20
q8 0 19 2l1 -118h-12z" />
    <glyph glyph-name="g" unicode="g" horiz-adv-x="1301" 
d="M478 1434l27 -28h55v-45q-59 -49 -101 -184l-9 -9l18 -83l-18 -37l18 -165l-9 -37v-64l9 -9l-27 -83v-138l9 -128l-9 -28q55 -68 55 -193l-9 -37q68 -44 73 -73q0 -74 -92 -74l-220 74q0 20 -83 92l-82 156l9 9q-12 39 -92 119v10q2 46 18 46l-9 9v9l9 83l-18 27v92
l18 28v91q65 236 92 285q105 105 138 175l101 18l-9 64q19 16 138 28zM1066 1434q24 0 45 -46l-9 -37l9 -82l-9 -10v-9l37 -101v-27l-28 -120l10 -9v-9q-22 -64 -37 -64l-83 9q-25 229 -92 229q-120 157 -183 157q-74 34 -74 82h9l10 9l9 -9h18l92 9q58 -6 110 -45h55l55 64
zM1038 773q93 0 129 -74v-37l-37 -91l9 -65q-28 -45 -28 -119l10 -74l-10 -9v-9l10 -28q0 -119 -65 -119q-99 -26 -147 -83l-229 -64q-74 10 -74 46q0 57 120 101l9 64v28q0 92 -18 92l9 9v110l-9 9l18 65q0 95 -129 137v19l46 46h55l147 18l92 -18h28q51 0 64 46z
M1316 1566q-7 -1 -15 -2l-24 4l-24 -8l-12 4l-24 -8q0 20 -56 24l-68 -16h-32l-36 4h-4l-4 -4l-44 4h-20l-12 8h-12l-24 -8l-12 8q0 -8 -84 -12q-8 8 -48 12q0 -8 -36 -12q0 10 -44 16h-44l-28 -12l-84 16l-28 -8h-4l-4 4l-28 -8l-68 12l-32 -12h-4l-4 4l-60 -8l-56 16
l-80 -16l-76 4l-32 -4q0 7 -40 8h-28l-8 8v8l8 32v12l-8 12v16q0 28 32 32q77 -4 84 -12h4l4 4l16 -8q0 15 120 20l68 -16h16l4 4l4 -4h8l20 4l24 -4h16l52 8l44 -8h40l36 -12l56 12h4l36 -4l56 16l48 -12h40l4 4l4 -4h16l36 -4l120 12l12 -4l12 4l16 -4h4l4 4l28 -4l48 8
l64 -8l60 16l83 -13v-125zM1319 -252l-35 3l-120 -24l-100 12l-60 -4l-4 4l-16 -4h-48l-52 16h-32l-40 -12h-4q-53 0 -72 12l-28 -8l-80 8q0 -6 -56 -12l-36 4h-48q-105 0 -116 -16h-20l-120 20l-24 -4l-44 8l-72 -8h-16l-60 -16q-44 0 -56 32q20 30 20 64l-4 16q0 28 56 28
l84 -12q15 12 36 12h16q20 0 24 -12l112 12l84 -24l64 20v-4l52 12l24 -4l16 4l12 -12h12l12 12l36 -8l60 8q14 -12 60 -16l20 12l20 -12l20 4l16 -4l28 4l64 -8l68 16l56 -8l24 4h64l36 12l28 -8l12 4l28 -8h4l4 4l56 -12l16 4l19 -4v-107z" />
    <glyph glyph-name="h" unicode="h" horiz-adv-x="1495" 
d="M781 1435h74q13 -18 148 -28l9 10h10l129 -19l148 28l65 -28q0 -111 -92 -111l-19 -65v-74l19 -74v-55q0 -68 -28 -158l28 -111l-19 -120l19 -111l-19 -38l9 -27l-9 -111l19 -65l-10 -47q0 -53 93 -157l-28 -37h-28l-102 19q-46 -3 -46 -19l-120 28h-28q0 -28 -28 -28v9
q-71 -27 -203 -37q-56 0 -56 65h-9q92 94 92 130l37 231l-37 65l47 139v18l-19 19l-37 -9l-83 9v-9q-74 13 -74 74v28l18 18h83l10 -9q92 68 92 259l-46 102q46 60 46 92q0 67 -139 139v28q13 37 84 37zM207 1426l111 -19l83 10l139 -10l65 10l55 -19v-55
q-110 -79 -120 -130l28 -185v-74l9 -47l-37 -64v-74q28 -34 28 -65l-19 -102l37 -148q-46 -30 -46 -111q28 -46 28 -121v-18l-19 -28v-9q0 -19 56 -28q6 -43 65 -83v-28l-10 -9l-27 -10v-9q-174 19 -278 56q-113 -10 -250 -47h-56l-46 65v9q0 59 93 84v148l-28 55
q37 56 37 84h-9l18 46l-9 9v10l9 9v9l-9 37l18 28l-9 28q28 49 28 157l-56 93l19 120q-21 0 -28 46q21 111 56 111q-44 117 -111 223l37 18l55 -9h9q50 37 84 37zM1519 1574q-17 -2 -36 -2l-80 4l-64 -12l-24 12l-12 -4l-16 4l-32 -8l-4 4h-36l-44 -4q-16 8 -44 8l-36 -8
q-48 0 -72 16l-36 -12l-40 4h-4l-4 -4l-24 8l-28 -16l-64 12l-32 -8l-16 8l-16 -4h-4l-8 8q-54 0 -76 -20l-16 4l-20 -4q0 8 -52 12l-12 -4l-52 12l-32 -12h-32l-16 -4q-60 5 -60 16l-84 -12l-72 4l-64 -8l-56 12h-84q-6 -6 -33 -10v125l41 -7q22 0 44 12q25 0 48 -12l64 12
l92 -8v4h8l12 -8l32 8h20l24 -8l68 8l56 -12l32 4l44 -4l48 12l16 -4l144 12l4 -4l28 4l16 -4q11 -15 32 -20q40 11 40 16l36 -4q21 12 40 12h16l24 -8l32 4l52 -8l44 16q84 -16 156 -16h4l4 4l4 -4l32 4l24 -4q16 0 16 12q25 0 96 -20l44 11v-117zM1519 -254l-45 9l-40 -16
v4q-38 0 -72 -12l-40 8q-76 0 -116 -16q-80 28 -108 28h-20q-48 -16 -92 -20l-12 12h-12v-8h-12q0 12 -20 12h-8l-4 -4l-20 12h-12q-8 -8 -32 -8l-20 -20l-112 28h-4l-52 -24l-4 4h-36q-6 0 -12 16l-88 -12q-22 8 -56 8q-17 0 -36 -12l-24 12h-20l-44 -4l-48 12
q-51 -11 -60 -24l-20 12q-31 0 -60 -28q-17 4 -32 20q-68 15 -68 24l-32 -8l-4 4h-4l-24 -8l-9 1v107l21 -4l48 12h12l32 -8l4 4l36 -4l16 8l16 -8h44l32 12h4l4 -4l64 16l40 -20h36l40 4l8 -8l8 8l48 -4h40l20 -4l12 12l36 -12l16 4h4l4 -4l24 12l44 -8l28 4l56 -16l112 16
l4 -4l20 4l24 -4l60 8q31 0 72 -12h4q15 12 28 12h12q24 0 48 -24l48 8l16 -4l16 4h32q23 16 36 16l32 -4h4l4 4l20 -12l24 12l24 -8q15 12 36 12h12l32 -12h17v-113z" />
    <glyph glyph-name="i" unicode="i" horiz-adv-x="762" 
d="M550 1434l10 -9h54q0 -25 46 -46l9 -55q-100 0 -100 -64l-19 -64l10 -9v-9l-28 -55l9 -27l-9 -28q0 -146 46 -146l-9 -64v-164l18 -37l-55 -128l55 -219v-64l-9 -55q0 -18 91 -91l-55 -101q-70 9 -137 55l-119 -28q-38 25 -118 37l-64 -37h-55q-67 0 -119 55v19l91 54
l37 83l-9 82q0 46 18 46l-18 155l9 9v9l-18 110v128l-9 9l9 9v18q0 46 -19 46l37 146l-18 55l18 128q0 66 -101 119l-9 64v9q135 28 320 37l9 9l101 -9q100 5 100 18zM781 1570l-8 -2l-60 8l-4 -4h-4l-32 12l-68 -12l-28 8l-4 -4h-4l-28 8l-84 -16l-28 12h-44
q-44 -6 -44 -16q-36 4 -36 12q-40 -4 -48 -12q-84 4 -84 12l-12 -8l-24 8h-12l-12 -8h-20l-44 -4l-4 4h-4l-36 -4h-32l-9 2v129l41 -7l28 4l4 -4h4l16 4l12 -4l12 4l120 -12l36 4h16l4 4l4 -4h40l48 12l56 -16l36 4h4l56 -12l36 12h40l44 8l52 -8h16l24 4l20 -4h8l4 4l4 -4
h16l16 4v-118zM784 -254l-30 -3l-4 4h-4q-11 -8 -64 -16l-28 8l-24 -4q-56 4 -56 20q-27 -24 -64 -24q-76 12 -156 12l-32 -12h-12q-21 0 -36 12l-24 -8l-24 12l-20 -12l-4 4h-4l-32 -4q-13 0 -36 16h-32l-16 4l-16 -4l-48 8q-24 -24 -48 -24l-1 118q31 6 89 26
q40 -16 116 -16l40 8q34 -12 72 -12v4l40 -16l104 20h28l28 -4q0 6 16 12l4 -4h4l24 4q92 -12 92 -20h16l4 4h4q4 -12 24 -12h16q14 11 94 23v-124z" />
    <glyph glyph-name="j" unicode="j" horiz-adv-x="1147" 
d="M582 1434h9q38 -45 143 -45v-9l152 45q153 -17 153 -90v-18l-72 -35q0 -27 -36 -81l18 -99l-18 -188v-45l9 -53l-18 -45l18 -36l-9 -9v-188l9 -9l-9 -9v-18l18 -99v-80l-9 -9l9 -9v-18q-97 -170 -161 -170l-180 -81q-56 -36 -143 -36q-25 0 -63 72q0 51 90 170l27 99v9
l-9 35l9 9v9l-45 260l18 54v27l-9 9l18 72v206l18 80q0 92 -90 171q0 35 -27 62v45l18 18h81q47 0 81 27zM142 556h117q134 -51 134 -126v-89l-18 -18q-29 0 -35 -90q-36 -9 -36 -54h-18v-27q63 -9 63 -27v-71l-90 -18q-25 0 -90 81q-85 34 -125 107q0 18 -45 54v36
q14 110 143 242zM1165 -257q-18 -4 -42 -4l-36 8q-28 0 -44 -8l-44 4h-36l-4 -4l-32 8l-16 -4l-12 4l-24 -12l-64 12l-80 -4q-52 0 -84 12q-41 -28 -56 -28h-12l-76 16h-56l-28 -8l-68 8q-19 0 -60 -20q-19 0 -56 28h-8l-12 -12h-4v8h-4q-15 -16 -28 -16l-32 4l-4 -4
q-4 12 -24 12q-60 -1 -60 -8l-44 12l-24 -4h-4q-12 0 -16 52h-4q4 68 44 68l36 8q0 -8 12 -8l32 4v-4q37 5 52 16q39 -8 56 -24l16 4l12 -4l32 4l4 -4l20 4h12l56 -4l4 4h4l24 -8l72 12h12l32 -8h20q29 0 72 12l12 -4l56 4h16l64 -16q71 20 96 20q0 -12 16 -12l24 4l32 -4
l4 4l4 -4h4q73 0 156 16l44 -16l46 7v-123zM1162 1562l-28 9h-64l-24 4l-56 -8l-68 16l-64 -8l-28 4l-16 -4l-20 4l-20 -12l-20 12q-46 -4 -60 -16l-60 8l-36 -8l-12 12h-12l-12 -12l-16 4l-24 -4l-52 12v-4l-64 20l-84 -24l-112 12q-4 -12 -24 -12h-16q-21 0 -36 12
l-84 -12q-56 0 -56 28l4 16q0 34 -20 64q12 32 56 32l60 -16h16l72 -8l44 8l24 -4l120 20h20q11 -16 116 -16h48l36 4q56 -6 56 -12l80 8l28 -8q19 12 72 12h4l40 -12h32l52 16h48l16 -4l4 4l60 -4l80 10v-143z" />
    <glyph glyph-name="k" unicode="k" horiz-adv-x="1464" 
d="M166 1432q84 0 139 -47h19l65 10v-10l9 10h47q120 0 167 18l46 -18v-65q-83 -65 -83 -121l9 -130l-9 -158h9l-9 -9v-47l9 -55l-9 -10v-9l9 -37l-9 -176v-37l18 -75v-37l-28 -121q0 -195 84 -195l37 -55q0 -31 -111 -47l-84 10l-93 -10h-46l-102 10l-10 -10h-9l-56 10
l-55 -19l-75 28h-37l-9 37q0 25 102 84l47 185l-10 65l10 28l-38 269l10 56v74l9 10l-28 74l28 111l-19 158l10 47q0 50 -84 74l-18 37v9l37 37l9 -9h19zM1206 1413h93q17 0 56 -65q-39 -65 -140 -65q-14 -27 -130 -111q0 -41 -74 -102q-9 -37 -37 -37v-10q81 -177 102 -306
l-9 -37q54 -127 83 -130q0 -79 65 -167q37 -65 37 -140l47 -92q50 0 102 -84v-9q0 -21 -65 -37l-37 9l-74 -28l-112 19h-186l-148 -10q-56 22 -56 37v10q0 35 47 83v84q0 125 -112 316l-9 157q23 8 130 232q94 0 167 251v28q-2 21 -111 102l-10 56l37 37l112 -9zM1481 -253
l-12 -8l-24 8h-12l-12 -8h-20l-44 -4l-4 4h-4l-36 -4h-32l-68 16q-56 -4 -56 -24l-24 8l-12 -4l-24 8l-24 -4q-41 5 -48 12h-84l-56 -12l-64 8l-72 -4l-84 12q0 -11 -60 -16l-16 4h-32l-32 12l-52 -12l-12 4q-52 -4 -52 -12l-20 4l-16 -4q-22 20 -76 20l-8 -8h-4l-16 4
l-16 -8l-32 8l-64 -12l-28 16l-24 -8l-4 4h-4l-40 -4l-36 12q-12 -8 -30 -12v123l6 1l32 -4l24 8h16q20 0 40 -12l36 4q0 -5 40 -16q21 5 32 20l16 4l28 -4l4 4l144 -12l16 4l48 -12l44 4l32 -4l56 12l68 -8l24 8h20l32 -8l12 8h8v-4l92 8l64 -12q23 12 48 12q22 -12 44 -12
l124 20l60 -16l64 8l48 -8l28 4l4 -4h4l16 4l12 -4l12 4l105 -11l1 -111q-14 3 -14 6zM1456 1583h-32l-16 4l-16 -4l-48 8q-24 -24 -48 -24h-12q-13 0 -28 12h-4q-41 -12 -72 -12l-60 8l-24 -4l-20 4l-4 -4l-112 16l-56 -16l-28 4l-44 -8l-24 12l-4 -4h-4l-16 4l-36 -12
l-12 12l-20 -4h-40l-48 -4l-8 8l-8 -8l-40 4h-36l-40 -20l-64 16l-4 -4h-4l-32 12h-44l-16 -8l-16 8l-36 -4l-4 4l-32 -8h-12l-48 12l-40 -8l-16 4l-56 -12l-4 4h-4l-28 -8l-12 4l-28 -8l-8 3v143l20 2l120 -24l44 4l24 -8h4l4 4l32 -8q0 9 68 24q15 16 32 20q29 -28 60 -28
l20 12q9 -13 60 -24l48 12l44 -4h20l24 12q19 -12 36 -12q34 0 56 8l88 -12q6 16 12 16h36l4 4l52 -24h4l112 28l20 -20q24 0 32 -8h12l20 12l4 -4h8q20 0 20 12h12v-8h12l12 12q44 -4 92 -20h20q28 0 108 28q36 -15 102 -16l1 -127q-12 2 -31 15z" />
    <glyph glyph-name="l" unicode="l" horiz-adv-x="1180" 
d="M141 1434q210 -24 210 -36l27 9q52 -28 109 -28l19 19h36l82 9q64 -13 64 -92l-9 -27h-37q-72 0 -72 -191v-19l9 -109h-9q27 -37 36 -146q0 -27 -27 -27l-9 -10v-9l9 -45l-9 -28l9 -82v-73q2 -45 18 -45l-55 -219l28 -55h-10l37 -155h-27q-39 0 -92 -46h-9q-52 0 -100 37
h-46l-73 -18l-155 18l-55 -9l-18 27v18q0 23 101 55l18 82q0 67 -28 119q6 88 46 146l-9 36l9 28l-27 54l18 155q0 118 -27 210l27 37v9l-27 27l9 9v64l-9 55l9 9v9q0 119 -119 119l-9 9v18q73 82 137 82zM980 504q82 -22 82 -110v-64q-46 0 -46 -54l46 -183v-9
q0 -60 -36 -82l-92 64l-219 -18q-54 0 -54 54v19q0 13 109 45q0 37 46 73l64 64l9 36l-9 10v9l45 64q5 82 55 82zM1207 1585q-24 -14 -69 -14l-36 8q-28 0 -44 -8l-44 4h-36l-4 -4l-32 8l-16 -4l-12 4l-24 -12l-64 12l-80 -4q-52 0 -84 12q-41 -28 -56 -28h-12l-76 16h-56
l-28 -8l-68 8q-19 0 -60 -20q-19 0 -56 28h-8l-12 -12h-4v8h-4q-15 -16 -28 -16l-32 4l-4 -4q-4 12 -24 12q-60 -1 -60 -8l-44 12l-24 -4h-4q-12 0 -16 52h-4q4 68 44 68l36 8q0 -8 12 -8l32 4v-4q37 5 52 16q39 -8 56 -24l16 4l12 -4l32 4l4 -4l20 4h12l56 -4l4 4h4l24 -8
l72 12h12l32 -8h20q29 0 72 12l12 -4l56 4h16l64 -16q71 20 96 20q0 -12 16 -12l24 4l32 -4l4 4l4 -4h4q73 0 156 16l44 -16l52 8l21 -3v-111zM1207 -257q-14 4 -37 6l-68 -16h-32l-36 4h-4l-4 -4l-44 4h-20l-12 8h-12l-24 -8l-12 8q0 -8 -84 -12q-8 8 -48 12q0 -8 -36 -12
q0 10 -44 16h-44l-28 -12l-84 16l-28 -8h-4l-4 4l-28 -8l-68 12l-32 -12h-4l-4 4l-60 -8l-56 16l-80 -16l-76 4l-32 -4q0 7 -40 8h-28l-8 8v8l8 32v12l-8 12v16q0 28 32 32q77 -4 84 -12h4l4 4l16 -8q0 15 120 20l68 -16h16l4 4l4 -4h8l20 4l24 -4h16l52 8l44 -8h40l36 -12
l56 12h4l36 -4l56 16l48 -12h40l4 4l4 -4h16l36 -4l120 12l12 -4l12 4l16 -4h4l4 4l28 -4l48 8l64 -8l25 7v-121z" />
    <glyph glyph-name="m" unicode="m" horiz-adv-x="1561" 
d="M193 1434l192 -55l128 37h9q19 0 19 -64l36 -83q13 0 19 -73q21 0 54 -36l-27 -46v-28q42 -39 46 -109q18 0 18 -83l46 -27q0 87 64 174h18l-9 -9v-74l36 -100q-54 -211 -91 -211q-18 0 -18 -27l9 -9v-9l-55 -156l9 -155l-46 -92l10 -36l-46 -55q-25 -83 -46 -83h-18
q-40 28 -92 238l-91 174l-9 37l18 45q0 32 -82 174l-138 448q-33 137 -45 138q-83 0 -110 64v9q0 46 192 82zM1135 1416q48 -37 92 -37v-9l9 9h18l9 -9l83 27q109 -14 109 -45v-28q-119 -85 -119 -119l10 -9v-9l-10 -27l19 -101l-19 -64l19 -156q-19 -82 -46 -118
q52 -119 73 -119v-9q0 -19 -36 -19q0 -128 27 -274l-9 -119q15 0 82 -101q-18 -57 -46 -64h-54l-92 19l-46 -10l-73 19h-18q-101 -19 -128 -46l-156 46q-55 0 -55 27q31 80 138 128v19l-9 210l18 192v37l-9 64l18 18l-27 100v46l9 83l-9 27l9 46l-9 55l9 27l-37 37
q18 81 18 219q0 21 46 28l55 -10zM815 1105h18v-19l-27 -27v18zM129 867h9q46 -28 46 -64h-9q46 -62 46 -165l-10 -36l37 -37l-9 -37l18 -36l-9 -37l9 -82q-27 0 -27 -101q44 -12 91 -119q43 0 101 -64q0 -54 -92 -54l-27 -28h-9l-9 9l-10 -9h-64l-36 28h-28l-137 -10l-9 28
l9 9v9l-9 37l137 119l-9 91l27 110l-18 293l9 9v9q-18 36 -18 100v28zM1585 1583q-11 4 -11 8q-40 -4 -48 -12q-84 4 -84 12l-12 -8l-24 8h-12l-12 -8h-20l-44 -4l-4 4h-4l-36 -4h-32l-68 16q-56 -4 -56 -24l-24 8l-12 -4l-24 8l-24 -4q-41 5 -48 12h-84l-56 -12l-64 8
l-72 -4l-84 12q0 -11 -60 -16l-16 4h-32l-32 12l-52 -12l-12 4q-52 -4 -52 -12l-20 4l-16 -4q-22 20 -76 20l-8 -8h-4l-16 4l-16 -8l-32 8l-64 -12l-28 16l-24 -8l-4 4h-4l-40 -4l-36 12q-1 -1 -3 -2v111l11 -1l24 8h16q20 0 40 -12l36 4q0 -5 40 -16q21 5 32 20l16 4l28 -4
l4 4l144 -12l16 4l48 -12l44 4l32 -4l56 12l68 -8l24 8h20l32 -8l12 8h8v-4l92 8l64 -12q23 12 48 12q22 -12 44 -12l124 20l60 -16l64 8l48 -8l28 4l4 -4h4l16 4l12 -4l12 4l120 -12l36 4h16l4 4l4 -4h40l15 4v-120zM1585 -246l-67 3l-64 -12l-24 12l-12 -4l-16 4l-32 -8
l-4 4h-36l-44 -4q-16 8 -44 8l-36 -8q-48 0 -72 16l-36 -12l-40 4h-4l-4 -4l-24 8l-28 -16l-64 12l-32 -8l-16 8l-16 -4h-4l-8 8q-54 0 -76 -20l-16 4l-20 -4q0 8 -52 12l-12 -4l-52 12l-32 -12h-32l-16 -4q-60 5 -60 16l-84 -12l-72 4l-64 -8l-56 12h-84q-7 -7 -48 -12
l-24 4l-24 -8l-12 4l-24 -8q0 12 -19 18v121l35 9l124 -20q22 0 44 12q25 0 48 -12l64 12l92 -8v4h8l12 -8l32 8h20l24 -8l68 8l56 -12l32 4l44 -4l48 12l16 -4l144 12l4 -4l28 4l16 -4q11 -15 32 -20q40 11 40 16l36 -4q21 12 40 12h16l24 -8l32 4l52 -8l44 16
q84 -16 156 -16h4l4 4l4 -4l32 4l24 -4q16 0 16 12q24 0 91 -19v-108z" />
    <glyph glyph-name="n" unicode="n" 
d="M54 1434q103 0 167 -46q42 0 83 28h102q240 -27 240 -74q0 -104 120 -167q55 -101 74 -212l46 -83l-9 -10v-27q240 -259 240 -379l-9 -9v-10l9 -46l-9 -74q37 0 37 -101q0 -102 -28 -111l9 -9v-28l-18 -28l9 -28h-9l-47 -18q-295 61 -295 166q-32 0 -56 111q-18 0 -18 37
q-46 0 -46 93q-120 110 -120 194q-14 0 -84 157q-24 0 -64 129q-57 15 -120 231q-168 212 -213 212q-27 0 -46 37q55 47 55 65zM969 1406q51 0 157 -37h9l37 28h37q70 0 83 -55q0 -37 -55 -47q0 -15 -92 -83l-10 -74l10 -138l-37 -277v-47q-74 43 -74 139l27 92
q-27 49 -37 157l19 74q0 22 -65 65l-9 37l9 9v56l-64 55v37zM202 1055q32 -48 83 -222v-110l-18 -37l37 -157v-10q0 -77 -37 -221q18 0 46 -130l9 -9h10l9 9h9q74 -24 74 -46v-46l-18 -56l-204 19q-55 -3 -55 -19l-37 19l-56 -9l-18 18v46q111 61 111 157l18 28l-9 65
l65 120v46l-65 194l9 139h-9l9 9v129l10 10l-10 9v9q18 42 37 46zM1416 1573l-34 -9l-20 20q-24 0 -32 8h-12l-20 -12l-4 4h-8q-20 0 -20 -12h-12v8h-12l-12 -12q-44 4 -92 20h-20q-28 0 -108 -28q-40 16 -116 16l-40 -8q-34 12 -72 12v-4l-40 16l-104 -20h-28l-28 4
q0 -6 -16 -12l-4 4h-4l-24 -4q-92 12 -92 20h-16l-4 -4h-4q-4 12 -24 12h-16q-15 -11 -100 -24l-44 12h-12l-68 -12h-20q-14 16 -60 16q-34 -12 -80 -12l-16 28v16q12 0 12 8v4l-8 28l12 12v4q0 6 -16 12l-4 4v4l28 16q71 -4 96 -12h12l4 4l24 -8l16 12h8q13 -16 64 -16
l88 8l4 -4h4q11 8 64 16l28 -8l24 4q56 -4 56 -20q27 24 64 24q76 -12 156 -12l32 12h12q21 0 36 -12l24 8l24 -12l20 12l4 -4h4l32 4q13 0 36 -16h32l16 -4l16 4l48 -8q24 24 48 24h12q13 0 28 -12h4q41 12 72 12l60 -8l24 4l20 -4l4 4l94 -13v-114zM1416 -268l-14 -4h-12
l-48 12l-40 -8l-16 4l-56 -12l-4 4h-4l-28 -8l-12 4l-28 -8l-36 12h-64l-24 4l-56 -8l-68 16l-64 -8l-28 4l-16 -4l-20 4l-20 -12l-20 12q-46 -4 -60 -16l-60 8l-36 -8l-12 12h-12l-12 -12l-16 4l-24 -4l-52 12v-4l-64 20l-84 -24l-112 12q-4 -12 -24 -12h-16q-21 0 -36 12
l-84 -12q-56 0 -56 28l4 16q0 34 -20 64q12 32 56 32l60 -16h16l72 -8l44 8l24 -4l120 20h20q11 -16 116 -16h48l36 4q56 -6 56 -12l80 8l28 -8q19 12 72 12h4l40 -12h32l52 16h48l16 -4l4 4l60 -4l100 12l120 -24l44 4l24 -8h4l4 4l32 -8q0 5 22 12v-112z" />
    <glyph glyph-name="o" unicode="o" horiz-adv-x="1368" 
d="M589 1434q36 -9 36 -46q-28 -87 -109 -127l-18 -109v-82l9 -64q-36 -5 -36 -27l9 -10v-9l-18 -63l18 -55l-9 -46l18 -18v-18l-18 -27v-28l18 -27v-36l-9 -10l18 -36l-18 -55v-164l-18 -27v-45q0 -41 136 -201q0 -100 -36 -100q-38 36 -182 64q-204 102 -265 264
q0 40 -45 118q0 22 -64 100l-9 46q36 55 36 82l-9 118q37 81 55 274l27 27l-9 82q37 0 37 46q82 0 82 72l91 64l54 -9q57 36 228 82zM780 1416q164 -30 164 -91q20 -19 100 -19q64 -85 64 -136q68 0 146 -364l9 -10q-36 -69 -36 -218l9 -82q-26 -91 -64 -91
q0 -179 -191 -264q-60 -91 -246 -91q-41 -46 -82 -46l-9 27q0 99 109 155q19 102 46 109l-10 10v18l10 91q-55 164 -55 246q0 50 55 91l9 73l-55 118l36 137l-36 64l9 45v27q0 68 -91 128v9l9 46h27zM1395 1580l-6 2q-19 -12 -72 -12h-4l-40 12h-32l-52 -16h-48l-16 4l-4 -4
l-60 4l-100 -12l-120 24l-44 -4l-24 8h-4l-4 -4l-32 8q0 -9 -68 -24q-15 -16 -32 -20q-29 28 -60 28l-20 -12q-9 13 -60 24l-48 -12l-44 4h-20l-24 -12q-19 12 -36 12q-34 0 -56 -8l-88 12q-6 -16 -12 -16h-36l-4 -4l-52 24h-4l-78 -19v114l18 -3l56 16l28 -4l44 8l24 -12
l4 4h4l16 -4l36 12l12 -12l20 4h40l48 4l8 -8l8 8l40 -4h36l40 20l64 -16l4 4h4l32 -12h44l16 8l16 -8l36 4l4 -4l32 8h12l48 -12l40 8l16 -4l56 12l4 -4h4l28 8l12 -4l28 8l36 -12h64l24 -4l56 8l68 -16l64 8l28 -4l16 4l20 -4l20 12l20 -12q3 0 6 1v-107zM1392 -282
l-11 -4h-12q-21 0 -36 12l-24 -8l-24 12l-20 -12l-4 4h-4l-32 -4q-13 0 -36 16h-32l-16 4l-16 -4l-48 8q-24 -24 -48 -24h-12q-13 0 -28 12h-4q-41 -12 -72 -12l-60 8l-24 -4l-20 4l-4 -4l-112 16l-56 -16l-28 4l-44 -8l-24 12l-4 -4h-4l-16 4l-36 -12l-12 12l-20 -4h-40
l-48 -4l-8 8l-8 -8l-40 4h-36l-40 -20l-64 16l-4 -4h-4l-32 12h-44l-16 -8l-16 8l-36 -4l-4 4l-18 -4v112q17 6 46 12q15 16 32 20q29 -28 60 -28l20 12q9 -13 60 -24l48 12l44 -4h20l24 12q19 -12 36 -12q34 0 56 8l88 -12q6 16 12 16h36l4 4l52 -24h4l112 28l20 -20
q24 0 32 -8h12l20 12l4 -4h8q20 0 20 12h12v-8h12l12 12q44 -4 92 -20h20q28 0 108 28q40 -16 116 -16l40 8q34 -12 72 -12v4l40 -16l7 1v-113z" />
    <glyph glyph-name="p" unicode="p" horiz-adv-x="1349" 
d="M884 1434q81 -21 112 -84q204 -64 204 -222l18 -75l-9 -28l37 -176q0 -62 -223 -214q-207 -102 -334 -102q0 28 -18 28l27 56l-18 37q65 48 102 195v46l-19 158q56 40 56 75q0 87 -158 204v56l28 27l74 -18q25 25 121 37zM58 1425l9 -10h9l56 10l344 -28l55 18h47v-9
l-10 -56q12 -297 38 -297q-19 -21 -19 -111l-9 -9l-10 -28l10 -56l-19 -84l19 -37l-19 -55l28 -47l-9 -9v-47l9 -9q-19 -77 -37 -83l56 -103v-9l-10 -223q22 -18 65 -18l28 -75h-9q-131 -25 -158 -46l-186 46h-93l-65 -37q-167 17 -167 56q0 37 112 46l46 75v37l-28 93v28
l19 74l-56 102v9l28 140l-19 37l19 65l-9 37l9 74h-9l9 9v10l-9 65l9 55l-9 10v9l18 74v102q-37 0 -74 103q-46 9 -65 37zM1368 -255h-3l-124 -20l-60 16l-64 -8l-48 8l-28 -4l-4 4h-4l-16 -4l-12 4l-12 -4l-120 12l-36 -4h-16l-4 -4l-4 4h-40l-48 -12l-56 16l-36 -4h-4
l-56 12l-36 -12h-40l-44 -8l-52 8h-16l-24 -4l-20 4h-8l-4 -4l-4 4h-16l-68 -16q-120 5 -120 20l-16 -8l-4 4h-4q-7 -8 -84 -12q-32 4 -32 32v16l8 12v12l-8 32v8l8 8h28q40 1 40 8l32 -4l76 4l80 -16l56 16l60 -8l4 4h4l32 -12l68 12l28 -8l4 4h4l28 -8l84 16l28 -12h44
q44 6 44 16q36 -4 36 -12q40 4 48 12q84 -4 84 -12l12 8l24 -8h12l12 8h20l44 4l4 -4h4l36 4h32l68 -16q56 4 56 24l24 -8l12 4l24 -8l24 4q41 -5 48 -12h11v-108zM1368 1574l-42 -6l-4 4l-20 -4l-24 4l-60 -8q-31 0 -72 12h-4q-15 -12 -28 -12h-12q-24 0 -48 24l-48 -8
l-16 4l-16 -4h-32q-23 -16 -36 -16l-32 4h-4l-4 -4l-20 12l-24 -12l-24 8q-15 -12 -36 -12h-12l-32 12q-80 0 -156 -12q-37 0 -64 24q0 -16 -56 -20l-24 4l-28 -8q-53 8 -64 16h-4l-4 -4l-88 8q-51 0 -64 -16h-8l-16 12l-24 -8l-4 4h-12q-25 -8 -96 -12l-28 16v4l4 4
q16 6 16 12v4l-12 12l8 28v4q0 8 -12 8v16l16 28q46 0 80 -12q46 0 60 16h20l68 -12h12l44 12q85 -13 100 -24h16q20 0 24 12h4l4 -4h16q0 8 92 20l24 -4h4l4 4q16 -6 16 -12l28 4h28l104 -20l40 16v-4q38 0 72 12l40 -8q76 0 116 16q80 -28 108 -28h20q48 16 92 20l12 -12
h12v8h12q0 -12 20 -12h8l4 4l20 -12h12q8 8 32 8l2 2v-112z" />
    <glyph glyph-name="q" unicode="q" horiz-adv-x="1346" 
d="M666 1434v-9l9 9h36q205 -34 205 -98q101 0 152 -135q72 0 72 -62v-81q80 -93 80 -286l-9 -89l9 -9v-9l-18 -45l9 -54q-21 0 -62 -169q-17 0 -45 -54l-134 -134q0 -45 152 -45l98 45v-9l9 -9q0 -86 -71 -134l-27 9q-34 -45 -259 -63h-9l-72 80q-36 -26 -134 -35v107
l18 72q-48 53 -134 53q0 99 107 99h45q18 0 18 -27h26l9 45l-26 205l17 54l-9 9v9q24 29 36 152h-9l9 9q-18 143 -36 161v89l18 72v36l-9 8l9 9v18q0 59 -80 90l-27 107zM406 1425h153q0 -63 -72 -98l-36 -99h9q-27 -42 -27 -161v-18l27 -98l-9 -45l9 -27l-9 -80v-89l45 -81
l-45 -206v-9l27 -62l-9 -36l9 -27l-9 -80v-18q107 0 107 -99v-9l-62 18l-143 -18q-322 236 -322 305q-45 113 -45 250q0 345 89 402q0 27 54 108l-9 80q56 102 206 152zM1368 -267q-19 -4 -30 -4q0 12 -16 12l-24 -4l-32 4l-4 -4l-4 4h-4q-72 0 -156 -16l-44 16l-52 -8
l-32 4l-24 -8h-16q-19 0 -40 12l-36 -4q0 5 -40 16q-21 -5 -32 -20l-16 -4l-28 4l-4 -4l-144 12l-16 -4l-48 12l-44 -4l-32 4l-56 -12l-68 8l-24 -8h-20l-32 8l-12 -8h-8v4l-92 -8l-64 12q-23 -12 -48 -12q-21 11 -41 12v108h73l56 12l64 -8l72 4l84 -12q0 11 60 16l16 -4
h32l32 -12l52 12l12 -4q52 4 52 12l20 -4l16 4q22 -20 76 -20l8 8h4l16 -4l16 8l32 -8l64 12l28 -16l24 8l4 -4h4l40 4l36 -12q24 16 72 16l36 -8q28 0 44 8l44 -4h36l4 4l32 -8l16 4l12 -4l24 12l64 -12h6v-120zM1368 1574l-9 2l-28 -4l-64 8l-68 -16l-56 8l-24 -4h-64
l-36 -12l-28 8l-12 -4l-28 8h-4l-4 -4l-56 12l-16 -4l-40 8l-48 -12h-12l-32 8l-4 -4l-36 4l-16 -8l-16 8h-44l-32 -12h-4l-4 4l-64 -16l-40 20h-36l-40 -4l-8 8l-8 -8l-48 4h-40l-20 4l-12 -12l-36 12l-16 -4h-4l-4 4l-24 -12l-44 8l-28 -4l-56 16l-70 -10v112l18 18
l112 -28h4l52 24l4 -4h36q6 0 12 -16l88 12q22 -8 56 -8q17 0 36 12l24 -12h20l44 4l48 -12q51 11 60 24l20 -12q31 0 60 28q17 -4 32 -20q68 -15 68 -24l32 8l4 -4h4l24 8l44 -4l120 24l100 -12l60 4l4 -4l16 4h48l52 -16h32l40 12h9v-118z" />
    <glyph glyph-name="r" unicode="r" horiz-adv-x="1455" 
d="M452 1434h55q46 0 55 -37l-9 -27l18 -102l-9 -55l19 -27l-10 -10v-46q0 -87 -36 -165v-9q46 -113 46 -184l-19 -74v-101l-37 -110l10 -65l-10 -37q26 0 46 -193l10 -46l64 -46v-46l-18 -18h-120l-64 -19l-56 19v-9l-55 18h-9l-138 -28l-46 10l-28 -19q-110 7 -110 28
q0 129 74 129l73 128q0 65 -55 157v9l18 83l-9 165l9 74l-9 27l28 138l-9 56l9 55l-9 9v9l9 46l-9 37l9 9l-28 28l19 27v10q0 16 -92 64l-19 101l55 19h37l37 -28h9l9 9l74 -18l156 18v-9zM673 1416l82 -19h111q118 0 165 -64q51 0 74 -65q33 0 73 -110h10l-19 -239l9 -9
q-20 -2 -128 -138q-43 0 -129 -92v-19h55q185 0 221 -174l9 -10l-9 -46l9 -46q-16 -19 -28 -128q14 -37 28 -37h9l120 37l27 -56q-119 -174 -211 -174q0 -28 -19 -28l-46 9l-46 -9q-122 3 -257 147l-9 74l9 64l-37 92l18 55q0 184 -73 184q-37 0 -37 129q83 23 83 92l27 147
l-27 129l9 46q0 88 -92 156l-9 92zM1470 1564l-16 -1l-4 4l-28 -4l-16 4q-11 15 -32 20q-40 -11 -40 -16l-36 4q-20 -12 -40 -12h-16l-24 8l-32 -4l-52 8l-44 -16q-83 16 -156 16h-4l-4 -4l-4 4l-32 -4l-24 4q-16 0 -16 -12q-25 0 -96 20l-64 -16h-16l-56 4l-12 -4
q-43 12 -72 12h-20l-32 -8h-12l-72 12l-24 -8h-4l-4 4l-56 -4h-12l-20 4l-4 -4l-32 4l-12 -4l-16 4q-17 -16 -56 -24q-15 11 -52 16v-4l-32 4q-12 0 -12 -8l-36 8q-40 0 -44 68h4q4 52 16 52h4l24 -4l44 12q0 -7 60 -8q20 0 24 12l4 -4l32 4q13 0 28 -16h4v8h4l12 -12h8
q37 28 56 28q41 -20 60 -20l68 8l28 -8h56l76 16h12q15 0 56 -28q32 12 84 12l80 -4l64 12l24 -12l12 4l16 -4l32 8l4 -4h36l44 4q16 -8 44 -8l36 8q48 0 72 -16l36 12l40 -4h4l4 4l24 -8l28 16l64 -12l32 8l16 -8l12 3v-126zM1470 -245l-9 2q-23 -12 -48 -12q-22 12 -44 12
l-124 -20l-60 16l-64 -8l-48 8l-28 -4l-4 4h-4l-16 -4l-12 4l-12 -4l-120 12l-36 -4h-16l-4 -4l-4 4h-40l-48 -12l-56 16l-36 -4h-4l-56 12l-36 -12h-40l-44 -8l-52 8h-16l-24 -4l-20 4h-8l-4 -4l-4 4h-16l-68 -16q-120 5 -120 20l-16 -8l-4 4h-4q-7 -8 -84 -12
q-32 4 -32 32v16l8 12v12l-8 32v8l8 8h28q40 1 40 8l32 -4l76 4l80 -16l56 16l60 -8l4 4h4l32 -12l68 12l28 -8l4 4h4l28 -8l84 16l28 -12h44q44 6 44 16q36 -4 36 -12q40 4 48 12q84 -4 84 -12l12 8l24 -8h12l12 8h20l44 4l4 -4h4l36 4h32l68 -16q56 4 56 24l24 -8l12 4
l24 -8l24 4q41 -5 48 -12h84l25 5v-115z" />
    <glyph glyph-name="s" unicode="s" horiz-adv-x="1113" 
d="M408 1434q90 -18 90 -36v-27q0 -68 -108 -100l-37 -109q52 -136 109 -136q7 -26 191 -72q140 -127 217 -127q0 -16 91 -91v-63q27 0 27 -18l-9 -37q36 -49 36 -163q-21 0 -36 -163q-92 -98 -172 -227q-206 -63 -281 -63h-9q-19 0 -28 54q16 91 82 91q90 0 100 82v81
q-43 172 -227 172q-9 29 -154 73q0 27 -145 81q-49 127 -72 127v46l-73 99l45 91l-27 91l27 9v45q120 191 200 227l9 -10h9q27 0 145 73zM934 1434h9q9 -63 27 -63l-9 -46l9 -54l-27 -100v-9l36 -100v-27q0 -43 -55 -90h-45v90q-108 174 -136 191q-151 74 -172 99v18
q0 73 36 73q177 -25 209 -55h36q0 59 82 73zM54 546h28q36 -10 72 -100v-9l-9 -45q59 -50 100 -191v-9h45l145 -108v-46q0 -27 -100 -27q-5 22 -63 45l-9 -9h-9q-55 22 -55 37q-60 0 -108 -73h-28l-27 45l9 46l-18 18v63l-18 55l18 72v64l-9 36q12 136 36 136zM1129 1574
l-33 -3l-12 4l-12 -4l-16 4h-4l-4 -4l-28 4l-48 -8l-64 8l-60 -16l-124 20q-22 0 -44 -12q-25 0 -48 12l-64 -12l-92 8v-4h-8l-12 8l-32 -8h-20l-24 8l-68 -8l-56 12l-32 -4l-44 4l-48 -12l-16 4l-128 -11v126l4 1h4l8 -8q54 0 76 20l16 -4l20 4q0 -8 52 -12l12 4l52 -12
l32 12h32l16 4q60 -5 60 -16l84 12l72 -4l64 8l56 -12h84q7 7 48 12l24 -4l24 8l12 -4l24 8q0 -20 56 -24l68 16h32l36 -4h4l4 4l44 -4h20l1 -1v-120zM1129 -248q-59 -2 -126 -15l-44 16l-52 -8l-32 4l-24 -8h-16q-19 0 -40 12l-36 -4q0 5 -40 16q-21 -5 -32 -20l-16 -4
l-28 4l-4 -4l-144 12l-16 -4l-48 12l-44 -4l-32 4l-56 -12l-68 8l-24 -8h-20l-32 8l-12 -8h-8v4l-92 -8l-55 10v115l31 7l64 -8l72 4l84 -12q0 11 60 16l16 -4h32l32 -12l52 12l12 -4q52 4 52 12l20 -4l16 4q22 -20 76 -20l8 8h4l16 -4l16 8l32 -8l64 12l28 -16l24 8l4 -4h4
l40 4l36 -12q24 16 72 16l36 -8q28 0 44 8l44 -4h36l4 4l10 -2v-119z" />
    <glyph glyph-name="t" unicode="t" horiz-adv-x="1350" 
d="M85 1434l75 -9l65 9q92 0 103 -122l-93 -56v-18q0 -88 -56 -141q0 -187 -66 -187h-28q-34 0 -56 131l9 10v9l-9 56l9 131l-9 9v10l9 28q-21 0 -37 112q0 28 84 28zM926 1568q-3 -1 -5 -1q-77 4 -84 12h-4l-4 -4l-16 8q0 -15 -120 -20l-68 16h-16l-4 -4l-4 4h-8l-20 -4
l-24 4h-16l-52 -8l-44 8h-40l-36 12l-56 -12h-4l-36 4l-56 -16l-48 12h-40l-4 -4l-4 4h-16l-36 4l-87 -9v120l11 -7h12l24 8l12 -8q0 8 84 12q8 -8 48 -12q0 8 36 12q0 -10 44 -16h44l28 12l84 -16l28 8h4l4 -4l28 8l68 -12l32 12h4l4 -4l60 8l56 -16l80 16l76 -4l32 4
q0 -7 40 -8h2l7 12q46 0 80 -12q46 0 60 16h20l68 -12h12l44 12q85 -13 100 -24h16q20 0 24 12h4l4 -4h16v-120h-4l-24 4l-28 -8q-53 8 -64 16h-4l-4 -4l-88 8q-51 0 -64 -16h-8l-16 12l-24 -8l-4 4h-12q-25 -8 -96 -12zM916 -251h-4l-36 -8q0 8 -12 8l-32 -4v4
q-37 -5 -52 -16q-39 8 -56 24l-16 -4l-12 4l-32 -4l-4 4l-20 -4h-12l-56 4l-4 -4h-4l-24 8l-72 -12h-12l-32 8h-20q-29 0 -72 -12l-12 4l-56 -4h-16l-64 16q-71 -20 -96 -20q0 12 -16 12l-24 -4l-32 4l-4 -4l-4 4h-4q-15 0 -30 -1v119l22 -6l16 4l12 -4l24 12l64 -12l80 4
q52 0 84 -12q41 28 56 28h12l76 -16h56l28 8l68 -8q19 0 60 20q20 0 56 -28h8l12 12h4v-8h4q16 16 28 16l32 -4l4 4q4 -12 24 -12q60 1 60 8l44 -12l24 4h6q7 1 16 1l60 -16h16l72 -8l44 8l24 -4l120 20h20q8 -11 64 -15v-116l-48 15l-84 -24l-112 12q-4 -12 -24 -12h-16
q-21 0 -36 12l-84 -12q-46 0 -54 19zM1030 1425h140q47 -90 47 -197q-28 -49 -28 -131l19 -37l-38 -150h-47q-28 0 -46 103l18 19q0 171 -84 215q0 56 -65 56l-10 9v10l19 37l-9 47zM674 1425l38 -10l47 10q46 0 93 -47l-9 -178l9 -84l-19 -47l28 -168q-21 0 -28 -66l10 -28
l-19 -56v-9l9 -28l-18 -197q22 -29 37 -205l-9 -38l9 -28l-19 -19v-46q10 -30 103 -56l10 -47v-19q-25 0 -47 -47h-28l-56 10q-42 -19 -122 -19l-56 19v-10l-9 10h-19l-75 -19q-45 0 -112 47l-94 -28q0 23 -37 28v18q28 0 28 47q44 0 65 122l10 9v84q0 194 37 215v10
q-18 118 -56 140v9q28 35 28 66v65l-19 150v9q0 65 57 141q0 142 -28 262h9l178 -10q0 25 74 38z" />
    <glyph glyph-name="u" unicode="u" horiz-adv-x="1349" 
d="M555 1434q85 0 90 -100q-99 -56 -99 -190l-27 -100l27 -99l-9 -145l18 -28l-27 -81v-64l18 -244v-55q28 -199 99 -199q28 0 28 -18v-64q0 -18 -28 -18l-45 9l-118 -36q-135 105 -253 118l-82 81l-27 164l9 9v9l-9 27l18 190q-30 0 -36 118v27l27 245l-36 136v36
q0 47 27 82v36q-94 21 -118 54q0 37 45 37l9 45h64l100 9q27 -18 145 -27zM1044 1434q94 0 136 -54q64 0 64 -28q-145 -176 -145 -262l9 -9v-10l-37 -81l37 -136l-37 -209q28 -45 37 -126l-27 -164h9l-37 -72l9 -9v-9q-81 -227 -163 -227l-136 9v91q50 0 173 91v54
q81 61 81 145l-36 172q0 290 36 290l-9 64v54l-18 27l18 36q-15 19 -27 155q-36 0 -36 18l9 36q-109 32 -109 45l-9 27q0 37 136 55zM1364 -263l-33 -3l-8 8l-8 -8l-40 4h-36l-40 -20l-64 16l-4 -4h-4l-32 12h-44l-16 -8l-16 8l-36 -4l-4 4l-32 -8h-12l-48 12l-40 -8l-16 4
l-56 -12l-4 4h-4l-28 -8l-12 4l-28 -8l-36 12h-64l-24 4l-56 -8l-68 16l-64 -8l-28 4l-16 -4l-20 4l-20 -12l-20 12q-46 -4 -60 -16l-60 8l-36 -8l-12 12h-12l-12 -12l-16 4l-24 -4l-52 12v-4l-16 5v116q22 -1 52 -1h48l36 4q56 -6 56 -12l80 8l28 -8q19 12 72 12h4l40 -12
h32l52 16h48l16 -4l4 4l60 -4l100 12l120 -24l44 4l24 -8h4l4 4l32 -8q0 9 68 24q15 16 32 20q29 -28 60 -28l20 12q9 -13 60 -24l48 12l44 -4h20l24 12q19 -12 36 -12h13v-113zM1368 1575h-5l-40 -4l-8 8l-8 -8l-48 4h-40l-20 4l-12 -12l-36 12l-16 -4h-4l-4 4l-24 -12
l-44 8l-28 -4l-56 16l-112 -16l-4 4l-20 -4l-24 4l-60 -8q-31 0 -72 12h-4q-15 -12 -28 -12h-12q-24 0 -48 24l-48 -8l-16 4l-16 -4h-32q-23 -16 -36 -16l-32 4h-4l-4 -4l-20 12l-24 -12l-24 8q-15 -12 -36 -12h-12l-32 12q-80 0 -156 -12q-37 0 -64 24q0 -15 -52 -20v120
q0 8 92 20l24 -4h4l4 4q16 -6 16 -12l28 4h28l104 -20l40 16v-4q38 0 72 12l40 -8q76 0 116 16q80 -28 108 -28h20q48 16 92 20l12 -12h12v8h12q0 -12 20 -12h8l4 4l20 -12h12q8 8 32 8l20 20l112 -28h4l52 24l4 -4h36q6 0 12 -16l88 12q22 -8 56 -8q17 0 36 12l24 -12h21
v-112z" />
    <glyph glyph-name="v" unicode="v" horiz-adv-x="1322" 
d="M316 1434q344 -25 344 -46v-56l-65 -65v-37l18 -19l-9 -65q7 -130 37 -130l-9 -47v-18l28 -84q46 0 121 -260l-10 -84q19 0 19 -93l37 -46q-28 -45 -28 -121v-65q-77 -176 -111 -176l-130 -19q-92 9 -121 37l9 56q0 92 -65 149l9 9v18q-102 365 -167 484l19 28
q-19 139 -93 288v93q0 85 -130 139l-19 56q22 55 37 55h9l75 -18h46l65 18l56 -9zM1096 1434h38q83 0 83 -46q0 -103 -83 -103l-121 -139q0 -180 -65 -251l-9 -84q0 -46 18 -46q-46 -99 -74 -242h-10l-27 19l37 56q-37 67 -47 167l10 56l-10 28q0 76 65 158l19 130v46
q0 80 -84 130l-46 65l9 28zM1343 -270q-4 0 -9 -1l-28 8l-24 -4q-56 4 -56 20q-27 -24 -64 -24q-76 12 -156 12l-32 -12h-12q-21 0 -36 12l-24 -8l-24 12l-20 -12l-4 4h-4l-32 -4q-13 0 -36 16h-32l-16 4l-16 -4l-48 8q-24 -24 -48 -24h-12q-13 0 -28 12h-4q-41 -12 -72 -12
l-60 8l-24 -4l-20 4l-4 -4l-112 16l-56 -16l-28 4l-44 -8l-24 12l-4 -4h-4l-16 4l-36 -12l-12 12l-20 -4h-40l-15 -1v113q25 2 43 8l88 -12q6 16 12 16h36l4 4l52 -24h4l112 28l20 -20q24 0 32 -8h12l20 12l4 -4h8q20 0 20 12h12v-8h12l12 12q44 -4 92 -20h20q28 0 108 28
q40 -16 116 -16l40 8q34 -12 72 -12v4l40 -16l104 20h28l28 -4q0 6 16 12l4 -4h4l24 4q92 -12 92 -20h16l4 4h4q4 -12 24 -12h16l1 1v-116zM1343 1589l-17 5l-64 -20v4l-52 -12l-24 4l-16 -4l-12 12h-12l-12 -12l-36 8l-60 -8q-14 12 -60 16l-20 -12l-20 12l-20 -4l-16 4
l-28 -4l-64 8l-68 -16l-56 8l-24 -4h-64l-36 -12l-28 8l-12 -4l-28 8h-4l-4 -4l-56 12l-16 -4l-40 8l-48 -12h-12l-32 8l-4 -4l-36 4l-16 -8l-16 8h-44l-32 -12h-4l-4 4l-64 -16l-40 20h-31v112l43 4l48 -12q51 11 60 24l20 -12q31 0 60 28q17 -4 32 -20q68 -15 68 -24l32 8
l4 -4h4l24 8l44 -4l120 24l100 -12l60 4l4 -4l16 4h48l52 -16h32l40 12h4q53 0 72 -12l28 8l80 -8q0 6 56 12l36 -4h48q105 0 116 16h1v-121z" />
    <glyph glyph-name="w" unicode="w" horiz-adv-x="1791" 
d="M952 1435q120 0 120 -111q27 0 74 -167q37 -19 37 -46h9l-18 -111q0 -90 83 -231l-9 -28l27 -56l-9 -46l28 -129h-9l9 -10v-9l-9 -102l18 -83q0 -164 -129 -259q0 -24 -47 -46q-157 48 -157 65q-9 69 -74 222l9 37l-18 55v19l18 27q-27 0 -37 84q-34 0 -101 203l18 56
l-18 27l-10 167l10 65l-10 37q28 0 28 129q19 0 19 56q27 0 27 92l10 28q37 0 46 55zM366 1566q-14 -8 -45 -8l-84 12q-15 -12 -36 -12h-16q-20 0 -24 12l-112 -12l-67 19v121h19l120 -20l24 4l44 -8l72 8h16l60 16q11 0 21 -2q12 5 30 5l60 -16h16l72 -8l44 8l24 -4l120 20
h20q11 -16 116 -16h48l36 4q56 -6 56 -12l80 8l28 -8q19 12 72 12h4l40 -12h32l52 16h48l16 -4l4 4l60 -4l100 12l120 -24l44 4l24 -8h4l4 4l32 -8q0 7 45 19v-119h-1l-4 4l-32 -8h-12l-48 12l-40 -8l-16 4l-56 -12l-4 4h-4l-28 -8l-12 4l-28 -8l-36 12h-64l-24 4l-56 -8
l-68 16l-64 -8l-28 4l-16 -4l-20 4l-20 -12l-20 12q-46 -4 -60 -16l-60 8l-36 -8l-12 12h-12l-12 -12l-16 4l-24 -4l-52 12v-4l-64 20l-84 -24l-112 12q-4 -12 -24 -12h-16q-21 0 -36 12l-84 -12q-25 0 -38 5zM385 -264v-3l-28 -16q-71 4 -96 12h-12l-4 -4l-24 8l-16 -12h-8
q-13 16 -64 16l-88 -8l-4 4h-4q-10 -7 -55 -15v116q17 10 99 23l44 -12h12l68 12h20q15 -16 60 -16q34 12 80 12l3 -5q7 4 16 4l36 8q0 -8 12 -8l32 4v-4q37 5 52 16q39 -8 56 -24l16 4l12 -4l32 4l4 -4l20 4h12l56 -4l4 4h4l24 -8l72 12h12l32 -8h20q29 0 72 12l12 -4l56 4
h16l64 -16q71 20 96 20q0 -12 16 -12l24 4l32 -4l4 4l4 -4h4q73 0 156 16l44 -16l52 8l32 -4l24 8h16q20 0 40 -12l36 4q0 -5 40 -16q21 5 32 20l16 4l28 -4l1 1v-124l-9 -5l-32 8l-64 -12l-28 16l-24 -8l-4 4h-4l-40 -4l-36 12q-24 -16 -72 -16l-36 8q-28 0 -44 -8l-44 4
h-36l-4 -4l-32 8l-16 -4l-12 4l-24 -12l-64 12l-80 -4q-52 0 -84 12q-41 -28 -56 -28h-12l-76 16h-56l-28 -8l-68 8q-19 0 -60 -20q-19 0 -56 28h-8l-12 -12h-4v8h-4q-15 -16 -28 -16l-32 4l-4 -4q-4 12 -24 12q-60 -1 -60 -8l-44 12h-3zM230 1416h111l194 -37q50 37 84 37
l37 -65v-27q-37 0 -74 -111v-19l37 -148q27 0 27 -28l-9 -9v-9l28 -93l-9 -27l55 -250l9 -9q0 -45 37 -84v-9l-46 -185v-74q-74 -90 -74 -250q-240 18 -240 84l-28 55l18 74q0 49 -83 102l-18 129l9 74l-19 28v102h-18v55q0 38 -65 102q0 46 -28 46v28q-27 173 -74 315v74
q-1 17 -92 55v9q18 50 46 56l102 -9h9zM1636 1425q37 -9 37 -55v-9q-39 -45 -139 -84q0 -72 -92 -249v-47h-19v-74l-27 -92h9q-24 -84 -56 -111q-18 0 -27 92q-15 0 -47 65v37q74 129 74 194l-9 37l65 56v18q0 89 -148 130l-9 9v28q0 23 83 37l46 -19l37 19l65 -19
q111 10 157 37z" />
    <glyph glyph-name="x" unicode="x" horiz-adv-x="1355" 
d="M294 1434l9 -9h10l64 9l148 -55l46 27l9 -9h65l9 -46q-37 -39 -37 -92v-37l9 -9v-10l-9 -9q46 0 102 -194l-10 -37l120 -138q46 -191 129 -314q0 -40 56 -55l83 -175q18 -97 129 -157l-65 -92l-73 18h-28l-65 -46l-138 37h-18q-34 -28 -65 -28l-55 9v-9q-176 38 -176 83
q65 43 65 139q-18 0 -46 101q-66 21 -129 175q-13 93 -47 139l-83 138q-99 269 -129 295q-25 0 -55 65v9l9 83q0 41 -101 65q0 46 -28 46q18 51 46 74q36 -19 102 -19h18zM866 1425h9l74 -19l37 10l148 -19v9l37 -27v-28q0 -74 -83 -74q-22 -30 -83 -46q-60 -164 -176 -249
q-46 24 -46 74l19 18v111q27 0 27 18v74q-55 36 -55 74q0 74 92 74zM359 475q37 -39 37 -93q-102 -135 -102 -203q43 0 65 -55q42 0 74 -55q-19 -58 -47 -65h-18q-21 18 -120 37l-92 -19l-74 10v-10q-38 13 -55 47v9q13 30 166 138q80 197 129 259h18l10 9zM1368 -272
q-2 -2 -2 -4q-36 4 -36 12q-40 -4 -48 -12q-84 4 -84 12l-12 -8l-24 8h-12l-12 -8h-20l-44 -4l-4 4h-4l-36 -4h-32l-68 16q-56 -4 -56 -24l-24 8l-12 -4l-24 8l-24 -4q-41 5 -48 12h-84l-56 -12l-64 8l-72 -4l-84 12q0 -11 -60 -16l-16 4h-32l-32 12l-52 -12l-12 4
q-52 -4 -52 -12l-20 4l-16 -4q-22 20 -76 20l-8 -8h-4l-16 4l-7 -3v124l3 3l144 -12l16 4l48 -12l44 4l32 -4l56 12l68 -8l24 8h20l32 -8l12 8h8v-4l92 8l64 -12q23 12 48 12q22 -12 44 -12l124 20l60 -16l64 8l48 -8l28 4l4 -4h4l16 4l12 -4l12 4l120 -12l36 4h16l4 4l4 -4
h40l42 11v-127zM1368 1565l-22 -8h-12q-21 0 -36 12l-24 -8l-24 12l-20 -12l-4 4h-4l-32 -4q-13 0 -36 16h-32l-16 4l-16 -4l-48 8q-24 -24 -48 -24h-12q-13 0 -28 12h-4q-41 -12 -72 -12l-60 8l-24 -4l-20 4l-4 -4l-112 16l-56 -16l-28 4l-44 -8l-24 12l-4 -4h-4l-16 4
l-36 -12l-12 12l-20 -4h-40l-48 -4l-8 8l-8 -8l-40 4h-36l-40 -20l-64 16l-4 -4h-4l-32 12h-44l-16 -8l-16 8l-35 -4v119q10 2 23 5q15 16 32 20q29 -28 60 -28l20 12q9 -13 60 -24l48 12l44 -4h20l24 12q19 -12 36 -12q34 0 56 8l88 -12q6 16 12 16h36l4 4l52 -24h4l112 28
l20 -20q24 0 32 -8h12l20 12l4 -4h8q20 0 20 12h12v-8h12l12 12q44 -4 92 -20h20q28 0 108 28q40 -16 116 -16l40 8q34 -12 72 -12v4l40 -16l18 3v-111z" />
    <glyph glyph-name="y" unicode="y" horiz-adv-x="1349" 
d="M1017 1434l74 -18l128 9l18 -55q0 -66 -73 -83v9q-128 -90 -128 -174q-74 -147 -111 -266q-25 0 -45 -73h-19v9l9 92q-27 9 -27 55l101 257q0 88 -119 137l-10 9v9q0 50 37 65h73q92 0 92 18zM734 -258l-6 -6h-28q-40 -1 -40 -8l-32 4l-76 -4l-80 16l-56 -16l-60 8l-4 -4
h-4l-32 12l-68 -12l-28 8l-4 -4h-4l-28 8l-84 -16l-28 12h-44q-35 -5 -42 -12v127l6 1l56 -16l36 4h4l56 -12l36 12h40l44 8l52 -8h16l24 4l20 -4h8l4 4l4 -4h16l68 16q120 -5 120 -20l16 8l4 -4h4q7 8 84 12q7 -1 13 -3q8 7 23 9q77 -4 84 -12h4l4 4l16 -8q0 15 120 20
l68 -16h16l4 4l4 -4h8l20 4l24 -4h16l52 8l44 -8h40l36 -12l56 12h4l16 -2l1 -102h-5l-28 -12l-84 16l-28 -8h-4l-4 4l-28 -8l-68 12l-32 -12h-4l-4 4l-60 -8l-56 16l-80 -16l-76 4l-32 -4q0 7 -40 8h-10zM735 1572l-27 -15q-71 4 -96 12h-12l-4 -4l-24 8l-16 -12h-8
q-13 16 -64 16l-88 -8l-4 4h-4q-11 -8 -64 -16l-28 8l-24 -4q-56 4 -56 20q-27 -24 -64 -24q-76 12 -156 12l-10 -4v111l86 17h28l28 -4q0 6 16 12l4 -4h4l24 4q92 -12 92 -20h16l4 4h4q4 -12 24 -12h16q15 11 100 24l44 -12h12l68 12h20q15 -16 60 -16q34 12 80 12l3 -5
q2 2 5 2h4l24 -4l44 12q0 -7 60 -8q20 0 24 12l4 -4l32 4q13 0 28 -16h4v8h4l12 -12h8q37 28 56 28q41 -20 60 -20l68 8l28 -8h56l76 16h12q13 0 43 -20l1 -118l-32 2l-12 -4q-43 12 -72 12h-20l-32 -8h-12l-72 12l-24 -8h-4l-4 4l-56 -4h-12l-20 4l-4 -4l-32 4l-12 -4
l-16 4q-17 -16 -56 -24q-15 11 -52 16v-4l-32 4q-12 0 -12 -8l-36 8q-7 0 -13 2zM247 1425l46 -19l311 19l37 -9v-10l-9 -36l18 -55q-46 -12 -46 -28q0 -79 83 -302q50 -120 110 -211q6 -92 18 -92l-9 -9q0 -138 55 -285q-36 -54 -46 -156q25 -66 120 -101
q-36 -110 -55 -110l-221 28l-128 -46l-128 55l-101 -9h-9l-19 18v9l46 83l9 -9h28q36 18 36 55l-18 128l28 110q-10 37 -37 37v18q46 0 46 28v55q-32 64 -83 64v46q-73 65 -73 183q-12 0 -74 184q-30 27 -137 248q-46 10 -46 73l9 9h9l110 -18z" />
    <glyph glyph-name="z" unicode="z" horiz-adv-x="1144" 
d="M111 1434l111 -37h56l157 -9v-10q0 -111 -102 -111l-120 -101q0 -83 -111 -148l-19 -47q-64 16 -64 28l18 37l-9 65l18 55l-9 10v9l28 65v9q-37 60 -37 92v47q25 46 83 46zM601 1406q61 -28 130 -28l111 28q157 -6 157 -37q-14 -111 -46 -111l9 -65q-74 -206 -129 -249
l-28 -121v-64q-111 -84 -111 -185q-94 -134 -148 -343q-31 -3 -74 -166v-46l-46 -10l-259 37h-84l-37 -9q-46 0 -46 93l19 46h-10q0 18 93 92l74 176l-9 46l203 407q0 98 102 250l-9 9v10q18 21 37 175zM944 453h18l37 -27l-18 -139l46 -241l-19 -18l-74 9l-37 -28l-83 10
l-83 -19q-204 15 -204 37q25 111 84 111l138 46q28 0 28 47q79 0 111 175q9 37 56 37zM1171 1578l-44 -5l-56 12l-32 -4l-44 4l-48 -12l-16 4l-144 -12l-4 4l-28 -4l-16 4q-11 15 -32 20q-40 -11 -40 -16l-36 4q-20 -12 -40 -12h-16l-24 8l-32 -4l-52 8l-44 -16
q-83 16 -156 16h-4l-4 -4l-4 4l-32 -4l-24 4q-16 0 -16 -12q-25 0 -96 20l-64 -16h-16l-24 2l-1 118q6 -3 13 -8q32 12 84 12l80 -4l64 12l24 -12l12 4l16 -4l32 8l4 -4h36l44 4q16 -8 44 -8l36 8q48 0 72 -16l36 12l40 -4h4l4 4l24 -8l28 16l64 -12l32 8l16 -8l16 4h4l8 -8
q54 0 76 20l16 -4l20 4q0 -8 52 -12l12 4l52 -12l32 12h32l16 4q29 -2 44 -6v-117zM1163 -263h-32l-16 -4q-60 5 -60 16l-84 -12l-72 4l-64 -8l-56 12h-84q-7 -7 -48 -12l-24 4l-24 -8l-12 4l-24 -8q0 20 -56 24l-68 -16h-32l-36 4h-4l-4 -4l-44 4h-20l-12 8h-12l-24 -8
l-12 8q0 -8 -84 -12q-8 8 -48 12q0 -8 -36 -12q0 10 -44 16h-39l-1 102l20 -2l56 16l48 -12h40l4 4l4 -4h16l36 -4l120 12l12 -4l12 4l16 -4h4l4 4l28 -4l48 8l64 -8l60 16l124 -20q22 0 44 12q25 0 48 -12l64 12l92 -8v4h8l12 -8l32 8h20l24 -8l68 8l51 -11l-1 -112z" />
    <glyph glyph-name="braceleft" unicode="{" horiz-adv-x="236" 
d="M121 1688q21 2 21 7l32 -4l91 1h1v-127q-45 6 -45 15l-31 -5l-4 4h-4q-5 -6 -46 -9q5 -30 15 -43q-8 -39 -24 -56l4 -16l-4 -12l4 -32l-4 -4l4 -20v-12l-4 -56l4 -4v-4l-8 -24l12 -72v-12l-8 -32v-20q0 -29 12 -72l-4 -12l4 -56v-16l-16 -64q20 -71 20 -96q-12 0 -12 -16
l4 -24l-4 -32l4 -4l-4 -4v-4q0 -72 16 -156l-16 -44l8 -52l-4 -32l8 -24v-16q0 -19 -12 -40l4 -36q-5 0 -16 -40q5 -21 20 -32l4 -16l-4 -28l4 -4l-12 -144l4 -16l-12 -48l4 -44l-4 -32l12 -56l-4 -34l30 -6l71 13l34 -5l-2 -111l-4 -4l-4 4h-16l-83 -13q-47 2 -75 5v10
l-70 4l11 77q-11 0 -16 60l4 16v32l12 32l-12 52l4 12q-4 52 -12 52l4 20l-4 16q20 22 20 76l-8 8v4l4 16l-8 16l8 32l-12 64l16 28l-8 24l4 4v4l-4 40l12 36q-16 24 -16 72l8 36q0 28 -8 44l4 44v36l-4 4l8 32l-4 16l4 12l-12 24l12 64l-4 80q0 52 12 84q-28 41 -28 56v12
l16 76v56l-8 28l8 68q0 19 -20 60q0 20 28 56v8l-12 12v4h8v4q-16 16 -16 28l4 32l-4 4q12 4 12 24q-1 60 -8 60l12 44l-4 24v4q0 12 52 16v4q37 -2 54 -15z" />
    <glyph glyph-name="bar" unicode="|" horiz-adv-x="363" 
d="M108 1467q0 -13 97 -20v-26l7 -25l-15 -39l15 -20l-15 -38l8 -46l-8 -71l15 -71l-7 -32l15 -110l-15 -52l7 -6l-15 -142l23 -91l-30 -13v-12l15 -52v-104l15 -103l-15 -71l15 -97l-15 -45l15 -13q0 -13 -23 -13l15 -97l-15 -77l8 -65v-7l-52 -6q-104 0 -104 45l-23 84
l15 71l-22 58v20l15 64l-15 39l15 104l-8 6v7l8 25l-8 20l8 32l-15 103l7 46l-7 142h-7l22 64l-15 91l7 19q-9 67 -22 78v6q0 46 37 175l-15 142q0 97 82 123zM-12 1677h1l5 4l109 -8q63 0 79 16h10l19 -12l30 8l5 -4h15q31 8 118 12l35 -16v-4l-5 -4q-20 -6 -20 -12v-4
l15 -12l-10 -28v-4q0 -8 15 -8v-16l-20 -28q-56 0 -98 12q-56 0 -75 -16h-24l-84 12h-15l-54 -12q-29 4 -51 7v117zM-12 -156l67 -9l29 4l55 -8l89 8h19l74 16q55 0 70 -32q-25 -30 -25 -64l5 -16q0 -28 -69 -28l-104 12q-19 -12 -45 -12h-19q-25 0 -30 12l-116 -10v127z
" />
    <glyph glyph-name="braceright" unicode="}" horiz-adv-x="266" 
d="M101 1703v-4q52 -4 52 -16v-4l-4 -24l12 -44q-7 0 -8 -60q0 -20 12 -24l-4 -4l4 -32q0 -12 -16 -28v-4h8v-4l-12 -12v-8q28 -36 28 -56q-20 -41 -20 -60l8 -68l-8 -28v-56l16 -76v-12q0 -15 -28 -56q12 -32 12 -84l-4 -80l12 -64l-12 -24l4 -12l-4 -16l8 -32l-4 -4v-36
l4 -44q-8 -16 -8 -44l8 -36q0 -48 -16 -72l12 -36l-4 -40v-4l4 -4l-8 -24l16 -28l-12 -64l8 -32l-8 -16l4 -16v-4l-8 -8q0 -54 20 -76l-4 -16l4 -20q-8 0 -12 -52l4 -12l-12 -52l12 -32v-32l4 -16q-5 -60 -16 -60l11 -77l-70 -4v-10q-28 -3 -75 -5l-68 16h-16l-4 -4l-4 4
l-2 111l34 5l56 -16l30 6l-4 34l12 56l-4 32l4 44l-12 48l4 16l-12 144l4 4l-4 28l4 16q15 11 20 32q-11 40 -16 40l4 36q-12 21 -12 40v16l8 24l-4 32l8 52l-16 44q16 84 16 156v4l-4 4l4 4l-4 32l4 24q0 16 -12 16q0 25 20 96l-16 64v16l4 56l-4 12q12 43 12 72v20l-8 32
v12l12 72l-8 24v4l4 4l-4 56v12l4 20l-4 4l4 32l-4 12l4 16q-16 17 -24 56q10 13 15 43q-41 3 -46 9h-4l-4 -4l-16 8q0 -9 -45 -15v127h1l76 -4l32 4q0 -5 21 -7q17 13 54 15z" />
    <glyph glyph-name="cent" unicode="&#xa2;" horiz-adv-x="911" 
d="M446 1449l25 -92q0 -35 -59 -117l-50 9v-9l-25 9l-8 183q46 17 117 17zM679 -262l-3 1l-44 -12q0 7 -60 8q-20 0 -24 -12l-4 4l-32 -4q-12 0 -28 16h-4v-8h-4l-12 12h-8q-36 -28 -56 -28q-41 20 -60 20l-68 -8l-28 8h-56l-76 -16h-12q-15 0 -56 28q-24 -9 -60 -11v115
l32 8h16l56 -4l12 4q43 -12 72 -12h20l32 8h12l72 -12l24 8h4l4 -4l56 4h12l20 -4l4 4l32 -4l12 4l16 -4q17 16 56 24q15 -11 52 -16v4l32 -4q12 0 12 8l36 -8q6 0 12 -2q13 11 48 11l84 -12q15 12 36 12h16q20 0 24 -12l38 4v-112l-22 -4l-44 8l-72 -8h-16l-60 -16
q-30 0 -45 14zM705 1568q-7 -4 -17 -5q-77 4 -84 12h-4l-4 -4l-16 8q0 -15 -120 -20l-68 16h-16l-4 -4l-4 4h-8l-20 -4l-24 4h-16l-52 -8l-44 8h-40l-36 12l-56 -12h-4l-36 4l-48 -14v119q11 -3 28 -5h44l28 12l84 -16l28 8h4l4 -4l28 8l68 -12l32 12h4l4 -4l60 8l56 -16
l80 16l76 -4l32 4q0 -7 40 -8h22q8 5 19 5l36 8q0 -8 12 -8l32 4v-4q37 5 52 16q39 -8 56 -24l16 4l9 -3v-108l-9 -9h-4v8h-4q-15 -16 -28 -16l-32 4l-4 -4q-4 12 -24 12q-60 -1 -60 -8l-44 12zM337 163l75 -8l9 8l16 -100q-4 -75 -25 -75h-16l-9 8l-8 -8h-33l-25 117
q6 58 16 58zM746 1232l34 -167v-184q0 -50 -67 -58l-25 33l8 42v17h-16v8l16 17q-108 183 -142 183q-41 0 -100 34q-125 0 -125 -167l-8 -34v-41l41 -50l-16 -25l16 -25q-6 -103 -33 -184l8 -150h9l-9 -9v-8q0 -121 142 -167l34 8q33 -2 33 -16q88 35 142 141l42 67
q23 0 41 -41q-10 -92 -183 -243l-67 17l-84 -33q-116 0 -150 58q-150 0 -183 117q-76 77 -109 367q25 40 25 126v8l-8 33q0 38 58 75q0 94 209 201q0 27 150 33q102 0 200 -42h26q16 0 33 51z" />
    <glyph glyph-name="brokenbar" unicode="&#xa6;" horiz-adv-x="339" 
d="M91 1502l15 -15h37l7 8q60 0 60 -67l-15 -60q21 -82 37 -96l-30 -45l-7 -74q17 0 22 -52l-15 -30l8 -22l-8 -45l15 -52q-20 0 -37 -74l-30 -7l-7 7h-8l-89 -15l-22 37l15 90l-37 81v8q20 109 52 119l-45 111q5 45 22 45l-22 29l8 8v7l-8 82q31 22 82 22zM61 596l37 -8
l75 8h7q17 0 37 -112l8 -7q0 -62 -38 -111l23 -104l-15 -60l15 -30l-8 -37l15 -29l-15 -75h8q-18 -52 -45 -52l-44 15h-97v30q30 44 30 119q-28 55 -45 252q13 0 22 67q-14 34 -14 97q12 37 44 37zM354 1560q-48 9 -59 17h-16q-20 0 -24 -12h-4l-4 4h-16q0 -8 -92 -20l-24 4
h-4l-4 -4q-16 6 -16 12l-28 -4h-28l-47 9v115q65 2 127 12q37 0 64 -24q0 16 56 20l24 -4l28 8q53 -8 64 -16h3v-117zM354 -283l-18 -2l-84 24l-64 -20v4l-52 -12l-24 4l-16 -4l-12 12h-12l-12 -12l-36 8l-39 -5v120l27 -3q0 6 56 12l36 -4h48q105 0 116 16h20l66 -11v-127z
" />
    <glyph glyph-name="section" unicode="&#xa7;" horiz-adv-x="965" 
d="M473 1434q258 -67 258 -94l8 -63q-90 -109 -117 -109q-40 0 -79 70q-86 47 -141 47q-62 -10 -62 -62q19 -102 141 -102q41 -94 125 -94q72 -77 180 -141l8 -39v-8l-8 -47q14 -53 63 -71l8 -39l-16 -47l8 -39l-102 -297q-10 -38 -141 -102l-102 -118l-109 -47
q-53 -25 -173 -31q-17 2 -55 47q-86 23 -86 39v16q32 21 32 94q49 62 86 62h23q45 0 55 -54q18 0 94 -71q98 0 125 71v31q-92 0 -203 164q-141 34 -204 118q0 17 -86 117v24l8 62l-8 63v24l31 101l-8 8v8l16 70l-8 24q39 0 39 39v8l-7 8q146 282 258 282q37 0 149 78z
M167 1074l-23 -94l8 -8l-16 -47q45 -147 165 -219q101 -43 101 -86q133 -12 133 -71l134 -196h31l8 47q-16 139 -102 220q-22 64 -125 117l-71 71l-8 -8q-47 4 -47 47q-98 70 -133 125q-37 102 -55 102zM995 1568h-3l-36 12q-24 -16 -72 -16l-36 8q-28 0 -44 -8l-44 4h-36
l-4 -4l-32 8l-16 -4l-12 4l-24 -12l-64 12l-80 -4q-52 0 -84 12q-41 -28 -56 -28h-12l-76 16h-56l-28 -8l-68 8q-19 0 -60 -20q-19 0 -56 28h-8l-3 -3v108l3 -1l32 4l4 -4l20 4h12l56 -4l4 4h4l24 -8l72 12h12l32 -8h20q29 0 72 12l12 -4l56 4h16l64 -16q71 20 96 20
q0 -12 16 -12l24 4l32 -4l4 4l4 -4h4q73 0 156 16l44 -16l52 8l32 -4l24 8h7v-128zM995 -261l-76 -15l-100 12l-60 -4l-4 4l-16 -4h-48l-52 16h-32l-40 -12h-4q-53 0 -72 12l-28 -8l-80 8q0 -6 -56 -12l-36 4h-48q-105 0 -116 -16h-20l-120 20h-2v112l74 8l84 -24l64 20v-4
l52 12l24 -4l16 4l12 -12h12l12 12l36 -8l60 8q14 -12 60 -16l20 12l20 -12l20 4l16 -4l28 4l64 -8l68 16l56 -8l24 4h64l36 12l28 -8l12 4l28 -8h4l4 4l12 -3v-122z" />
    <glyph glyph-name="plusminus" unicode="&#xb1;" horiz-adv-x="1014" 
d="M374 1346l152 -45l36 9l27 -62l-18 -170l18 -107l62 9q41 0 81 -27h9l152 18l9 -9v-9q-18 -20 -36 -143l9 -9v-9l-107 -18l-72 27q-105 -11 -125 -27l9 -89v-197l9 -62l-9 -9l-45 9h-27q-33 -27 -80 -27h-36q-47 0 -53 27v44l-9 161l18 107l-45 27l-54 -18l-152 9l-9 -9
h-9q-62 11 -62 27v45l-9 89q9 81 27 81h44l143 -18l9 9h9l9 -9h9l72 18l-9 53l27 107v108l-9 62zM544 363l161 -18l107 9l9 -9h9l27 9q45 -27 45 -143h9q0 -71 -72 -71l-143 -54q-62 45 -152 45q-13 -36 -62 -36h-27q-114 54 -286 54q0 -21 -116 -45l-27 9l18 98v54l-9 62
l62 18h45l36 -18l9 9l44 -9h170zM1032 1565l-16 5l-24 -4q-41 5 -48 12h-84l-56 -12l-64 8l-72 -4l-84 12q0 -11 -60 -16l-16 4h-32l-32 12l-52 -12l-12 4q-52 -4 -52 -12l-20 4l-16 -4q-22 20 -76 20l-8 -8h-4l-16 4l-16 -8l-32 8l-64 -12l-28 16l-24 -8l-4 4h-4l-37 -4
v128h9q20 0 40 -12l36 4q0 -5 40 -16q21 5 32 20l16 4l28 -4l4 4l144 -12l16 4l48 -12l44 4l32 -4l56 12l68 -8l24 8h20l32 -8l12 8h8v-4l92 8l64 -12q23 12 48 12q22 -12 44 -12l96 15v-136zM1029 -262h-6q0 12 -20 12h-8l-4 -4l-20 12h-12q-8 -8 -32 -8l-20 -20l-112 28
h-4l-52 -24l-4 4h-36q-6 0 -12 16l-88 -12q-22 8 -56 8q-17 0 -36 -12l-24 12h-20l-44 -4l-48 12q-51 -11 -60 -24l-20 12q-31 0 -60 -28q-17 4 -32 20q-68 15 -68 24l-32 -8l-4 4h-4l-24 -8l-44 4l-44 -9v122l44 -9l16 4l40 -8l48 12h12l32 -8l4 4l36 -4l16 8l16 -8h44
l32 12h4l4 -4l64 16l40 -20h36l40 4l8 -8l8 8l48 -4h40l20 -4l12 12l36 -12l16 4h4l4 -4l24 12l44 -8l28 4l56 -16l112 16l4 -4l20 4l24 -4l14 2v-126z" />
    <glyph glyph-name="paragraph" unicode="&#xb6;" horiz-adv-x="902" 
d="M721 1434q107 0 116 -47l-23 -62l-70 16q-23 -6 -31 -31q-62 -16 -62 -31v-24l-8 -109l31 -93l-8 -8v-46l8 -8l-15 -47v-23l7 -8l-15 -62l15 -16v-7l-7 -31l7 -31l-23 -70v-117q23 -29 23 -70v-23q0 -49 -46 -164q6 -62 15 -62q-27 -101 -93 -101q-31 -23 -31 -54
q-33 -4 -78 -55q-48 0 -77 -38l-63 -16h-7q-119 0 -148 101l-23 23l7 47l-7 23q56 55 101 55l7 23h8q0 -117 187 -117l23 -7q93 81 93 132v54l-7 8v8l7 8h8l-8 46l8 70l-8 31l24 24q-16 101 -31 101q-101 -20 -101 -31l-8 7h-24q0 -29 -116 -39q0 33 -140 94q-16 0 -16 23
q-93 0 -93 86l-23 77l15 47v15q-23 30 -23 70q31 100 39 202q64 129 155 164q0 31 164 77h7l109 -23q37 20 249 39zM926 1572l-42 6l-4 -4h-4l-32 12l-68 -12l-28 8l-4 -4h-4l-28 8l-84 -16l-28 12h-44q-44 -6 -44 -16q-36 4 -36 12q-40 -4 -48 -12q-84 4 -84 12l-12 -8
l-24 8h-12l-12 -8h-20l-44 -4l-4 4h-4l-36 -4h-32l-68 16q-56 -4 -56 -24l-24 8l-12 -4l-8 3v136l28 5l60 -16l64 8l48 -8l28 4l4 -4h4l16 4l12 -4l12 4l120 -12l36 4h16l4 4l4 -4h40l48 12l56 -16l36 4h4l56 -12l36 12h40l44 8l52 -8h16l24 4l20 -4h8l4 4l4 -4h6v-114z
M923 -261q-56 10 -68 19h-16q-20 0 -24 -12h-4l-4 4h-16q0 -8 -92 -20l-24 4h-4l-4 -4q-16 6 -16 12l-28 -4h-28l-104 20l-40 -16v4q-38 0 -72 -12l-40 8q-76 0 -116 -16q-80 28 -108 28h-20q-48 -16 -92 -20l-12 12h-12v-8h-6v126l46 6q31 0 72 -12h4q15 12 28 12h12
q24 0 48 -24l48 8l16 -4l16 4h32q23 16 36 16l32 -4h4l4 4l20 -12l24 12l24 -8q15 12 36 12h12l32 -12q80 0 156 12q37 0 64 -24q0 16 56 20l24 -4l28 8q53 -8 64 -16h4l4 4h4v-123z" />
    <glyph glyph-name="periodcentered" unicode="&#xb7;" horiz-adv-x="553" 
d="M245 861q118 0 178 -215q-102 -161 -116 -161h-107q-40 45 -125 45q0 18 -36 18q-16 91 -36 116q0 165 233 188zM584 1573l-1 -1l-4 4h-8l-20 -4l-24 4h-16l-52 -8l-44 8h-40l-36 12l-56 -12h-4l-36 4l-56 -16l-48 12h-40l-4 -4l-4 4h-16l-36 4l-85 -8v118l9 -6h12l24 8
l12 -8q0 8 84 12q8 -8 48 -12q0 8 36 12q0 -10 44 -16h44l28 12l84 -16l28 8h4l4 -4l28 8l68 -12l32 12h4l4 -4l33 4v-115zM589 -289q-41 20 -60 20l-68 -8l-28 8h-56l-76 -16h-12q-15 0 -56 28q-32 -12 -84 -12l-80 4l-64 -12l-24 12l-12 -4l-15 4v112h11l4 4l4 -4l32 4
l24 -4q16 0 16 12q25 0 96 -20l64 16h16l56 -4l12 4q43 -12 72 -12h20l32 8h12l72 -12l24 8h4l4 -4l56 4h4l1 -136h-1z" />
    <glyph glyph-name="periodcentered" unicode="&#x2219;" horiz-adv-x="553" 
d="M245 861q118 0 178 -215q-102 -161 -116 -161h-107q-40 45 -125 45q0 18 -36 18q-16 91 -36 116q0 165 233 188zM584 1573l-1 -1l-4 4h-8l-20 -4l-24 4h-16l-52 -8l-44 8h-40l-36 12l-56 -12h-4l-36 4l-56 -16l-48 12h-40l-4 -4l-4 4h-16l-36 4l-85 -8v118l9 -6h12l24 8
l12 -8q0 8 84 12q8 -8 48 -12q0 8 36 12q0 -10 44 -16h44l28 12l84 -16l28 8h4l4 -4l28 8l68 -12l32 12h4l4 -4l33 4v-115zM589 -289q-41 20 -60 20l-68 -8l-28 8h-56l-76 -16h-12q-15 0 -56 28q-32 -12 -84 -12l-80 4l-64 -12l-24 12l-12 -4l-15 4v112h11l4 4l4 -4l32 4
l24 -4q16 0 16 12q25 0 96 -20l64 16h16l56 -4l12 4q43 -12 72 -12h20l32 8h12l72 -12l24 8h4l4 -4l56 4h4l1 -136h-1z" />
    <glyph glyph-name="Euro" unicode="&#x20ac;" horiz-adv-x="1135" 
d="M554 1432l36 -27l245 27q0 -38 163 -109l27 -81l-9 -127h-27q-45 36 -45 81v37q-25 0 -82 54l-190 18q-61 0 -91 -172l-54 -245h9l54 -18l109 9l118 -27h63v-9q0 -100 -136 -100l-54 -9l-36 18l-46 -9q-63 0 -63 18l-27 -9l9 -90v-9h27l54 -19l37 10l54 -10l127 37l9 -9
v-9l-82 -136l-81 -9l-55 18h-63q-18 0 -27 -55l18 -27l-9 -45v-64q59 -108 90 -136q0 -36 82 -36l91 -45q138 0 172 190q0 27 18 27l9 -9h9q-13 -136 -27 -136l27 -45v-9q-88 -109 -127 -109q-149 0 -226 -27q0 27 -73 36l-81 -18q-44 36 -173 91q-25 90 -90 90
q-28 25 -55 127q-41 0 -63 200v9h-64l-27 18h-9l-9 -9h-9v9q66 91 91 91q27 0 27 45v45q0 30 -100 46q9 99 27 99l46 -36h18l45 190h-9q73 136 100 236q29 0 145 91q111 72 163 72zM291 1578q-38 -1 -38 -8l-32 4l-76 -4l-80 16l-56 -16l-18 2v114h10l68 16q120 -5 120 -20
l16 8l4 -4h4q7 8 84 12q6 -1 10 -2l2 3q46 0 80 -12q46 0 60 16h20l68 -12h12l44 12q85 -13 100 -24h16q20 0 24 12h4l4 -4h16q0 8 92 20l24 -4h4l4 4q16 -6 16 -12l28 4h28l104 -20l40 16v-4q32 0 62 9l-1 -121h-1l-24 -12l-24 8q-15 -12 -36 -12h-12l-32 12
q-80 0 -156 -12q-37 0 -64 24q0 -16 -56 -20l-24 4l-28 -8q-53 8 -64 16h-4l-4 -4l-88 8q-51 0 -64 -16h-8l-16 12l-24 -8l-4 4h-12q-25 -8 -96 -12zM310 -251l-6 -11q-46 0 -80 12q-45 0 -60 -16h-20l-68 12h-12l-44 -12q-17 3 -32 5v123l84 -8q51 0 64 16h8l16 -12l24 8
l4 -4h12q23 7 87 11v5q5 1 10 3l40 -8q76 0 116 16q80 -28 108 -28h20q48 16 92 20l12 -12h12v8h12q0 -12 20 -12h8l4 4l20 -12h12q8 8 32 8l20 20l112 -28h4l52 24l4 -4h36q6 0 12 -16l88 12q10 -4 23 -6v-114h-35l-20 4l-12 -12l-36 12l-16 -4h-4l-4 4l-24 -12l-44 8
l-28 -4l-56 16l-112 -16l-4 4l-20 -4l-24 4l-60 -8q-31 0 -72 12h-4q-15 -12 -28 -12h-12q-24 0 -48 24l-48 -8l-16 4l-16 -4h-32q-23 -16 -36 -16l-32 4h-3z" />
    <glyph glyph-name="trademark" unicode="&#x2122;" horiz-adv-x="1643" 
d="M198 1435l155 -45l9 9q72 -9 72 -27v-191l9 -36l-36 -109q0 -109 27 -145l-9 -81q16 0 45 -82q28 0 28 -18v-18l-19 -18l-54 9l-18 -18l-64 9h-99l-9 -9l-55 18h-54v9l54 81q9 102 27 127l-27 73l9 127l-9 127l27 63q-11 118 -27 118zM108 1426h27l9 -9h9l-9 -9v-18
l9 -36l-91 -200l-36 -9l-18 18l18 73q-27 34 -27 63v18q0 82 82 82zM479 1426l136 -36l-18 -91l36 -91q-33 -68 -54 -72q-16 97 -118 254zM869 1426h9l18 -18l64 9h18q127 -240 127 -281q54 0 54 82h18l9 -37q-36 -50 -36 -108l9 -10l-9 -45v-45l9 -9v-9q-29 0 -63 -109
q-36 0 -46 -109l10 -36l-19 -73h-9q-59 73 -136 318q-27 0 -54 163q-16 0 -36 99l9 64l-64 82l-36 9v27h82q31 0 72 36zM1186 1426l200 -9l90 9q19 -36 46 -36v-27l-27 -9l-37 9l-18 -37q18 -22 27 -136l-9 -45l9 -91v-9q-27 -36 -27 -99q0 -202 82 -254q18 0 18 -36l-9 -10
h-9l-55 28l-126 -18h-10l-36 27h-9l-36 -9l-9 9l-91 -18v18l55 63l-10 64q28 0 28 63h9q-9 113 -37 163l19 73l-9 9v9q18 18 27 154q-64 45 -64 100q3 45 18 45zM769 1127h19q72 -132 72 -317l-9 -37q41 -15 73 -63v-36l-19 -18l-54 9q-54 -7 -54 -19l-46 10l-72 -10v10
q136 111 136 163q0 192 -46 308zM1676 -260q-4 -1 -9 -1h-16q-20 0 -24 12l-112 -12l-84 24l-64 -20v4l-52 -12l-24 4l-16 -4l-12 12h-12l-12 -12l-36 8l-60 -8q-14 12 -60 16l-20 -12l-20 12l-20 -4l-16 4l-28 -4l-64 8l-68 -16l-56 8l-24 -4h-64l-36 -12l-28 8l-12 -4
l-28 8h-4l-4 -4l-56 12l-16 -4l-40 8l-48 -12h-12l-32 8l-4 -4l-36 4l-16 -8l-16 8h-44l-32 -12h-4l-4 4l-64 -16l-40 20h-36l-40 -4l-8 8l-8 -8l-48 4h-5v114q15 -2 33 -2q17 0 36 12l24 -12h20l44 4l48 -12q51 11 60 24l20 -12q31 0 60 28q17 -4 32 -20q68 -15 68 -24
l32 8l4 -4h4l24 8l44 -4l120 24l100 -12l60 4l4 -4l16 4h48l52 -16h32l40 12h4q53 0 72 -12l28 8l80 -8q0 6 56 12l36 -4h48q105 0 116 16h20l120 -20l24 4l44 -8l21 2v-117zM143 1568q-14 -8 -44 -8l-84 12q-12 -9 -27 -11v117l51 6h16l60 16q28 0 43 -13q5 1 10 1l36 8
q0 -8 12 -8l32 4v-4q37 5 52 16q39 -8 56 -24l16 4l12 -4l32 4l4 -4l20 4h12l56 -4l4 4h4l24 -8l72 12h12l32 -8h20q29 0 72 12l12 -4l56 4h16l64 -16q71 20 96 20q0 -12 16 -12l24 4l32 -4l4 4l4 -4h4q73 0 156 16l44 -16l52 8l32 -4l24 8h16q20 0 40 -12l36 4q0 -5 40 -16
q21 5 32 20l16 4l28 -4l4 4l71 -6v-117q-17 3 -39 3l-8 -8h-4l-16 4l-16 -8l-32 8l-64 -12l-28 16l-24 -8l-4 4h-4l-40 -4l-36 12q-24 -16 -72 -16l-36 8q-28 0 -44 -8l-44 4h-36l-4 -4l-32 8l-16 -4l-12 4l-24 -12l-64 12l-80 -4q-52 0 -84 12q-41 -28 -56 -28h-12l-76 16
h-56l-28 -8l-68 8q-19 0 -60 -20q-19 0 -56 28h-8l-12 -12h-4v8h-4q-15 -16 -28 -16l-32 4l-4 -4q-4 12 -24 12q-60 -1 -60 -8l-44 12l-24 -4h-5z" />
    <glyph glyph-name="minus" unicode="&#x2212;" horiz-adv-x="672" 
d="M369 800q164 -30 164 -60l7 -29l-7 -8v-7l22 -75q0 -74 -67 -74q0 -15 -52 -15h-37l-96 30h-30l-22 -15l-164 15l-74 -30l-8 8l8 7v82l-8 44l23 90q61 22 141 22h7q51 -8 52 -22q55 0 141 37zM693 1575q-4 0 -9 1h-44l-28 -12l-84 16l-28 -8h-4l-4 4l-28 -8l-68 12
l-32 -12h-4l-4 4l-60 -8l-56 16l-80 -16l-76 4l-32 -4q0 7 -40 8h-28l-8 8v8l8 32v12l-8 12v16q0 28 32 32q77 -4 84 -12h4l4 4l16 -8q0 15 120 20l68 -16h16l4 4l4 -4h8l20 4l24 -4h16l52 8l44 -8h40l36 -12l56 12h4l36 -4l29 8v-109zM693 -267h-13l-56 4l-12 -4
q-43 12 -72 12h-20l-32 -8h-12l-72 12l-24 -8h-4l-4 4l-56 -4h-12l-20 4l-4 -4l-32 4l-12 -4l-16 4q-17 -16 -56 -24q-15 11 -52 16v-4l-32 4q-12 0 -12 -8l-36 8q-40 0 -44 68h4q4 52 16 52h4l24 -4l44 12q0 -7 60 -8q20 0 24 12l4 -4l32 4q13 0 28 -16h4v8h4l12 -12h8
q37 28 56 28q41 -20 60 -20l68 8l28 -8h56l76 16h12q15 0 56 -28q11 4 25 7v-119z" />
  </font>
</defs>
</svg>
