<?xml version="1.0" standalone="no"?> <!DOCTYPE svg PUBLIC "-//W3C//DTD SVG 1.0//EN" "http://www.w3.org/TR/2001/REC-SVG-20010904/DTD/svg10.dtd" > <svg xmlns="http://www.w3.org/2000/svg" width="100%" height="100%">
<defs >
<font id="Latinia" horiz-adv-x="476" ><font-face
    font-family="Latinia"
    units-per-em="1000"
    panose-1="2 0 5 3 5 0 0 2 0 4"
    ascent="973"
    descent="-200"
    alphabetic="0" />
<missing-glyph horiz-adv-x="1000" />
<glyph unicode=" " glyph-name="space" horiz-adv-x="278" />
<glyph unicode="!" glyph-name="exclam" horiz-adv-x="389" d="M148 94V0H243V94H148ZM245 716H142L164 168H228L245 716Z" />
<glyph unicode="&quot;" glyph-name="quotedbl" horiz-adv-x="280" d="M244 716H168L180 439H232L244 716ZM112 716H36L48 439H100L112 716Z" />
<glyph unicode="#" glyph-name="numbersign" horiz-adv-x="556" d="M18 308V261H159L123 0H170L206 261H330L294 0H341L377 261H513V308H384L400 424H539V471H407L441 716H394L360 471H236L270 716H223L189 471H44V424H182L166 308H18ZM213 308L229 424H353L337 308H213Z" />
<glyph unicode="$" glyph-name="dollar" horiz-adv-x="556" d="M507 191Q507 255 480 293T410 356T320 395T230 427T161 471T133 543Q133 601 168 632T260 663Q331 663 376 628T424 517H493V714H482L422 646Q414 663 402 676T373 698T340 713T305 722V823H259V725Q215
724 176 712T108 677T63 618T46 534Q46 487 62 456T104 402T165 366T234 339T304 314T364 283T407 240T423 177Q423 115 384 84T286 53Q255 53 226 65T175 97T139 144T124 204H53V0H65L125 78Q143 41 181 19T259 -10V-114H305V-11Q349 -9 386 5T450 46T492 109T507
191Z" />
<glyph unicode="%" glyph-name="percent" horiz-adv-x="889" d="M620 729L208 -12H269L679 729H620ZM269 729Q232 729 205 714T159 675T133 618T124 553Q124 519 132 487T157 429T201 388T267 372Q306 372 333 387T377 428T402 485T410 551Q410 585 403 617T380
674T336 714T269 729ZM270 676Q293 676 307 664T328 632T338 592T341 553Q341 536 338 514T327 473T305 440T268 426Q245 426 231 438T208 469T198 509T195 549Q195 567 198 589T209 630T232 663T270 676ZM622 342Q585 342 558 327T513 288T487 232T478 167Q478
134 486 102T511 44T555 4T620 -12Q658 -12 685 3T729 42T755 99T763 165Q763 200 756 232T733 288T689 327T622 342ZM623 289Q646 289 660 277T681 246T691 206T694 167Q694 150 691 128T680 87T658 55T621 42Q598 42 584 54T562 85T552 124T549 163Q549 181 552
202T563 243T585 276T623 289Z" />
<glyph unicode="&amp;" glyph-name="ampersand" horiz-adv-x="778" d="M618 358L708 413V422H463V413L540 358Q540 339 538 318T530 274T518 232T502 194L329 386Q359 402 384 421T428 464T457 517T468 582Q468 619 455 646T418 693T364 721T299 731Q262 731 229
722T170 694T129 646T113 575Q113 524 139 483T201 406Q129 371 93 320T57 187Q57 138 75 100T125 36T198 -4T285 -18Q352 -18 401 3T498 72L562 0H723V11L616 66L551 139Q582 187 597 244T618 358ZM285 436Q272 451 258 467T231 502T212 539T204 580Q204 621 228
645T294 669Q339 669 361 644T383 574Q383 551 375 531T353 494T321 462T285 436ZM253 350Q353 239 451 125Q417 91 376 71T286 50Q256 50 231 61T188 92T159 138T148 193Q148 223 155 245T177 286T210 319T253 350Z" />
<glyph unicode="&apos;" glyph-name="quotesingle" horiz-adv-x="140" d="M108 716H32L44 439H96L108 716Z" />
<glyph unicode="(" glyph-name="parenleft" horiz-adv-x="333" d="M142 271Q142 327 150 389T174 512T216 629T277 731H203Q129 634 93 513T56 271Q56 150 92 29T203 -189H277Q242 -144 217 -88T175 30T150 153T142 271Z" />
<glyph unicode=")" glyph-name="parenright" horiz-adv-x="333" d="M181 271Q181 214 173 152T146 29T101 -88T37 -189H111Q150 -142 179 -87T227 28T257 149T267 271Q267 331 257 393T228 514T179 628T111 731H37Q74 686 101 630T146 514T172 391T181 271Z" />
<glyph unicode="*" glyph-name="asterisk" horiz-adv-x="444" d="M223 510L291 387L351 431L255 533L393 560L371 630L243 572L260 711H186L203 572L75 630L53 560L191 533L95 431L155 387L223 510Z" />
<glyph unicode="+" glyph-name="plus" horiz-adv-x="660" d="M294 390H71V328H294V104H356V328H580V390H356V611H294V390Z" />
<glyph unicode="," glyph-name="comma" horiz-adv-x="278" d="M84 101V0H131L84 -141H142Q143 -137 150 -115T165 -68T179 -22T186 0V101H84Z" />
<glyph unicode="-" glyph-name="hyphen" horiz-adv-x="333" d="M49 313V240H285V313H49Z" />
<glyph unicode="." glyph-name="period" horiz-adv-x="278" d="M87 100V0H189V100H87Z" />
<glyph unicode="/" glyph-name="slash" horiz-adv-x="352" d="M1 0H71L356 731H286L1 0Z" />
<glyph unicode="0" glyph-name="zero" horiz-adv-x="556" d="M509 358Q509 396 506 438T493 522T468 600T427 666T365 712T279 729Q230 729 194 712T132 667T90 601T64 522T52 439T48 358Q48 320 51 278T64 194T89 116T131 50T193 5T278 -12Q327 -12 363 5T425
50T467 115T492 194T505 277T509 358ZM417 358Q417 335 416 304T411 239T397 172T373 112T335 70T279 54Q246 54 223 70T185 112T160 171T147 238T141 303T140 358Q140 381 141 412T146 478T160 545T184 604T222 647T278 663Q327 663 355 629T396 546T413 445T417
358Z" />
<glyph unicode="1" glyph-name="one" horiz-adv-x="556" d="M351 63V716H259Q223 678 184 645T104 579V570L263 618V63L155 8V0H452V8L351 63Z" />
<glyph unicode="2" glyph-name="two" horiz-adv-x="556" d="M49 0H492V184H483L413 69H117Q141 92 177 125T254 196T335 278T408 367T461 456T482 541Q482 587 466 622T422 681T356 717T275 729Q169 729 114 673T55 512H67Q67 542 83 569T126 616T185 648T252
660Q279 660 303 651T347 625T378 586T390 537Q390 498 370 458T319 381T256 310T197 252L49 107V0Z" />
<glyph unicode="3" glyph-name="three" horiz-adv-x="556" d="M72 526Q72 553 92 577T143 620T207 650T271 661Q330 661 363 627T397 534Q397 498 385 473T352 431T303 407T241 399V332Q276 332 306 324T357 299T391 254T404 189Q404 161 394 137T365 96T322 68T269
58Q237 58 202 69T136 100T86 145T66 200H53Q53 93 112 41T276 -12Q322 -12 361 1T430 40T476 103T493 189Q493 262 453 310T338 364Q407 375 446 420T486 535Q486 582 471 618T429 679T363 716T280 729Q234 729 194 716T124 676T77 612T60 526H72Z" />
<glyph unicode="4" glyph-name="four" horiz-adv-x="556" d="M308 716L28 288V191H333V63L223 8V0H505V8L414 63V191H514V256H414V716H308ZM333 638V256H90L333 638Z" />
<glyph unicode="5" glyph-name="five" horiz-adv-x="556" d="M477 716H90L76 294H161Q175 339 209 364T291 390Q327 390 351 376T391 338T412 284T419 223Q419 190 407 160T374 107T322 70T255 56Q226 56 196 66T140 95T98 137T82 190H72Q72 142 87 104T129 41T196
2T282 -12Q337 -12 379 5T449 55T492 131T506 229Q506 277 494 318T457 390T394 439T305 457Q257 457 217 436T157 368L170 646L477 706V716Z" />
<glyph unicode="6" glyph-name="six" horiz-adv-x="556" d="M504 225Q504 270 493 312T459 385T399 436T312 455Q251 455 209 424T143 338Q144 365 146 400T154 471T173 541T207 603T261 646T338 663Q364 663 390 654T436 628T469 591T483 546H493Q491 631 443
680T310 729Q256 729 216 713T149 667T104 600T76 519T63 431T59 342Q59 283 66 220T98 106T168 21T289 -12Q341 -12 381 6T449 57T490 132T504 225ZM290 53Q254 53 229 68T188 107T165 162T157 224Q157 255 165 284T191 337T233 374T293 388Q327 388 351 374T390
337T411 285T418 226Q418 197 411 166T389 110T349 69T290 53Z" />
<glyph unicode="7" glyph-name="seven" horiz-adv-x="556" d="M514 716H56V520H62L137 645H433Q355 485 289 327T166 0H260Q312 168 375 326T514 644V716Z" />
<glyph unicode="8" glyph-name="eight" horiz-adv-x="556" d="M281 336Q345 336 378 298T411 199Q411 133 377 93T275 53Q242 53 218 64T178 96T153 143T145 200Q145 263 181 299T281 336ZM279 666Q339 666 372 632T406 537Q406 509 398 484T373 439T334 407T281
395Q252 395 228 406T187 435T161 479T151 534Q151 593 185 629T279 666ZM207 369Q135 357 96 311T57 192Q57 141 73 103T118 39T188 1T278 -12Q327 -12 367 1T437 40T482 105T499 195Q499 269 459 314T347 370Q415 385 453 425T491 538Q491 586 475 622T430 682T362
717T278 729Q232 729 194 717T127 679T83 618T67 533Q67 463 104 424T207 369Z" />
<glyph unicode="9" glyph-name="nine" horiz-adv-x="556" d="M54 492Q54 447 65 406T99 332T158 280T245 261Q309 261 349 293T415 380Q414 353 413 319T406 248T390 177T361 115T317 71T252 54Q165 54 122 88T76 171H64Q67 86 114 37T247 -12Q301 -12 341 4T409
50T454 117T482 198T495 286T499 375Q499 434 492 497T460 611T390 696T269 729Q216 729 176 711T109 660T68 585T54 492ZM270 663Q304 663 328 648T369 609T392 555T400 495Q400 465 392 435T367 381T325 343T265 328Q230 328 207 343T169 381T148 434T141 494Q141
524 148 554T171 608T211 647T270 663Z" />
<glyph unicode=":" glyph-name="colon" horiz-adv-x="389" d="M143 501V401H245V501H143ZM143 100V0H245V100H143Z" />
<glyph unicode=";" glyph-name="semicolon" horiz-adv-x="389" d="M139 501V401H241V501H139ZM140 101V0H187L140 -141H198Q199 -137 206 -115T221 -68T235 -22T242 0V101H140Z" />
<glyph unicode="&lt;" glyph-name="less" horiz-adv-x="660" d="M121 357L596 571V634L54 386V328L596 80V143L121 357Z" />
<glyph unicode="=" glyph-name="equal" horiz-adv-x="660" d="M76 401H583V463H76V401ZM76 251H583V313H76V251Z" />
<glyph unicode="&gt;" glyph-name="greater" horiz-adv-x="660" d="M54 143V80L596 328V386L54 634V571L529 357L54 143Z" />
<glyph unicode="?" glyph-name="question" horiz-adv-x="500" d="M250 727Q155 727 98 680T37 533H45Q45 559 58 582T96 622T159 650T246 660Q303 660 331 626T359 538Q359 498 346 472T312 425T268 385T224 338T191 271T177 171V165H265Q265 188 266 210T275
256Q282 280 297 298T332 335T373 372T411 416T439 472T450 547Q450 589 434 622T390 679T326 715T250 727ZM173 94V0H268V94H173Z" />
<glyph unicode="@" glyph-name="at" horiz-adv-x="900" d="M464 728Q388 728 317 701T192 624T104 509T71 363Q71 280 104 212T192 95T319 20T472 -7Q508 -7 553 1T643 24T724 63T784 119L761 150Q738 120 703 98T627 61T544 40T465 33Q397 33 334 57T221 124T143
228T113 359Q113 431 142 491T221 595T334 663T467 688Q522 688 578 672T679 623T753 543T782 434Q782 402 771 361T738 283T686 220T618 194Q598 194 588 206T577 238Q577 247 582 270T596 324T615 388T634 454T652 511T664 549H616L600 486Q589 523 559 546T490
569Q440 569 396 549T318 495T266 415T246 320Q246 288 256 259T285 206T331 170T393 156Q431 156 471 173T536 220Q541 196 555 175T598 154Q648 154 689 180T759 248T805 337T822 431Q822 502 790 557T707 651T592 708T464 728ZM481 529Q499 529 516 523T547
504T569 476T578 441Q578 406 565 366T537 294Q518 252 488 226T408 199Q356 199 327 233T298 317Q298 354 311 392T349 460T406 510T481 529Z" />
<glyph unicode="A" glyph-name="A" horiz-adv-x="778" d="M503 304H263L384 637L503 304ZM758 6L688 66L438 716H337L84 66L10 6V0H272V6L174 66L235 238H531L593 66L494 6V0H758V6Z" />
<glyph unicode="B" glyph-name="B" horiz-adv-x="667" d="M217 334H369Q436 334 471 304T507 205Q507 172 495 146T461 102T411 75T351 66H217V334ZM376 0Q424 0 465 13T535 51T581 115T598 204Q598 277 556 324T439 375Q470 378 496 391T540 426T569 474T580
533Q580 623 530 669T392 716H30V710L130 650L128 66L29 6V0H376ZM217 399V650H358Q389 650 413 645T455 626T482 590T491 534Q491 498 479 472T446 430T396 407T334 399H217Z" />
<glyph unicode="C" glyph-name="C" horiz-adv-x="722" d="M156 358Q156 416 167 470T206 566T278 632T391 657Q439 657 473 643T529 603T564 541T582 462H660V716H650L588 611Q574 644 552 666T501 701T441 721T375 727Q294 727 235 697T136 615T78 497T59 356Q59
279 77 212T135 95T235 17T380 -12Q441 -12 491 4T579 51T638 130T663 241H650Q645 160 577 110T386 60Q320 60 276 85T206 152T168 247T156 358Z" />
<glyph unicode="D" glyph-name="D" horiz-adv-x="722" d="M580 348Q580 212 511 139T304 66H213V650H315Q386 650 436 628T519 565T565 470T580 348ZM126 650L124 66L25 6V0H319Q493 0 581 92T670 357Q670 441 649 508T585 621T478 691T327 716H25V710L126 650Z" />
<glyph unicode="E" glyph-name="E" horiz-adv-x="667" d="M601 0V223H593L523 66H218V331H466L526 224H538V505H526L466 397H218V650H523L593 502H601V716H29V710L131 650L129 66L29 6V0H601Z" />
<glyph unicode="F" glyph-name="F" horiz-adv-x="611" d="M209 66V318L445 317L505 208L513 209V487L505 486L444 383L209 384V650H494L564 499H572V716H21V710L122 650L120 66L21 6V0H328V6L209 66Z" />
<glyph unicode="G" glyph-name="G" horiz-adv-x="778" d="M154 349Q154 403 164 458T200 557T268 630T376 658Q470 658 520 606T575 462H654V716H645L575 622Q562 648 541 667T493 700T438 720T381 727Q297 727 236 699T136 620T77 503T58 357Q58 281 75 214T130
97T227 17T370 -12Q401 -12 433 -5T494 18T545 56T580 110L650 0H663V289L752 349V354H471V349L581 289Q581 244 568 203T529 129T465 77T379 58Q317 58 274 83T205 150T166 243T154 349Z" />
<glyph unicode="H" glyph-name="H" horiz-adv-x="778" d="M131 650L129 66L31 6V0H318V6L218 66V326H559L557 66L459 6V0H746V6L646 66L648 650L746 710V716H459V710L559 650V396H218L220 650L318 710V716H31V710L131 650Z" />
<glyph unicode="I" glyph-name="I" horiz-adv-x="333" d="M211 66V650L311 710V716H23V710L123 650V66L23 6V0H311V6L211 66Z" />
<glyph unicode="J" glyph-name="J" horiz-adv-x="500" d="M319 650V209Q319 180 308 153T278 105T232 71T177 58Q147 58 120 73T73 111T40 164T28 221H20Q20 171 28 129T56 55T113 7T207 -11Q310 -11 358 42T406 196Q406 310 406 423T408 650L485 710V716H214V710L319
650Z" />
<glyph unicode="K" glyph-name="K" horiz-adv-x="667" d="M209 66V380L473 66L386 6V0H670V6Q667 8 654 17T625 37T597 56T583 66Q512 140 447 221T314 380L490 560Q508 578 527 598T568 639T612 678T658 710V716H380V710L467 650L209 380L211 650L307 710V716H20V710L122
650L120 66L20 6V0H307V6L209 66Z" />
<glyph unicode="L" glyph-name="L" horiz-adv-x="611" d="M222 650L339 710V716H29V710L132 650L130 66L29 8V0H572V234H561L491 72H219L222 650Z" />
<glyph unicode="M" glyph-name="M" horiz-adv-x="944" d="M664 716L470 104L282 716H30V710L133 650V66L30 9V0H302V10L209 66V663L429 0H507L728 663V66L635 10V0H912V9L812 66V650L912 710V716H664Z" />
<glyph unicode="N" glyph-name="N" horiz-adv-x="778" d="M576 91L260 716H29V710L130 650V66L29 7V0H309V9L206 66V640L533 0H652V650L751 710V716H475V710L576 650V91Z" />
<glyph unicode="O" glyph-name="O" horiz-adv-x="778" d="M626 357Q626 301 614 247T573 149T500 80T390 53Q325 53 280 79T206 149T166 246T153 357Q153 414 165 468T206 566T279 635T390 662Q455 662 500 636T573 566T613 468T626 357ZM722 357Q722 435 701
502T639 620T535 698T390 727Q307 727 245 699T141 620T78 503T57 357Q57 279 78 212T140 95T244 17T390 -12Q472 -12 534 16T638 95T701 212T722 357Z" />
<glyph unicode="P" glyph-name="P" horiz-adv-x="611" d="M218 360V650H330Q403 650 445 617T487 506Q487 434 454 397T347 360H218ZM218 294H376Q424 294 461 310T523 354T562 421T576 506Q576 609 520 662T361 716H29V710L131 650L129 66L29 11V0H338V11L218 66V294Z" />
<glyph unicode="Q" glyph-name="Q" horiz-adv-x="778" d="M603 357Q603 301 591 247T550 149T477 80T367 53Q302 53 257 79T183 149T143 246T130 357Q130 414 142 468T183 566T256 635T367 662Q432 662 477 636T550 566T590 468T603 357ZM755 6L625 50Q645 80
659 118T682 198T695 280T699 357Q699 435 678 502T616 620T512 698T367 727Q284 727 222 699T118 620T55 503T34 357Q34 279 55 212T117 95T221 17T367 -12Q389 -12 411 -8T453 -3H755V6Z" />
<glyph unicode="R" glyph-name="R" horiz-adv-x="667" d="M211 315H310Q344 315 366 311T402 294T426 262T445 209L505 0H652V6L575 66L523 248Q516 272 508 288T488 315T459 332T417 344Q455 344 484 359T532 400T561 459T571 527Q571 627 519 671T369 716H22V710L124
650L122 66L22 6V0H308V6L211 66V315ZM211 382V650H349Q416 650 449 620T483 520Q483 445 442 414T329 382H211Z" />
<glyph unicode="S" glyph-name="S" horiz-adv-x="556" d="M513 194Q513 242 497 275T455 332T395 371T326 398T258 422T198 448T155 485T139 540Q139 599 175 630T268 662Q310 662 339 648T386 610T412 553T420 482H497V716H488L420 649Q395 694 351 710T257 727Q212
727 174 715T107 678T62 618T46 535Q46 488 62 456T104 402T164 365T233 338T302 314T362 284T405 242T421 180Q421 118 384 87T286 56Q244 56 214 71T164 111T134 170T123 242H47V0H56L123 90Q147 33 192 11T297 -12Q344 -12 383 2T452 43T497 108T513 194Z" />
<glyph unicode="T" glyph-name="T" horiz-adv-x="667" d="M372 66V640H536L606 487H616V716H38V487H48L118 640H285L283 66L175 6V0H482V6L372 66Z" />
<glyph unicode="U" glyph-name="U" horiz-adv-x="722" d="M539 266Q539 224 529 187T497 121T442 76T363 59Q318 59 285 74T231 116T200 179T190 258L192 650L297 710V716H15V710L103 650V237Q103 181 122 136T174 57T254 6T356 -12Q418 -12 466 7T547 62T598
148T616 258L618 650L705 710V716H434V710L539 650V266Z" />
<glyph unicode="V" glyph-name="V" horiz-adv-x="722" d="M455 710L558 650L361 88L167 650L272 710V716H-6V710L72 650L308 0H407L648 650L726 710V716H455V710Z" />
<glyph unicode="W" glyph-name="W" horiz-adv-x="1000" d="M846 650L722 81L568 716H443L280 87L160 650L263 710V716H4V710L72 650L218 0H336L499 666L661 0H778L928 650L1002 709V716H743V710L846 650Z" />
<glyph unicode="X" glyph-name="X" horiz-adv-x="722" d="M427 710L521 650L372 442L225 650L319 710V716H21V710L116 650L311 375L87 66L-4 6V0H296V6L186 66L366 311L537 66L432 6V0H725V6Q722 8 710 17T684 37T659 56T647 66Q619 101 591 140T536 220T481 301T428
379L622 650L717 710V716H427V710Z" />
<glyph unicode="Y" glyph-name="Y" horiz-adv-x="667" d="M412 710L506 650L337 370L167 650L266 710V716H2V710Q4 708 14 699T36 679T57 660T67 650L288 292L286 66L177 6V0H486V6L375 66V293L600 650Q600 651 610 659T631 678T653 698T666 710V716H412V710Z" />
<glyph unicode="Z" glyph-name="Z" horiz-adv-x="611" d="M492 69H132L560 632V716H45V504H55L125 648H462L38 91V0H569V219H559L492 69Z" />
<glyph unicode="[" glyph-name="bracketleft" horiz-adv-x="333" d="M176 676Q195 674 214 674T253 675V731H100V-189H253V-133H199L176 -134V676Z" />
<glyph unicode="\" glyph-name="backslash" horiz-adv-x="580" d="M380 0H448L149 731H81L380 0Z" />
<glyph unicode="]" glyph-name="bracketright" horiz-adv-x="333" d="M153 676V-134Q134 -132 115 -132T76 -133V-189H229V731H76V675H130L153 676Z" />
<glyph unicode="^" glyph-name="asciicircum" horiz-adv-x="660" d="M116 176L329 644L543 176H605L357 716H301L54 176H116Z" />
<glyph unicode="_" glyph-name="underscore" horiz-adv-x="500" d="M500 -113V-48H0V-113H500Z" />
<glyph unicode="`" glyph-name="grave" horiz-adv-x="278" d="M202 600L90 738H13L151 600H202Z" />
<glyph unicode="a" glyph-name="a" horiz-adv-x="556" d="M383 253Q383 216 375 179T347 111T298 63T225 44Q176 44 154 73T131 148Q131 181 142 202T173 235T217 252T272 257Q300 257 327 256T383 253ZM383 104V0H541V8L459 63V367Q459 413 444 445T403 498T341
528T262 538Q181 538 134 501T82 374H89Q90 401 102 421T135 455T181 475T236 478Q279 473 307 464T352 438T376 400T383 349V315Q349 315 311 316T236 315T164 304T103 277T61 227T45 148Q45 68 92 27T217 -15Q277 -15 320 16T383 104Z" />
<glyph unicode="b" glyph-name="b" horiz-adv-x="611" d="M184 433V716H23V710L103 657V63L20 8V0H184V95Q194 71 210 52T248 20T294 0T345 -7Q407 -7 451 14T522 73T563 159T576 265Q576 319 564 368T526 455T457 515T353 538Q296 538 253 510T184 433ZM181 267Q181
304 190 341T218 408T267 456T341 475Q383 475 411 456T458 405T484 337T492 265Q492 228 484 191T458 124T409 76T336 57Q289 57 259 75T212 122T188 190T181 267Z" />
<glyph unicode="c" glyph-name="c" horiz-adv-x="500" d="M402 177Q399 153 389 132T363 94T326 68T280 58Q239 58 210 77T162 126T135 192T126 264Q126 301 133 338T159 405T206 453T280 472Q309 472 333 460T373 429T399 383T409 330H472V522H463L409 457Q386
499 347 518T261 538Q203 538 161 514T92 450T51 360T37 259Q37 203 52 155T98 70T173 14T277 -7Q319 -7 354 6T417 43T460 101T479 177H402Z" />
<glyph unicode="d" glyph-name="d" horiz-adv-x="611" d="M432 106V0H597V9L513 63V716H346V707L431 657V439Q406 487 363 512T265 538Q204 538 162 516T94 455T56 368T44 265Q44 212 56 163T96 76T165 16T266 -7Q323 -7 368 22T432 106ZM432 258Q432 222 425
186T400 120T355 73T283 54Q239 54 210 74T162 125T137 195T129 270Q129 305 137 341T164 408T212 457T282 476Q327 476 356 456T402 404T425 334T432 258Z" />
<glyph unicode="e" glyph-name="e" horiz-adv-x="556" d="M513 163L503 162Q502 138 487 118T447 82T393 59T333 51Q276 53 239 69T180 110T147 170T135 245H521Q521 304 512 357T479 451T411 514T297 538Q234 538 188 516T112 457T67 368T52 259Q52 197 67 148T113
65T191 12T302 -7Q340 -7 376 5T440 39T488 92T513 163ZM136 304Q138 336 149 367T180 424T228 464T292 480Q331 480 358 465T402 426T427 369T435 303Q360 308 286 306T136 304Z" />
<glyph unicode="f" glyph-name="f" horiz-adv-x="333" d="M191 63V463H301V522H191Q191 550 191 575T199 620T225 651T280 662Q298 662 317 661T353 654V722Q330 726 309 728T264 731Q209 731 178 716T132 672T113 606T109 522H18V463H109V63L21 7V0H289V7L191 63Z" />
<glyph unicode="g" glyph-name="g" horiz-adv-x="611" d="M434 91Q434 48 428 10T404 -59T350 -108T254 -131Q226 -133 196 -130T141 -117T98 -91T78 -51H67Q71 -94 91 -121T142 -164T208 -186T281 -192Q393 -192 454 -136T515 34V471L587 516V522L424 523V430Q401
481 361 509T263 537Q204 537 162 516T92 459T51 376T37 274Q37 219 49 168T87 78T157 16T263 -7Q320 -7 362 18T434 91ZM434 257Q434 221 425 185T396 120T346 73T274 55Q232 55 203 74T157 124T132 192T124 264Q124 301 132 338T158 403T206 450T280 468Q322
468 351 449T399 398T426 330T434 257Z" />
<glyph unicode="h" glyph-name="h" horiz-adv-x="611" d="M520 63V372Q520 455 475 496T349 538Q248 538 195 451V716H30V709L113 657V63L29 9V0H280V9L195 63V312Q195 342 202 371T226 423T266 461T325 475Q361 475 383 465T417 435T433 390T438 332V63L353 9V0H605V9L520
63Z" />
<glyph unicode="i" glyph-name="i" horiz-adv-x="296" d="M111 632H205V716H111V632ZM200 63V522H35V516L118 463V63L34 7V0H280V7L200 63Z" />
<glyph unicode="j" glyph-name="j" horiz-adv-x="278" d="M106 632H200V716H106V632ZM113 463V-22Q113 -42 111 -65T102 -110T82 -145T46 -159Q35 -159 23 -157T-1 -153V-168Q30 -175 65 -175Q103 -175 128 -166T168 -138T189 -92T195 -29V522H26V515L113 463Z" />
<glyph unicode="k" glyph-name="k" horiz-adv-x="556" d="M25 707L108 657V63L25 10V0H263V10L190 63V189L281 280L396 64L335 11V0H544V11L488 64L340 332L465 463L535 513V522H300V513L377 463L190 265V716H25V707Z" />
<glyph unicode="l" glyph-name="l" horiz-adv-x="278" d="M21 707L104 657V63L21 10V0H265V10L186 63V716H21V707Z" />
<glyph unicode="m" glyph-name="m" horiz-adv-x="889" d="M801 63V372Q801 451 758 494T636 538Q580 538 544 510T491 429Q475 482 437 510T344 538Q289 538 251 511T196 431V522H30V513L115 463V63L30 9V0H277V9L196 63V312Q196 341 202 370T223 422T260 460T318
475Q374 475 395 443T417 359V63L338 9V0H580V9L499 63V322Q499 350 506 377T529 427T567 462T623 475Q651 475 669 467T699 443T715 406T720 359V63L640 9V0H878V9L801 63Z" />
<glyph unicode="n" glyph-name="n" horiz-adv-x="611" d="M514 63V372Q514 453 471 495T347 538Q287 538 251 512T194 430V522H27V513L112 463V63L25 9V0H275V9L194 63V312Q194 341 201 370T224 422T264 460T321 475Q357 475 378 464T412 434T428 389T432 332V63L350
9V0H595V9L514 63Z" />
<glyph unicode="o" glyph-name="o" horiz-adv-x="556" d="M520 265Q520 322 505 371T460 458T385 516T279 538Q218 538 173 517T97 459T52 372T37 265Q37 208 52 159T97 73T172 15T279 -7Q339 -7 384 14T460 72T505 158T520 265ZM434 265Q434 227 427 190T401
122T353 74T279 55Q234 55 204 73T156 122T131 189T123 265Q123 303 130 340T156 408T204 457T279 476Q324 476 353 457T401 408T426 340T434 265Z" />
<glyph unicode="p" glyph-name="p" horiz-adv-x="611" d="M185 96Q212 48 252 21T350 -7Q411 -7 454 15T524 76T563 164T576 269Q576 321 564 369T526 455T459 515T359 538Q296 538 254 507T185 420V522H23V513L103 463V-99L20 -155V-162H268V-155L185 -99V96ZM185
265Q185 304 192 342T218 410T266 458T343 477Q386 477 415 458T461 407T486 339T494 265Q494 230 486 193T460 124T414 73T343 53Q297 53 267 71T218 120T193 188T185 265Z" />
<glyph unicode="q" glyph-name="q" horiz-adv-x="611" d="M427 97V-99L344 -153V-162H592V-153L509 -99V463L590 515V522H427V426Q417 452 400 473T360 508T311 530T257 538Q195 538 153 516T85 456T48 369T36 265Q36 211 48 162T88 75T159 15T262 -7Q320 -7 360
20T427 97ZM427 273Q427 235 420 196T396 126T349 74T273 53Q231 53 202 73T154 124T128 192T119 265Q119 301 126 339T152 407T199 457T272 477Q314 477 343 459T391 411T418 346T427 273Z" />
<glyph unicode="r" glyph-name="r" horiz-adv-x="389" d="M196 63V272Q196 308 203 342T226 402T271 444T341 460Q349 460 357 459T373 456V531Q335 531 308 528T260 514T224 480T196 420V522H31V513L114 463V63L31 10V0H294V10L196 63Z" />
<glyph unicode="s" glyph-name="s" horiz-adv-x="500" d="M444 150Q444 206 422 236T365 281T292 302T219 316T163 340T140 391Q140 413 149 429T174 456T208 472T248 477Q308 477 341 446T374 354H438V522H428L375 468Q354 508 317 523T236 538Q201 538 169 529T113
500T74 453T59 386Q59 344 72 318T106 275T154 252T209 239T265 230T313 216T347 191T360 147Q360 125 352 108T329 79T295 61T256 54Q194 54 158 86T115 180H52V0H62L115 81Q141 33 177 13T267 -7Q302 -7 334 3T390 34T429 83T444 150Z" />
<glyph unicode="t" glyph-name="t" horiz-adv-x="370" d="M179 125V463H329V522H179V655L172 654L97 522H8V463H97V141Q97 108 102 81T121 34T159 4T220 -7Q259 -7 284 6T323 43T342 96T347 160H332Q332 146 325 128T306 93T277 65T241 53Q209 53 194 75T179 125Z" />
<glyph unicode="u" glyph-name="u" horiz-adv-x="611" d="M501 522H331V514L419 463V235Q419 203 412 171T390 112T348 70T285 53Q251 53 231 65T201 97T187 144T183 198V522H20V514L101 463V177Q101 132 110 98T139 40T193 5T273 -7Q330 -7 365 18T419 97V0H582V13L501
63V522Z" />
<glyph unicode="v" glyph-name="v" horiz-adv-x="556" d="M488 463L541 513V522H323V513L407 463L280 58L154 463L239 513V522H15V513L67 463L227 0H330L488 463Z" />
<glyph unicode="w" glyph-name="w" horiz-adv-x="889" d="M505 522H391L265 63L161 463L249 513V522H15V513L75 463L209 0H316L446 470L575 0H682L816 463L873 513V522H647V513L735 463L633 62L505 522Z" />
<glyph unicode="x" glyph-name="x" horiz-adv-x="556" d="M487 463L557 513V522H324V513L404 463L289 314L176 463L248 513V522H-3V513L79 463L233 271L67 63L-9 10V0H239V13L153 63L277 216L397 63L317 13V0H564V10L492 63L333 263L487 463Z" />
<glyph unicode="y" glyph-name="y" horiz-adv-x="556" d="M328 513L411 463L287 99L159 463L240 513V522H17V513L67 463L242 0Q236 -17 230 -43T214 -95T190 -139T153 -158Q139 -158 125 -156T96 -151V-167Q111 -169 128 -171T160 -174Q192 -174 215 -165T255
-139T285 -99T308 -49L497 463L543 513V522H328V513Z" />
<glyph unicode="z" glyph-name="z" horiz-adv-x="500" d="M56 522V356H66L126 461H353L49 66V0H451V179H441L381 62H141L448 458V522H56Z" />
<glyph unicode="{" glyph-name="braceleft" horiz-adv-x="300" d="M36 270Q79 260 97 235T115 167V-48Q115 -81 121 -107T142 -151T181 -179T240 -189Q245 -189 251 -188T262 -186Q238 -185 223 -173T198 -144T186 -106T183 -65V137Q183 161 179 183T165 222T138
252T95 271Q132 279 151 302T179 357T187 428T184 507T181 585T187 654T211 705T264 731H240Q205 731 181 722T143 694T122 649T115 590V375Q115 331 97 307T36 270Z" />
<glyph unicode="|" glyph-name="bar" horiz-adv-x="660" d="M294 0H356V731H294V0Z" />
<glyph unicode="}" glyph-name="braceright" horiz-adv-x="300" d="M255 272Q213 283 198 308T182 375V590Q182 622 177 648T158 692T121 721T63 731Q58 731 52 730T40 728Q71 726 87 707T109 658T115 590T112 512T110 431Q110 392 117 359T143 303T196 271Q150
260 133 224T112 139T113 36T116 -67T99 -148T40 -189H63Q98 -189 121 -179T157 -151T176 -106T182 -48V167Q182 209 198 234T255 272Z" />
<glyph unicode="~" glyph-name="asciitilde" horiz-adv-x="660" d="M209 366Q233 366 262 355T323 330T387 305T450 294Q478 294 500 302T541 326T574 360T603 402L555 433Q546 419 536 405T512 379T484 360T450 352Q425 352 396 363T336 387T272 412T209 424Q181
424 159 416T118 392T85 358T56 316L104 285Q121 315 146 340T209 366Z" />
</font>
</defs>
</svg>
